<?xml version="1.0" encoding="UTF-8"?>
<svg xmlns="http://www.w3.org/2000/svg" xmlns:xlink="http://www.w3.org/1999/xlink" viewBox="0 0 933.15 741.22">
  <defs>
    <style>
      .cls-1 {
        fill: #ff9191;
        font-size: 130.01px;
        letter-spacing: .01em;
      }

      .cls-1, .cls-2, .cls-3, .cls-4, .cls-5 {
        font-family: ArialRoundedMTBold, 'Arial Rounded MT Bold';
      }

      .cls-6 {
        stroke-width: 10px;
      }

      .cls-6, .cls-7 {
        stroke-linecap: round;
      }

      .cls-6, .cls-7, .cls-8 {
        fill: #fff;
      }

      .cls-6, .cls-7, .cls-9 {
        stroke: #516e9b;
        stroke-linejoin: round;
      }

      .cls-2 {
        fill: #81a969;
        font-size: 108.64px;
        letter-spacing: .01em;
      }

      .cls-10 {
        fill: none;
      }

      .cls-10, .cls-11, .cls-12, .cls-8, .cls-13 {
        stroke-width: 0px;
      }

      .cls-7 {
        stroke-width: 8px;
      }

      .cls-14 {
        clip-path: url(#clippath-1);
      }

      .cls-11 {
        fill: #f3edd7;
      }

      .cls-12, .cls-9 {
        fill: #516e9b;
      }

      .cls-15 {
        clip-path: url(#clippath);
      }

      .cls-3 {
        fill: #8da9df;
        font-size: 115px;
        letter-spacing: .01em;
      }

      .cls-4 {
        fill: #ffe16f;
        font-size: 113.37px;
        letter-spacing: .01em;
      }

      .cls-9 {
        stroke-width: 5px;
      }

      .cls-13, .cls-5 {
        fill: #ffbd59;
      }

      .cls-5 {
        font-size: 121.16px;
      }
    </style>
    <clipPath id="clippath">
      <polygon class="cls-10" points="440.46 136.16 440.46 136.16 598.62 136.16 598.62 287.51 440.46 287.51 440.46 136.16"/>
    </clipPath>
    <clipPath id="clippath-1">
      <polygon class="cls-10" points="304.36 136.16 304.36 136.16 146.2 136.16 146.2 287.51 304.36 287.51 304.36 136.16"/>
    </clipPath>
  </defs>
  <g id="BG">
    <path class="cls-11" d="M312.46,733.59l484.52-.65c85.44-.11,150.22-78.08,133.54-161.87-8.05-40.43-30.38-80.3-79.38-108.68-5.08-2.94-10.4-5.49-15.84-7.72-65.31-26.85-101.16-49.42-109.68-100.99-3.57-21.61-1.38-43.76,5.58-64.53,22.88-68.34,38.4-194.5-111.04-221.97-16.25-2.99-32.92-3.23-49.16-.17-108.71,20.49-154.79,148.23-229.83,119.43-122.98-44.32-211.04-24.53-292.58,46.27-20.73,18-35.76,41.74-42.6,68.32-25.84,100.53,35.84,214.92,107.63,281.87,4.3,4.01,8.88,7.71,13.65,11.16,33.48,24.19,54.33,49.51,67.31,71.84,24.4,41.97,69.32,67.75,117.87,67.69Z"/>
    <path class="cls-11" d="M234.25,78.81c11.71-17.84,44.64-18.23,67.39-9.09,59.88,24.04,58.13-.81,91.11,24.01,29.34,22.07,30.02,41.12-16.3,65.49-29.55,11.68-55.28-9.05-110.76-18.91-.83-.15-2.82.29-3.63.08-35.85-9.6-37.07-47.45-27.8-61.57Z"/>
  </g>
  <g id="Stars">
    <path class="cls-13" d="M806.18,238.63c7.06,16.7,5.76,24.32,24.44,31.24-20.02,7.41-24.44,36.59-24.44,36.59,0,0-.59-28.35-23.36-33.27,18.7-9.56,18.56-14.08,23.36-34.55Z"/>
    <path class="cls-13" d="M109.58,534.44c7.52,20.3,6.14,29.56,26.04,37.97-21.34,9.01-26.04,44.48-26.04,44.48,0,0-.63-34.46-24.89-40.45,19.93-11.62,19.77-17.11,24.89-42Z"/>
    <path class="cls-13" d="M119.54,147.46c7.7,17.61,6.28,25.64,26.66,32.94-21.84,7.81-26.66,38.59-26.66,38.59,0,0-.64-29.9-25.48-35.09,20.4-10.09,20.24-14.85,25.48-36.44Z"/>
    <path class="cls-13" d="M431.65,0c5.55,15.82,4.53,23.04,19.22,29.59-15.75,7.02-19.22,34.67-19.22,34.67,0,0-.46-26.86-18.37-31.52,14.71-9.06,14.59-13.34,18.37-32.74Z"/>
    <path class="cls-13" d="M880.44,643.37c-7.5-23.64-4.55-33.73-29.91-45.95,29.37-6.92,39.9-45.65,39.9-45.65,0,0-3.34,38.38,28.08,48.54-27.82,10.03-28.28,16.15-38.08,43.07Z"/>
    <path class="cls-8" d="M651.84,167.64c-5.79-9.94-4.73-14.47-20.06-18.58,16.44-4.41,20.06-21.77,20.06-21.77,0,0,.48,16.87,19.18,19.8-15.35,5.69-15.24,8.38-19.18,20.56Z"/>
    <path class="cls-8" d="M146.64,419.38c-5.79-9.94-4.73-14.47-20.06-18.58,16.44-4.41,20.06-21.77,20.06-21.77,0,0,.48,16.87,19.18,19.8-15.35,5.69-15.24,8.38-19.18,20.56Z"/>
    <path class="cls-8" d="M643.08,724.57c-6.47-15.51-5.28-22.58-22.42-29.01,18.37-6.88,22.42-33.99,22.42-33.99,0,0,.54,26.33,21.43,30.91-17.16,8.88-17.02,13.08-21.43,32.09Z"/>
  </g>
  <g id="Layer_9" data-name="Layer 9">
    <g id="Layer_6" data-name="Layer 6">
      <path class="cls-13" d="M662.87,428.5c-1.66-3.91-3.34-7.81-5.29-11.54-4.95-9.28-13.11-15.56-20.97-21.54-7.82-5.77-16.67-9.83-25.74-12.39-7.08-1.76-14.42-1.82-21.61-.94-12.46,1.7-25.1,4.52-36.38,10.84-4.76,2.77-8.97,6.54-13.06,10.39-5.54,5.03-10.44,10.93-14.08,17.81-4.49,9.07-3.58,8.69-6.03,14.07-1.62,3.31-3.13,6.69-4.64,10.06,0,0,0,0,0,0-8.57,7.72-16.47,14.37-31.19,21.53-2.46,1.46-18.87,7.94-28.38,13.57-9.8,5.57-18.97,12.39-27.64,19.91-12.22,10.02-23.19,22.35-30.5,37.27-2.28,4.69-4.35,9.51-6.18,14.44-1.19,3.11-2.37,6.26-2.81,9.63-1.55,8.28.41,17.42,5.71,23.59,10.03,10.05,23.42,14.09,36.16,17.88,12.28,4.08,24.74,7.38,37.47,9.14,10.03,1.72,20.19,1.84,30.31,1.95,21.81.75,44.08-1.76,64.46-10.88,5.59-2.63,11.3-4.97,16.7-8.05,9.43-5.63,18.31-12.57,25.85-21.05,11.29-12.53,17.44-29.38,19.68-46.75,2.7-16.93,3.27-31.54,5.16-41.46,2.85-11.8,2.28-9.98,6.8-19.25,3.51-6.23,3.54-5.9,4.71-7.54,1.48-1.88,3.06-3.67,4.79-5.26,1.66-1.34,3.39-2.59,5.22-3.63.33-.19.68-.36,1.02-.53,3.7-1.52,8.08-1.99,10.42-5.89,3.44-4.39,2.39-10.68.02-15.38ZM549.63,569.89c.05-.56.1-1.13.16-1.7.92.34,1.85.65,2.79.89.14.04.29.06.44.09-.09.02-.17.04-.26.06-1.04.23-2.08.44-3.13.66ZM495.37,592.4c-10.11.12-23.93-1.09-26.31-1.75-12.59-1.86-24.79-5.68-36.97-9.55-12.59-4.07-13.43-3.63-23.58-10.62-.21-.21-.41-.42-.6-.64-.04-.09-.08-.17-.12-.24-.19-.66-.36-1.34-.5-2.01,0-.39.02-.78.05-1.17.38-2.2,1.05-4.32,1.81-6.39.49-1.24,1-2.48,1.51-3.71,2.61-6.15,5.54-12.16,9.13-17.67,3.52-4.82,7.34-9.38,11.43-13.6,9.41-9,20.01-17.92,35.62-26.74-1.41.95-2.77,1.99-4.04,3.19-3.78,3.18-5.82,8.04-7.97,12.59,2.66-2.79,5.08-6.06,8.36-7.97,5.83-3.47,15.1-4.38,22.47-7.39,5.71-2.26,11.49-4.69,16.49-8.57,7.57-6.21,14.96-12.92,20.88-21.12,1.66-2.37,3.21-4.84,4.7-7.34,1.99-1.78,3.97-3.58,5.95-5.38,1.85-1.73,3.61-3.41,5.32-5.04.72-.43,1.44-.87,2.16-1.3,1.75-1.05,3.51-2.11,5.26-3.17-.2.95-.32,1.92-.33,2.93.12,3.05,1.07,5.5,2.54,7.31-3.5,5.58-6.34,11.62-8.03,18.34-1.31,5.03-1.79,10.02-1.66,14.96-4.8,12.92-8.9,26.23-9.18,40.33-.17,6.81.97,13.62,3.49,19.78-2.8,11.97-6.6,31.47,1.85,39.3-2.47.59-4.67,1-6.46,1.2-11.03,1.73-22.17,1.72-33.29,1.43Z"/>
      <g id="Layer_7" data-name="Layer 7">
        <path class="cls-8" d="M671,440.42c-.03-5.19-.01-10.51-1.55-15.51-2.9-8.39-8.03-15.73-13.59-22.56-7.63-9.76-18.52-16.67-30.34-20.19-5.41-1.79-11.1-2.36-16.73-2.99-7.85-.98-15.77-.63-23.57.66-4.36.51-8.6,1.65-12.58,3.49-3.06.64-6.03,1.72-8.74,3.25-2.88,1.27-5.56,2.96-7.91,5.09-.11.05-.22.1-.33.15,6.57-.28,10.14.62,16.52,2.32,2.59.72,5.2,1.29,7.83,1.81-2.58,1.89-4.94,4.08-6.99,6.49-4.03,4.69-7.79,10.01-9.01,16.18-.01,0-.02,0-.03,0h.03s0,.04-.01.06c.01-.02.02-.04.04-.05,0,0,0,0,.01,0,0,.01-.02.02-.02.03.02,0,.03-.02.05-.03,4.66.4,9.33.98,14.02.58,5.7-.13,11.46-.56,16.92-2.3,1.4-.43,2.82-.94,4.23-1.51-.58,1.11-1.14,2.24-1.66,3.37-4.44,10.8-7.03,22.62-5.83,34.32-.45.68-.89,1.35-1.37,2.02-.12.15-.25.31-.38.46-.26.08-.51.16-.78.24.18.02.37.02.55.04-1.52,1.82-3.42,3.8-4.6,5.32,1.4-.79,2.79-1.6,4.17-2.43,1.39-.85,2.71-1.81,3.98-2.86,2.44-.12,4.89-.48,7.31-.79.09,0,.19,0,.28.01.25.11.51.21.8.28,1.06.25,2.1.14,3.11-.13,2.12.04,4.23-.02,6.33-.31,5.13-.73,10.1-2.52,14.54-5.14.11,2.62.39,5.23.94,7.8,1.19,4.88,3.06,9.58,5.04,14.2.25,1.03.45,2.14.74,3.1-.05.29-.12.58-.17.87.09-.19.18-.38.26-.58.1.29.2.57.32.82-.05-.44-.06-.89-.08-1.34.93-2.04,1.94-4.04,3.12-5.95,9.14-14.74,15.81-20.08,31.16-19.95.91.27,1.82.61,2.49,1.27,0,.01.01.03.02.04,0,0,0-.02,0-.03,0,0,.01,0,.02.01,0,0,0,.01,0,.02.37-1.42.64-2.85.82-4.28.63-1.65.67-3.67.63-5.38ZM594.28,445.7c-.08,1.06-.15,2.16,0,3.22-.7,1.25-1.43,2.48-2.21,3.69.76-3.04,1.54-5.74,2.36-8.24-.06.44-.1.89-.14,1.33ZM596,445.47c.18-.58.36-1.13.56-1.67.04.14.08.29.14.42-.29.61-.59,1.21-.89,1.82.06-.19.13-.38.19-.57ZM596.12,453.31c.62-.62,1.22-1.27,1.81-1.94.08.37.21.71.36,1.04-.72.3-1.44.59-2.16.89Z"/>
        <g id="Layer_8" data-name="Layer 8">
          <path class="cls-13" d="M646.3,429.87c-9.61-1.75-20.37.36-27.51,7.31-.91.79-1.79,1.61-2.72,2.36,2.58-.89,4.4-1.84,6.73-2.71,6.2-2.29,10.82-2.14,17.86-2.14,8.76.11,15.95,1.73,23.86,7.62-4.03-6.46-10.72-11.04-18.21-12.45Z"/>
          <path class="cls-13" d="M636.52,399.95c-11.38-6.93-25.73-9.33-38.67-6.02-4.2,1.03-8.23,2.66-11.87,5.03-.6.36-1.21.71-1.8,1.08.4-.1.79-.19,1.19-.29,6.78-2.27,17.52-2.3,22.32-1.47,9.71,1.48,22.56,5.74,32.45,12.94,7.59,5.22,14.01,9.98,21.58,19.02-4.95-12.38-14.35-22.73-25.2-30.29Z"/>
        </g>
      </g>
    </g>
    <g id="Fox_head" data-name="Fox head">
      <path class="cls-13" d="M156.11,328.03c51.29-64.79,30.65-79.29,86.71-135.36,44.29-44.29,102.15-59.7,133.28-74.12-4.76,4.76-7.86,11.47-9.85,16.47,9.9-.63,15.4-6.5,29.63-10.29-6.12,9.29-8.01,14.19-8.01,14.19l28.02-8.95-9.38,13.77s31.82-.65,86.57,47.01c48.63,42.33,52.29,97.96,86.25,135.17-55.4,50.38-78.97,109.86-209.47,109.86-92.41-3.78-139.39-41.12-213.77-107.74Z"/>
      <path class="cls-13" d="M221.59,672.77s-56.17-305.59,153.24-305.59c193.69,0,167.11,308.19,167.11,308.19l-320.35-2.6Z"/>
      <path class="cls-8" d="M208.92,373.54s53.17-24.64,160.96-24.64,154.41,32.83,154.41,32.83c0,0-40.83,53.82-149.48,53.82-96.91,3.68-165.89-62.02-165.89-62.02Z"/>
      <g>
        <g class="cls-15">
          <path class="cls-13" d="M441.72,163.57c45.42-10.06,57.55-23.18,95.92-26.4,25.06-1.8,45.65-2.69,60.98,10.9-5.76,12.52-15.7,48.52-29.52,70.45-.83,1.32-1.55,2.71-2.22,4.12-15.39,32.23-35.9,52.17-41.52,64.87-40.85-23.1-93.78-89.97-83.63-123.93Z"/>
        </g>
        <g class="cls-14">
          <path class="cls-13" d="M303.09,163.57c-45.42-10.06-57.55-23.18-95.92-26.4-25.06-1.8-45.65-2.69-60.98,10.9,5.76,12.52,15.7,48.52,29.52,70.45.83,1.32,1.55,2.71,2.22,4.12,15.39,32.23,35.9,52.17,41.52,64.87,40.85-23.1,93.78-89.97,83.63-123.93Z"/>
        </g>
      </g>
    </g>
    <g id="Book">
      <g>
        <path class="cls-12" d="M378.41,693.22c-.64,0-1.28-.12-1.88-.37-.87-.35-88.37-35.55-172.25-41.99-1.44-.11-2.76-.84-3.62-1.99-.86-1.16-1.19-2.63-.88-4.04,8.61-40.11-11.72-121.57-31.37-200.35l-2.75-11.02c-.37-1.49-.04-3.07.91-4.29.95-1.21,2.4-1.92,3.94-1.92,72.47,0,190.46,42.93,207.72,49.36,14.32-6.41,105.07-45.3,198.08-45.3,1.64,0,3.17.8,4.11,2.15.93,1.35,1.15,3.07.58,4.6-20.95,56.07-15.6,131.85-11.7,187.18.39,5.49.76,10.76,1.09,15.75.18,2.72-1.85,5.08-4.57,5.31-83.21,7-184.57,46.17-185.58,46.57-.58.23-1.2.34-1.81.34Z"/>
        <path class="cls-12" d="M170.51,432.26c76.63,0,207.9,49.77,207.9,49.77,0,0,96.99-45.71,197.9-45.71-23.47,62.8-14.5,150.25-10.92,205.01-84.89,7.14-186.98,46.89-186.98,46.89,0,0-88.07-35.76-173.74-42.34,9.25-43.12-13.11-129.1-34.15-213.63M576.3,436.33h0M170.51,422.26c-3.08,0-5.98,1.42-7.88,3.84-1.9,2.42-2.57,5.59-1.82,8.57.91,3.67,1.83,7.35,2.75,11.03,19.51,78.22,39.69,159.11,31.33,198.08-.61,2.82.04,5.77,1.77,8.08,1.73,2.31,4.37,3.77,7.25,3.99,83.05,6.37,169.88,41.28,170.75,41.63,1.21.49,2.48.73,3.76.73s2.46-.23,3.63-.68c1.01-.39,101.76-39.31,184.19-46.25,5.43-.46,9.5-5.18,9.14-10.62-.33-5.01-.7-10.24-1.09-15.77-3.87-54.78-9.16-129.78,11.29-184.8.48-1.17.74-2.44.74-3.78,0-5.52-4.47-10-10-10h0c-53.38,0-105.46,12.67-139.75,23.3-29,8.99-50.18,17.91-58.53,21.6-10.02-3.67-38.15-13.74-72.02-23.68-57.18-16.78-102.77-25.29-135.5-25.29h0Z"/>
      </g>
      <g>
        <path class="cls-8" d="M378.96,736.22c-.64,0-1.28-.12-1.88-.37-.97-.39-98.18-39.5-191.38-46.65-1.44-.11-2.76-.84-3.62-1.99-.86-1.16-1.19-2.63-.88-4.04,9.58-44.65-12.99-135.14-34.83-222.66l-3.05-12.24c-.37-1.49-.04-3.07.91-4.29.95-1.21,2.4-1.92,3.94-1.92,35.76,0,85.79,9.36,148.71,27.83,40.59,11.91,73.68,23.97,81.9,27.02,15.15-6.8,116.25-50.33,219.88-50.33,1.64,0,3.17.8,4.11,2.15.93,1.35,1.15,3.07.58,4.6-23.3,62.36-17.36,146.55-13.02,208.03.43,6.09.84,11.94,1.21,17.48.18,2.72-1.85,5.08-4.57,5.31-92.42,7.78-205.05,51.29-206.18,51.73-.58.23-1.2.34-1.81.34Z"/>
        <path class="cls-12" d="M148.16,447.07c85.07,0,230.79,55.25,230.79,55.25,0,0,107.67-50.74,219.69-50.74-26.05,69.72-16.1,166.79-12.12,227.58-94.24,7.93-207.57,52.06-207.57,52.06,0,0-97.77-39.7-192.88-47,10.27-47.86-14.55-143.32-37.91-237.15M598.65,451.59h0M148.16,437.07c-3.08,0-5.98,1.42-7.88,3.84-1.9,2.42-2.57,5.59-1.82,8.57,1.02,4.08,2.03,8.16,3.05,12.24,21.69,86.96,44.13,176.88,34.79,220.4-.61,2.82.04,5.77,1.77,8.08,1.73,2.31,4.37,3.77,7.25,3.99,92.48,7.09,188.92,45.9,189.88,46.29,1.21.49,2.48.73,3.76.73s2.46-.23,3.63-.68c1.12-.44,113.11-43.69,204.78-51.41,5.43-.46,9.5-5.18,9.14-10.62-.36-5.56-.77-11.36-1.21-17.5-4.3-60.93-10.19-144.34,12.61-205.65.48-1.17.74-2.44.74-3.78,0-5.52-4.47-10-10-10h0c-59.12,0-116.82,14.04-154.81,25.82-32.64,10.12-56.32,20.14-65.26,24.11-10.72-3.94-42.24-15.24-80.3-26.41-63.37-18.6-113.88-28.03-150.11-28.03h0Z"/>
      </g>
      <path class="cls-6" d="M378.13,497.36l.83,233.87-.83-233.87Z"/>
      <path class="cls-9" d="M555.65,505.55c-.25,1.87-.47,4.97-.67,8.31-.5,8.6-7.12,15.58-15.68,16.52-12.72,1.4-29.85,3.44-36.01,4.86-11.91,2.74-43.04,13.6-64.74,21.37-11.11,3.98-22.93-3.84-23.61-15.63v-.19c-.12-1.82-.35-4.88-.62-8.15-.66-8.11,4.31-15.62,12.03-18.19,18.13-6.03,50.07-16.38,64.01-19.22,22.64-4.62,34.71-7.19,46.86-9.33,12.62-2.22,18.01,5.92,18.55,18.88.01.27-.09.52-.12.76"/>
    </g>
    <g id="Fox_feet" data-name="Fox feet">
      <path class="cls-13" d="M521.49,695.47c.7-4.12.73-8.43-1.34-12.18-6.74-10.96-21.8-8.76-31.53-2.51-.37.17-.73.34-1.09.52-5.28,2.03-9.77,5.46-13.98,9.15-2.65,2.3-5.57,4.36-7.77,7.12-.14.18-.27.36-.41.53-.69.9-1.41,1.79-2.07,2.71,0,0,0,0-.01.01,0,0,0,0,.01-.01-.73,1.02-1.39,2.08-1.85,3.26-1.32,2.92-2.46,5.9-2.81,9.1-.23,2.02-.71,4.05-.2,6.06.4,3.73,2.53,7.07,5.03,9.79,3.26,3.08,7.74,4.35,12.16,4.19,2.94-.24,5.89-.63,8.64-1.73,3.8-.81,7.28-2.53,10.74-4.24,7.81-4.01,14.78-10.19,20.13-17.12,1.96-2.65,3.4-5.61,4.6-8.67.81-1.93,1.59-3.87,1.75-5.98Z"/>
      <path class="cls-13" d="M244.6,677.66c-4.12.71-8.19,2.13-11.04,5.32-8.09,10.01-.99,23.48,8.15,30.56.28.29.56.58.85.86,3.68,4.3,8.41,7.39,13.29,10.12,3.05,1.73,5.97,3.8,9.3,4.95.21.07.43.14.64.21,1.08.35,2.16.73,3.24,1.05,0,0,.01,0,.02,0,0,0-.01,0-.02,0,1.2.35,2.42.62,3.69.66,3.19.27,6.38.35,9.52-.38,1.98-.46,4.05-.68,5.78-1.84,3.39-1.62,5.82-4.74,7.55-8,1.82-4.1,1.52-8.75-.11-12.86-1.21-2.69-2.56-5.34-4.51-7.56-2.03-3.31-4.82-6.02-7.58-8.71-6.39-6.03-14.53-10.53-22.85-13.26-3.15-.96-6.42-1.34-9.71-1.44-2.09-.12-4.18-.21-6.22.34Z"/>
      <path class="cls-13" d="M240.57,421.43c-.4-.85-.85-1.65-1.34-2.41-.44-.96-1.03-1.87-1.82-2.69-4.77-5.35-13.44-8.51-20.65-7.04-1.64.09-3.28.35-4.89.75-7.09,1.19-13.5,5.2-15.97,12.46-1.5,4.02-.46,8.68,1.74,12.24,2.01,3.05,5.21,5,8.57,6.29,4.42,1.6,9.29,1.78,13.92,1.22,1.98-.17,3.97-.59,5.88-1.23,2.31-.12,4.57-.5,6.67-1.15.48-.17.94-.35,1.39-.55,4.64-1.43,7.47-4.35,7.78-8.36.74-2.86.38-6.12-1.3-9.53Z"/>
    </g>
  </g>
  <g id="Layer_10" data-name="Layer 10">
    <path class="cls-7" d="M5.15,297.68c0-33.53,27.18-60.71,60.71-60.71s60.71,27.18,60.71,60.71c0,12.44-9.44,60.71-60.71,60.71-33.53,0-60.71-27.18-60.71-60.71Z"/>
    <g>
      <path class="cls-8" d="M126.41,350.04c-.35-.14-.67-.31-.98-.5-.74-6.4-.4-13.01-2.49-19.21-.76-2.08-1.74-4.13-2.91-6.08.89-5.56-.4-11.37-3.25-16.28-.4-.74-.83-1.47-1.28-2.18-.51,3.43-.61,6.93-.19,10.38.09.8.22,1.58.38,2.37-1.87-1.95-3.98-3.63-6.33-4.89.99,2.48,1.78,5.03,2.53,7.59-.49-.19-1.09-.08-1.42.39-.13.17-.21.37-.25.57-.18.07-.32.24-.32.45-.1.8.03,1.7.55,2.33.01.01.02.02.04.03.08.41.17.82.28,1.22-.01,0-.03.01-.04.02-2.54-4.8-4.94-9.66-7.12-14.65-.86,3.1-1.31,6.32-1.35,9.53-.27-.18-.52-.36-.79-.54-8.51-4.72-16.49,3.07-13.55,11.94.77,2.39,1.86,4.64,3.18,6.75-2.13-.51-4.25-1.07-6.36-1.72,2.01,2.97,4.23,5.31,6.63,7.12-2.31.1-4.67.34-7.14.78,5.43,3.15,10.24,4.29,15.42,3.49.12.1.23.2.35.3,1.51,1.18,2.95,2.49,4.63,3.42,2.69,1.43,5.69,1.93,8.67,1.2,1.79-.56,3.33-1.48,4.55-2.67,1.01-.38,1.92-.93,2.74-1.6.93.31,1.87.51,2.82.6.22.13.44.26.67.4-.05-.12-.1-.24-.15-.36.41.02.82.01,1.24-.02.14.13.26.26.4.38-.02-.14-.03-.28-.05-.42.3-.04.6-.08.9-.14ZM112.62,325.64c.06-.49.1-.98.11-1.47.13.46.26.91.39,1.37-.17.02-.34.07-.5.1Z"/>
      <line class="cls-7" x1="122.33" y1="316.45" x2="129.28" y2="353.05"/>
      <line class="cls-7" x1="129.28" y1="353.05" x2="92.72" y2="352.84"/>
    </g>
    <text class="cls-5" transform="translate(39.02 349.34) rotate(-10.6)"><tspan x="0" y="0">?</tspan></text>
    <text class="cls-1" transform="translate(603.01 291.88) rotate(19.11)"><tspan x="0" y="0">A</tspan></text>
    <text class="cls-2" transform="translate(758.03 510.54) rotate(-15.11)"><tspan x="0" y="0">B</tspan></text>
    <text class="cls-3" transform="translate(642.81 602.84) rotate(21.68)"><tspan x="0" y="0">C</tspan></text>
    <text class="cls-4" transform="translate(769.12 708.41) rotate(-15.16)"><tspan x="0" y="0">D</tspan></text>
  </g>
</svg>