<?xml version="1.0" encoding="UTF-8"?>
<svg xmlns="http://www.w3.org/2000/svg" xmlns:xlink="http://www.w3.org/1999/xlink" viewBox="0 0 1920 1080">
  <defs>
    <style>
      .cls-1, .cls-2 {
        fill: #fff;
      }

      .cls-1, .cls-2, .cls-3, .cls-4, .cls-5, .cls-6, .cls-7, .cls-8, .cls-9, .cls-10, .cls-11, .cls-12 {
        stroke: #27354c;
      }

      .cls-1, .cls-2, .cls-13, .cls-8, .cls-9, .cls-10, .cls-14, .cls-12 {
        stroke-width: 3px;
      }

      .cls-1, .cls-3, .cls-13, .cls-4, .cls-5, .cls-7, .cls-8, .cls-15, .cls-16, .cls-17, .cls-14, .cls-11, .cls-12 {
        stroke-miterlimit: 10;
      }

      .cls-2, .cls-3, .cls-13, .cls-5, .cls-6, .cls-16, .cls-17, .cls-14, .cls-12 {
        stroke-linecap: round;
      }

      .cls-2, .cls-6, .cls-9, .cls-10 {
        stroke-linejoin: round;
      }

      .cls-3, .cls-13, .cls-4, .cls-5, .cls-8, .cls-18, .cls-9, .cls-16, .cls-17, .cls-14, .cls-11, .cls-12 {
        fill: none;
      }

      .cls-3, .cls-6, .cls-15, .cls-17, .cls-11 {
        stroke-width: 8px;
      }

      .cls-13 {
        stroke: #f4f7f3;
      }

      .cls-4, .cls-7 {
        stroke-width: 2px;
      }

      .cls-5 {
        stroke-width: 10px;
      }

      .cls-19 {
        fill: #f3d4a8;
      }

      .cls-19, .cls-18, .cls-20, .cls-21, .cls-22, .cls-23, .cls-24 {
        stroke-width: 0px;
      }

      .cls-25, .cls-26, .cls-6, .cls-27, .cls-20, .cls-28, .cls-10 {
        fill: #f4f7f3;
      }

      .cls-25, .cls-29 {
        letter-spacing: .3em;
      }

      .cls-26 {
        letter-spacing: .3em;
      }

      .cls-29, .cls-15, .cls-30, .cls-24 {
        fill: #ffbd59;
      }

      .cls-7 {
        fill: #f2f7ef;
      }

      .cls-27 {
        letter-spacing: .28em;
      }

      .cls-15, .cls-16, .cls-17, .cls-14 {
        stroke: #ffbd59;
      }

      .cls-31 {
        font-size: 42.16px;
      }

      .cls-31, .cls-32, .cls-33 {
        font-family: Caraque-XBoldSolid, Caraque;
        font-weight: 700;
      }

      .cls-31, .cls-22 {
        fill: #27354c;
      }

      .cls-34 {
        letter-spacing: .14em;
      }

      .cls-32 {
        font-size: 26.5px;
      }

      .cls-35 {
        letter-spacing: .22em;
      }

      .cls-36 {
        letter-spacing: .22em;
      }

      .cls-30 {
        letter-spacing: .3em;
      }

      .cls-16 {
        stroke-width: 5px;
      }

      .cls-21 {
        fill: #f5d9b0;
      }

      .cls-37 {
        clip-path: url(#clippath);
      }

      .cls-33 {
        font-size: 80px;
      }

      .cls-33, .cls-23 {
        fill: #c9d3df;
      }

      .cls-28 {
        letter-spacing: .29em;
      }
    </style>
    <clipPath id="clippath">
      <rect class="cls-18" x="177.49" y="389.48" width="191.54" height="104.29"/>
    </clipPath>
  </defs>
  <g id="bg">
    <path class="cls-23" d="M240.67,1017.06l1433.43,5.19s188.28-266.21,153.48-408.56c-47.02-192.37-239.9-78.59-296.85-227.14-56.95-148.55-148.29-327.04-430.73-296.06s-261.49,215.79-372.14,215.79-192.67-152.56-401.2-101.41c-161.56,39.63-221.98,168.99-254.33,426.57-16.22,129.11,168.34,385.62,168.34,385.62Z"/>
    <g id="Layer_79" data-name="Layer 79">
      <path class="cls-24" d="M425.21,217.97c23.97-4.88,22.83-8.32,28.96-39.8,5.36,32.88,1.48,33.79,26.07,39.32-24.75,6.13-20.03,11.9-26.49,37.95-7.01-26.72-3.42-31.6-28.53-37.47Z"/>
      <path class="cls-24" d="M91.18,792.2c28.75-5.91,27.39-10.04,34.82-47.78,6.34,39.4,1.69,40.5,31.15,47.07-29.68,7.41-24.04,14.32-31.85,45.56-8.33-32.01-4.01-37.88-34.11-44.85Z"/>
      <path class="cls-24" d="M776.59,320.13c13.47-2.77,12.84-4.7,16.32-22.4,2.97,18.47.79,18.98,14.6,22.06-13.91,3.47-11.27,6.71-14.93,21.35-3.91-15-1.88-17.75-15.99-21.02Z"/>
      <path class="cls-24" d="M853.54,993.16c13.47-2.77,12.84-4.7,16.32-22.4,2.97,18.47.79,18.98,14.6,22.06-13.91,3.47-11.27,6.71-14.93,21.35-3.91-15-1.88-17.75-15.99-21.02Z"/>
      <path class="cls-24" d="M1431.79,407.27c17.48-3.59,16.65-6.1,21.17-29.05,3.85,23.96,1.03,24.63,18.94,28.62-18.05,4.5-14.62,8.7-19.37,27.7-5.07-19.46-2.44-23.03-20.74-27.27Z"/>
      <path class="cls-24" d="M1717.09,889.55c25.61-5.26,24.4-8.94,31.02-42.57,5.65,35.1,1.51,36.08,27.75,41.93-26.44,6.6-21.42,12.75-28.38,40.59-7.43-28.52-3.58-33.74-30.39-39.95Z"/>
      <path class="cls-24" d="M1026.34,110.62c25.61-5.26,24.4-8.94,31.02-42.57,5.65,35.1,1.51,36.08,27.75,41.93-26.44,6.6-21.42,12.75-28.38,40.59-7.43-28.52-3.58-33.74-30.39-39.95Z"/>
      <path class="cls-20" d="M344.4,644.2c10.93-2.59,10.47-4.13,13.74-18.48,1.91,14.81.14,15.28,11.18,17.4-11.31,3.17-9.26,5.71-12.6,17.61-2.75-11.99-1.05-14.26-12.33-16.52Z"/>
      <path class="cls-20" d="M412.06,451.79c31.13-6.17,29.62-10.66,37.36-51.53,7.2,42.78,2.17,43.94,34.17,51.3-32.13,7.79-25.95,15.33-34.16,49.14-9.3-34.78-4.67-41.11-37.36-48.91Z"/>
      <path class="cls-20" d="M187.8,270.53c31.13-6.17,29.62-10.66,37.36-51.53,7.2,42.78,2.17,43.94,34.17,51.3-32.13,7.79-25.95,15.33-34.16,49.14-9.3-34.78-4.67-41.11-37.36-48.91Z"/>
      <path class="cls-20" d="M1426.24,270.53c31.13-6.17,29.62-10.66,37.36-51.53,7.2,42.78,2.17,43.94,34.17,51.3-32.13,7.79-25.95,15.33-34.16,49.14-9.3-34.78-4.67-41.11-37.36-48.91Z"/>
      <path class="cls-20" d="M1121.47,664.32c9.19-1.82,8.74-3.15,11.03-15.21,2.13,12.63.64,12.97,10.09,15.14-9.49,2.3-7.66,4.52-10.09,14.51-2.75-10.27-1.38-12.14-11.03-14.44Z"/>
      <path class="cls-20" d="M1451.44,992.86c9.19-1.82,8.74-3.15,11.03-15.21,2.13,12.63.64,12.97,10.09,15.14-9.49,2.3-7.66,4.52-10.09,14.51-2.75-10.27-1.38-12.14-11.03-14.44Z"/>
    </g>
    <g id="Layer_80" data-name="Layer 80">
      <text class="cls-33" transform="translate(1335.13 100.78) rotate(29.24)"><tspan x="0" y="0">M</tspan></text>
      <text class="cls-33" transform="translate(1393.13 135.1) rotate(39.27)"><tspan x="0" y="0">Y</tspan></text>
      <text class="cls-33" transform="translate(1436.13 172.72) rotate(46.87)"><tspan x="0" y="0"> </tspan></text>
      <text class="cls-33" transform="translate(1454.62 192.08) rotate(55.63)"><tspan x="0" y="0">D</tspan></text>
      <text class="cls-33" transform="translate(1487.58 243.32) rotate(62.22)"><tspan x="0" y="0">O</tspan></text>
      <text class="cls-33" transform="translate(1516.12 299.08) rotate(66.75)"><tspan x="0" y="0">R</tspan></text>
      <text class="cls-33" transform="translate(1538.61 354.44) rotate(65.62)"><tspan x="0" y="0">M</tspan></text>
    </g>
  </g>
  <g id="Profile_copy" data-name="Profile copy">
    <g id="Head_copy" data-name="Head copy">
      <g id="Layer_7_copy" data-name="Layer 7 copy">
        <path class="cls-22" d="M596.07,516.2s1.24,34.64,1.45,46.11c.06,3.18,1.66,9.47,2.76,13.43.56,2.02-.72,3.7-2.44,4.91-3.04,2.15-15.31,9.04-18.26,10.33-3.52,1.55-18.11,11.49-37.34-.73-5.46-3.47,53.81-74.04,53.81-74.04Z"/>
      </g>
      <g id="Layer_5_copy" data-name="Layer 5 copy">
        <path class="cls-21" d="M473.91,499.32c9.2-43.77,54.96-70.49,87.12-63.73,32.15,6.76,50.76,47.72,41.56,91.49-4.33,20.6-13.56,42.66-25.99,54.76-13.98,13.61-31.88,15.83-48.9,12.25-18.09-3.8-18.52-31.11-25.5-50.97-5.42-15.45-32.32-24.66-28.29-43.8Z"/>
        <polyline class="cls-21" points="498.23 528.03 452.72 635.64 507.6 655.14 554.99 638.02 546.38 592.1"/>
      </g>
      <g id="Layer_8_copy" data-name="Layer 8 copy">
        <path class="cls-22" d="M547.18,595.12l2.86,16.53s-15.48-4.26-22.58-9.31-15.21-15.95-15.21-15.95c0,0,13.88,7.21,19.46,8.43,6.27,1.37,15.47.3,15.47.3Z"/>
      </g>
      <g id="Layer_6_copy" data-name="Layer 6 copy">
        <path class="cls-22" d="M553.08,464.08s11.76,20.3,18.27,27.32c6.51,7.02,41.33,22.44,41.33,22.44,0,0,12.55-39.45-1.38-64.18-13.93-24.74-24.48-35.38-42.79-41.06-18.31-5.69-40.5-10.39-62.28-2.93-21.78,7.46-43.35,26.84-53.86,53.29-10.52,26.46-31.03,56.25-25.28,80.19,3.01,12.52,18.46,31.12,29.81,37.98,9.62,5.82,27.53,2.31,36.9.67,2.22-.39,3.68-2.55,3.18-4.75-3.39-15.08,1.26-42.98,1.26-42.98,0,0-7.51.42-10.29-3.45,0,0-13.92-12.51-7.53-26.4,6.44-13.95,10.74-14.7,15.67-15.82,4.92-1.12,9.08,2.03,11.62,5.81s6.05,13.85,7.72,14.9,1.9,2.45,8.79-1.38,11.13-9.05,14.87-13.27,14.01-26.4,14.01-26.4Z"/>
      </g>
    </g>
    <g id="Layer_10_copy" data-name="Layer 10 copy">
      <path class="cls-20" d="M464.25,608.62s28.19,27.31,57.73,27.31c24.91,0,29.33-17.56,29.33-17.56,0,0,50.75,17.74,69.83,39.72,23.95,27.6,17.71,70.75,28.51,92.11s14.25,69.49,21.26,131.88l-4.37,122.31-192.53,1.95-1.68-212.4-22.92-146.46,14.83-38.86Z"/>
    </g>
    <g id="Layer_12_copy" data-name="Layer 12 copy">
      <path class="cls-24" d="M551.31,618.37s33.5-1.12,61.56,13.46c18.23,9.47,53.97,79.12,73.04,112.59,48,84.27,80.61,134.67,51.03,166.49-10.7,11.52-32.6,25.09-58.36,4.14l10.88,88.28-65.04,3.01s-12.76-197.71-19.47-243.43c-13.53-92.24-53.64-144.54-53.64-144.54Z"/>
    </g>
    <g id="Layer_22_copy" data-name="Layer 22 copy">
      <path class="cls-22" d="M713,842.96c-7.24-3.06-19.28-7.48-27.1.34,5.11-4.03,16.11-.59,26.21,3.05,7.4,2.67,11.12,5.99,15.75,8.71-.55-1.04-2.35-6.81-14.86-12.09Z"/>
      <path class="cls-22" d="M672.83,889.53l5.91,26.85s13.07,8.16,22.27,9.67c15.6,2.56,25.6-6.5,25.6-6.5,0,0-19.72,4.97-34.71-5.22-15.83-10.75-19.07-24.81-19.07-24.81Z"/>
    </g>
    <g id="Book_copy" data-name="Book copy">
      <g id="Layer_20_copy" data-name="Layer 20 copy">
        <path class="cls-22" d="M570.07,754.42l6.86-10s25.38,1.56,35.7,5.18c25.51,8.95,33.75,21.54,33.75,21.54,0,0,4.95-8.44,22.57-13.98,12.32-3.87,20.85-2.75,20.85-2.75l7.3,9.4s-17.84,7.81-24.33,10.56-26.4,7.03-26.4,7.03c0,0-27.43-10.59-35.76-13.06-8.34-2.46-40.55-13.92-40.55-13.92Z"/>
      </g>
      <path class="cls-2" d="M570.07,754.42s20.02-.56,41.94,7.3c24.94,8.94,34.37,19.68,34.37,19.68l-15.57,132.94s-17.69-8.67-37.56-12.33c-18.82-3.47-36.16-3.54-36.16-3.54l12.98-144.05Z"/>
      <path class="cls-2" d="M646.71,781.84s10.14-7.53,22.37-12.33,27.29-5.71,27.29-5.71l-19.07,122.34s-13.37,4.59-21.83,8.96c-9.4,4.85-24.64,18.97-24.64,18.97l15.89-132.24Z"/>
    </g>
    <g id="Layer_14_copy" data-name="Layer 14 copy">
      <path class="cls-19" d="M537.95,813.24s6.04-14.36,15.54-15.22c12.77-1.15,11.65,7.02,11.65,7.02,0,0,9.55-3.52,20.99-.41,16.6,4.53,14.55,18.53,14.28,26.88-.3,9.25-6.75,14.6-29.26,22.11-22.51,7.5-19.02,6.49-19.02,6.49l-20.41,14.27-19.03-42.72,25.26-18.42Z"/>
    </g>
    <g id="Layer_21_copy" data-name="Layer 21 copy">
      <path class="cls-19" d="M660.76,869.84c.88-14.15,12.89-24.59,22.39-23.4,9.5,1.18,10.31,16.73,9.53,25.25-.79,8.52-6.02,17.84-15.8,17.84-13.82,0-16.59-11.84-16.11-19.69Z"/>
    </g>
    <g id="Layer_13_copy" data-name="Layer 13 copy">
      <path class="cls-24" d="M464.27,608.57s33.91,132.08,40.12,181.02c6.22,48.94,8.95,216.75,8.95,216.75h-147.6s6.18-96.03,6.18-96.03c0,0-37.91,14.27-39.74-4.08-3.44-34.52-2.72-24.79,17.65-139.32,6.87-38.64,14.79-99.69,42.23-127.14,15.56-15.56,72.2-31.2,72.2-31.2Z"/>
      <path class="cls-24" d="M365.72,867.94s-42.69,20.2-33.03,57.72c9.78,38,65.03,24.82,65.03,24.82,0,0,99.29-48.26,115.62-60.94,11.35-8.81,38.79-29.42,38.79-29.42,0,0-6.26-15.24-8.69-22.3-2.13-6.16-4.6-25.47-4.6-25.47l-173.12,55.6Z"/>
    </g>
    <g id="Layer_15_copy" data-name="Layer 15 copy">
      <path class="cls-22" d="M437.48,846.08c18.12-6.48,36.29-12.86,54.52-19.04-21.27-1.41-51.24,8.6-52.92,9.1-.88-12.45-1.79-30.93-3.8-43.23-5.21,13.54-5.6,31.48-6.25,46.01-30.1,14.55-40.26,22.65-41.46,24.02.77-.37,21.15-7.09,36.22-12.16,3.85-1.58,9.39-3.25,13.69-4.7Z"/>
      <g id="Layer_17_copy" data-name="Layer 17 copy">
        <path class="cls-22" d="M331.9,867.95s18.98,7.07,38.37,34.8c16.33,23.35,22.57,44.82,22.57,44.82,0,0-30.95,14.51-48.07.61-8.44-6.85-12.95-21.55-14.15-37.46-2.45-32.63,1.28-42.77,1.28-42.77Z"/>
        <path class="cls-22" d="M396.72,946.87c17.17,0,52.48-16.94,65.23-22.98,10.34-5.95,40.78-22.15,48.47-31.63-13.49,8.46-36.58,20.03-46.21,24.92s-60.52,26.49-67.49,29.69Z"/>
        <path class="cls-22" d="M351.01,868.43c-1.92-1.9-5.18-3.51-7.5-5.07-1.45-.85-2.9-1.71-4.44-2.39-.63-.24-1.28-.66-1.97-.49-2.22.2-2.43,3.54-.28,4.08,1.44.46,6.24,3.36,8.99,5.21,1.25.65,2.4,2.13,3.94,1.73,1.3-.33,1.93-1.93,1.25-3.07Z"/>
        <path class="cls-22" d="M369.91,887.94c-2.82-3.59-5.86-7.02-9.1-10.24-.83-.71-1.55-1.84-2.76-1.82-1.8-.06-2.8,2.34-1.48,3.58,3.76,3.52,7.17,7.42,10.37,11.45,1.97,1.91,4.87-.98,2.96-2.96Z"/>
        <path class="cls-22" d="M387.42,913.2c-2.18-3.88-4.54-7.66-7.11-11.29-1.16-1.28-2.11-3.73-4.01-3.84-1.8-.06-2.8,2.34-1.48,3.58,2.61,2.98,6.24,8.8,8.99,13.66,1.42,2.34,4.95.29,3.61-2.11Z"/>
        <path class="cls-22" d="M399.65,939.57c-1.54-3.49-3.11-6.96-4.8-10.38-.47-.92-.78-2.11-1.92-2.37-1.73-.54-3.33,1.54-2.37,3.08,1.84,3.81,3.65,7.63,5.34,11.51,1.14,2.72,5.16.76,3.74-1.83Z"/>
      </g>
    </g>
  </g>
  <g id="Star">
    <path class="cls-1" d="M697.49,645.88c-6-6.9-10.74-15.1-13.75-24.34-12.04-36.97,8.16-76.69,45.13-88.73,36.97-12.04,76.69,8.16,88.73,45.13,12.04,36.97-8.16,76.69-45.13,88.73-13.86,4.52-41.15.76-41.15.76l-37.78,21.06,3.94-42.6Z"/>
    <g id="Layer_24" data-name="Layer 24">
      <path class="cls-24" d="M755.67,561.4l6.24,18.8c.72,2.16,2.73,3.62,4.99,3.62h19.86c5.14,0,7.23,6.65,3.04,9.63l-15.81,11.25c-1.9,1.35-2.69,3.79-1.96,6.01l6.1,18.38c1.61,4.86-3.88,8.97-8.03,6.01l-16.39-11.66c-1.82-1.29-4.25-1.29-6.07,0l-16.39,11.66c-4.15,2.96-9.64-1.15-8.03-6.01l6.1-18.38c.74-2.22-.06-4.66-1.96-6.01l-15.81-11.25c-4.19-2.98-2.1-9.63,3.04-9.63h19.86c2.26,0,4.27-1.46,4.99-3.62l6.24-18.8c1.6-4.83,8.38-4.83,9.99,0Z"/>
    </g>
  </g>
  <g id="Clock">
    <circle class="cls-20" cx="1241.54" cy="250.01" r="127.5"/>
    <g id="Layer_26_copy" data-name="Layer 26 copy">
      <g>
        <line class="cls-14" x1="1242.13" y1="348.72" x2="1242.13" y2="362.56"/>
        <line class="cls-14" x1="1192.77" y1="335.5" x2="1185.86" y2="347.48"/>
        <line class="cls-14" x1="1156.64" y1="299.37" x2="1144.66" y2="306.28"/>
        <line class="cls-14" x1="1143.42" y1="250.01" x2="1129.58" y2="250.01"/>
        <line class="cls-14" x1="1156.64" y1="200.65" x2="1144.66" y2="193.74"/>
        <line class="cls-14" x1="1192.77" y1="164.52" x2="1185.86" y2="152.54"/>
        <line class="cls-14" x1="1242.13" y1="151.3" x2="1242.13" y2="137.46"/>
        <line class="cls-14" x1="1291.49" y1="164.52" x2="1298.4" y2="152.54"/>
        <line class="cls-14" x1="1327.62" y1="200.65" x2="1339.6" y2="193.74"/>
        <line class="cls-14" x1="1340.84" y1="250.01" x2="1354.68" y2="250.01"/>
        <line class="cls-14" x1="1327.62" y1="299.37" x2="1339.6" y2="306.28"/>
        <line class="cls-14" x1="1291.49" y1="335.5" x2="1298.4" y2="347.48"/>
      </g>
    </g>
    <g id="Layer_26" data-name="Layer 26">
      <g>
        <line class="cls-17" x1="1242.13" y1="338.31" x2="1242.13" y2="362.56"/>
        <line class="cls-17" x1="1153.83" y1="250.01" x2="1129.58" y2="250.01"/>
        <line class="cls-17" x1="1242.13" y1="161.7" x2="1242.13" y2="137.46"/>
        <line class="cls-17" x1="1330.43" y1="250.01" x2="1354.68" y2="250.01"/>
      </g>
    </g>
    <circle class="cls-11" cx="1242.13" cy="250.01" r="112.55"/>
    <circle class="cls-15" cx="1242.13" cy="250.01" r="56.27"/>
    <g id="Layer_27" data-name="Layer 27">
      <line class="cls-5" x1="1229.12" y1="159.74" x2="1242.13" y2="250.01"/>
      <line class="cls-5" x1="1185.86" y1="288.43" x2="1242.13" y2="250.01"/>
    </g>
  </g>
  <g id="Books">
    <g id="Book1">
      <path class="cls-6" d="M960,979.38h0c0-14.19,13.73-25.69,30.67-25.69h221.58s-9.2,6.31-9.2,24.79c-.15,16.02,9.2,26.58,9.2,26.58h-221.58c-16.94,0-30.67-11.5-30.67-25.69Z"/>
      <g id="Layer_29" data-name="Layer 29">
        <line class="cls-16" x1="997.8" y1="967.84" x2="1202.16" y2="967.79"/>
        <line class="cls-16" x1="1202.55" y1="978.97" x2="997.71" y2="979.79"/>
        <line class="cls-16" x1="1202.55" y1="991.13" x2="997.71" y2="991.96"/>
      </g>
      <path class="cls-3" d="M1224.97,1005.06h-234.3c-16.94,0-30.67-11.5-30.67-25.69h0c0-14.19,13.73-25.69,30.67-25.69h234.3"/>
      <path class="cls-3" d="M1212.25,953.69s-9.2,5.89-9.2,23.41c0,20.81,9.2,27.96,9.2,27.96"/>
    </g>
    <g id="Book2">
      <g id="Layer_33" data-name="Layer 33">
        <path class="cls-20" d="M1031.15,894.18h243.34v38.58c0,5.57-4.52,10.09-10.09,10.09h-223.16c-5.57,0-10.09-4.52-10.09-10.09v-38.58h0Z"/>
      </g>
      <g id="Layer_32" data-name="Layer 32">
        <line class="cls-12" x1="1031.16" y1="914.02" x2="1252.01" y2="914.02"/>
        <line class="cls-12" x1="1031.16" y1="904.46" x2="1252.01" y2="904.46"/>
        <line class="cls-12" x1="1031.16" y1="923.58" x2="1252.01" y2="923.58"/>
        <line class="cls-12" x1="1031.16" y1="932.37" x2="1252.01" y2="932.37"/>
      </g>
      <line class="cls-17" x1="1031.15" y1="941.5" x2="1031.15" y2="900.26"/>
      <path class="cls-17" d="M1012.37,894.18h250.36c8.07,0,14.61,6.54,14.61,14.61v19.45c0,8.07-6.54,14.61-14.61,14.61h-250.36"/>
    </g>
    <g id="Book3">
      <rect class="cls-22" x="990.42" y="840.29" width="267" height="48.67" rx="10.6" ry="10.6"/>
      <rect class="cls-20" x="999.94" y="848.14" width="68.61" height="32.97" rx="6.25" ry="6.25"/>
      <rect class="cls-20" x="1073.91" y="848.14" width="4.47" height="32.97" rx="1.5" ry="1.5"/>
      <rect class="cls-20" x="1082.48" y="848.14" width="5.22" height="32.97" rx="1.75" ry="1.75"/>
      <rect class="cls-24" x="1226.36" y="848.14" width="12.54" height="32.97" rx="1.62" ry="1.62"/>
      <g id="Layer_36" data-name="Layer 36">
        <line class="cls-16" x1="1104.11" y1="874.77" x2="1135.21" y2="854.49"/>
        <line class="cls-16" x1="1135.21" y1="874.77" x2="1104.11" y2="854.49"/>
        <line class="cls-16" x1="1104.11" y1="874.77" x2="1135.21" y2="854.49"/>
        <line class="cls-16" x1="1135.21" y1="874.77" x2="1104.11" y2="854.49"/>
      </g>
    </g>
    <g id="Book4">
      <rect class="cls-7" x="1273.96" y="733.04" width="56.99" height="282.67" rx="5.03" ry="5.03" transform="translate(-251.14 656.96) rotate(-25.91)"/>
      <g id="Layer_35" data-name="Layer 35">
        <rect class="cls-24" x="1227.64" y="770.22" width="56.99" height="17.57" transform="translate(-214.12 627.13) rotate(-25.91)"/>
        <rect class="cls-24" x="1234.52" y="789.8" width="56.99" height="6.76" transform="translate(-219.62 631.56) rotate(-25.91)"/>
        <rect class="cls-24" x="1323.86" y="973.72" width="56.99" height="6.76" transform="translate(-291 689.07) rotate(-25.91)"/>
        <rect class="cls-22" x="1293.14" y="796.67" width="28.18" height="175.07" rx="10.41" ry="10.41" transform="translate(-254.95 660.04) rotate(-25.91)"/>
      </g>
      <rect class="cls-4" x="1273.96" y="733.04" width="56.99" height="282.67" rx="5.03" ry="5.03" transform="translate(-251.14 656.96) rotate(-25.91)"/>
      <g id="Layer_37" data-name="Layer 37">
        <line class="cls-16" x1="1278.74" y1="841.2" x2="1283.92" y2="821.64"/>
        <line class="cls-16" x1="1291.47" y1="835.62" x2="1271.73" y2="828.23"/>
        <line class="cls-16" x1="1291.51" y1="865.35" x2="1296.69" y2="845.79"/>
        <line class="cls-16" x1="1304.24" y1="859.77" x2="1284.5" y2="852.38"/>
      </g>
    </g>
  </g>
  <g id="Friends">
    <g id="BG">
      <rect class="cls-20" x="1347.36" y="499.25" width="317.54" height="196.02"/>
    </g>
    <g id="Ppl">
      <g id="Ppl3">
        <polygon class="cls-21" points="1501.05 588.5 1521.31 585.73 1526.82 618.9 1495.99 620.38 1501.05 588.5"/>
        <path class="cls-22" d="M1523.92,601.46s-2.98,2.06-11.52,2.42c-5.62.24-13.18-3.89-13.18-3.89l1.57-9.86,21.62,2.23,1.51,9.1Z"/>
        <path class="cls-20" d="M1497.36,611s5.94,4.23,14.08,4.23,13.88-5.33,13.88-5.33c0,0,13.61,65.69,14.79,86.56l-63.5.33,20.74-85.79Z"/>
        <path class="cls-22" d="M1525.51,612.07s-5.4,5.13-13.94,5.4-14.51-3.9-14.51-3.9l.29-2.57s5.84,4.15,14.05,3.73c9.63-.5,13.92-4.83,13.92-4.83l.19,2.17Z"/>
        <ellipse class="cls-21" cx="1484.28" cy="574.24" rx="4.25" ry="5.88" transform="translate(-102.36 450.11) rotate(-16.68)"/>
        <ellipse class="cls-21" cx="1538.79" cy="570.13" rx="5.88" ry="4.25" transform="translate(734.43 2000.49) rotate(-80.98)"/>
        <path class="cls-21" d="M1510.73,533.14c6.81-.29,18.36,3.76,24.41,18.61,5.52,13.54,1.73,34.26-2.33,38.98-7.9,9.17-11.21,11.4-18.65,11.4s-17.63-3.83-24.4-13.14c-4.48-6.15-6.66-24.45-3-35.98,4.04-12.75,16.84-19.57,23.98-19.87Z"/>
        <g id="Layer_53" data-name="Layer 53">
          <path class="cls-22" d="M1537.14,556.43s.51,5.92.62,7.56c.17,2.58-.49,7.3-.49,7.3l-6.48-12.98,6.35-1.88Z"/>
          <path class="cls-22" d="M1485.1,561.98s-.38,5.16-.19,6.79c.29,2.57,1.59,7.37,1.59,7.37l3.04-13.68-4.44-.47Z"/>
        </g>
        <path class="cls-24" d="M1541.18,699.33s90.61-.56,88.7-12.44-6.92-25.17-14.07-35.13c-7.16-9.96-36.2-33.01-58.67-39.41-17.63-5.03-32.07-2.81-32.07-2.81l16.12,89.79Z"/>
        <path class="cls-24" d="M1486.37,696.74s-91.85,8.72-90.08-3.16c1.77-11.87,11.92-31.67,18.54-41.63,6.62-9.96,33.49-33.01,54.28-39.41,16.31-5.03,28.25-1.53,28.25-1.53l-10.99,85.74Z"/>
        <g id="Layer_52" data-name="Layer 52">
          <path class="cls-22" d="M1507.47,528.03c26.07-2.04,27.03,16.97,27.03,16.97l-47.5,5.63s1.25-21.09,20.47-22.6Z"/>
          <path class="cls-22" d="M1486.97,547.5l45.81-4.34c3.61-.31,6.29,3.08,6.91,7.27.49,3.29,1.44,8.03-3.37,8.56l-51.68,6.13c-3.55.39-3.22-5.13-2.35-8.97.71-3.12,2.32-8.45,4.67-8.65Z"/>
          <rect class="cls-20" x="1490.49" y="551.04" width="2.75" height="10" rx="1.37" ry="1.37" transform="translate(83.08 -185.69) rotate(7.33)"/>
          <rect class="cls-20" x="1529.36" y="546.87" width="2.75" height="10" rx="1.37" ry="1.37" transform="translate(-75.79 293.41) rotate(-10.69)"/>
          <rect class="cls-20" x="1519.61" y="547.87" width="2.75" height="10" rx="1.37" ry="1.37" transform="translate(-76.14 291.62) rotate(-10.69)"/>
          <rect class="cls-20" x="1508.04" y="549.15" width="2.75" height="10" rx="1.37" ry="1.37" transform="translate(-26.02 76.82) rotate(-2.89)"/>
          <rect class="cls-20" x="1499.4" y="550.4" width="2.75" height="10" rx="1.37" ry="1.37"/>
          <circle class="cls-24" cx="1509.41" cy="525.77" r="3.63"/>
        </g>
      </g>
      <g id="Ppl2">
        <path class="cls-22" d="M1415.62,662.36s-23.13-3.66-28.85-15.63c-5.72-11.97.06-15.29,5.39-25.5,7.48-14.35,7.61-21.52,7.61-21.52l53.39-13.98s5.77,15.59,12.32,25.56c4.72,7.19,14.83,6.97,14.22,20.83-.27,6.05-2.63,13.22-12.88,21.85-12.72,10.7-51.2,8.38-51.2,8.38Z"/>
        <g id="Layer_49" data-name="Layer 49">
          <polygon class="cls-21" points="1424.33 639.65 1443.72 637.68 1452 667.03 1422.06 671.09 1424.33 639.65"/>
        </g>
        <g id="Layer_50" data-name="Layer 50">
          <path class="cls-22" d="M1462,649.26s5.15-.88,17.12,5.56c11.96,6.44,16.35,20.58,18.24,28.22,1.88,7.64,2.87,8.35,2.87,8.35l-26.83.83-11.39-42.95Z"/>
          <path class="cls-24" d="M1422.06,653.07s6.22,4.32,13.28,3.91,13.45-6.72,13.45-6.72c0,0,18.98,1.06,30.94,7.5s15.65,22.77,17.54,30.41c1.88,7.64.43,11.6.43,11.6l-115.68-.67s.88-19.97,7.97-32.02c7.09-12.05,32.08-14,32.08-14Z"/>
          <path class="cls-20" d="M1422.06,653.07s6.22,4.32,13.28,3.91,13.45-6.72,13.45-6.72c0,0,10.88-.36,22.75,4.12,6.47,2.44-4.61,8.79-23.33,6.47-7.81-.97-12.86-3.88-12.86-3.88,0,0-5.87,4.37-9.24,5.6-5.29,1.92-38.86,5.01-27.48-3.11,12.6-8.99,23.44-6.39,23.44-6.39Z"/>
          <circle class="cls-20" cx="1437.03" cy="675.01" r="3.75"/>
        </g>
        <ellipse class="cls-21" cx="1456.61" cy="612.35" rx="6.13" ry="3.37" transform="translate(751.58 2026.43) rotate(-86.3)"/>
        <ellipse class="cls-21" cx="1401.78" cy="621.23" rx="3.5" ry="5" transform="translate(-103.49 912.92) rotate(-34.87)"/>
        <path class="cls-22" d="M1453.67,633.08c-2.48,7.48-8.32,12.35-15.69,13.32-10.26,1.35-19.28-1.34-28.1-8.72,13.92-6.24,24.08-7.83,43.8-4.6Z"/>
        <path class="cls-21" d="M1419.22,578.19c6.54-1.92,18.72-.79,28.19,12.15,8.63,11.81,8.9,32.4,7.16,38.39-2.19,7.57-8.12,13.77-15.34,15.57s-18.03.54-26.85-6.84c-5.83-4.88-12.37-22.12-11.62-34.19.84-13.35,11.61-23.06,18.46-25.08Z"/>
        <path class="cls-22" d="M1412.1,595.06s7.07,9.65,24.58,9.06c17.51-.59,17.92,1.95,17.92,1.95,0,0,6.44-24.81-15.18-32.82-19.07-7.06-28.1,3.61-31.14,11.44-7.63,2.24-8.83,9.49-8.83,17.44,0,9.54,4.12,18.5,4.12,18.5,0,0,1.02-6.14,4.6-16.11"/>
      </g>
      <g id="Ppl1">
        <polygon class="cls-21" points="1581.63 631.2 1601.91 633.88 1598.48 667.32 1568.35 660.62 1581.63 631.2"/>
        <g id="Layer_51" data-name="Layer 51">
          <path class="cls-22" d="M1574.04,648.01s.09,8.18,10.02,11.04,15.56-3.8,15.56-3.8c0,0,19.98,2.84,28.9,12.6s11.5,27.41,11.5,27.41l-126.44-2.65s13.26-32.09,30.16-39.93,30.3-4.68,30.3-4.68Z"/>
        </g>
        <path class="cls-22" d="M1600.8,644.67s-5.58,3.1-12.21,1.8c-7.62-1.49-10.61-7.19-10.61-7.19l1.72-3.8,21.54,4.91-.44,4.28Z"/>
        <path class="cls-21" d="M1604.23,585.41c6.63,1.59,16.8,8.1,19.14,22.27,2.13,12.92-5.39,26.9-10.42,29.8-9.76,5.63-17.98,9.12-25.15,7.12-7.32-2.04-11.08-9.47-15.42-19.14-2.87-6.39-2.16-20.94,4.07-29.7,6.9-9.69,20.83-12.01,27.77-10.35Z"/>
        <ellipse class="cls-21" cx="1621.01" cy="623.85" rx="6.38" ry="4" transform="translate(447.27 1904.17) rotate(-68.54)"/>
        <ellipse class="cls-21" cx="1570.65" cy="612.61" rx="6.37" ry="4" transform="translate(883.53 2152.12) rotate(-87.26)"/>
        <path class="cls-22" d="M1570.76,614.11s5.8-11.05,9.04-11.98c8.8-2.52,14.24-6.99,14.24-6.99l-8.19-7.8s-10.59,8.58-12.61,12.24c-1.58,2.85-2.48,14.53-2.48,14.53Z"/>
        <path class="cls-22" d="M1619.77,607.16c-1.02-2.49-3.96-9.58-3.96-9.58,0,0,9.71,2.64,8.68,14.12-.95,10.61-3.52,14.34-3.52,14.34,0,0,.12-4.56.12-10.02,0-3.42-.4-6.63-1.31-8.85Z"/>
        <path class="cls-22" d="M1590,607.47c-9.47-2.35-22.3-7.88-18.74-22.1,1.39-5.56,7.07-13.77,19.56-14.32,11.66-.51,26.76,6.24,28.83,16.3,5.52,0,6.9,3.84,7.46,15.13.29,5.79-1.51,10.28-2.61,12.57-2.12,4.41-3.29-.92-3.54-2.07-.69-3.15-5.76-9.12-8.66-9.24-9.68-.4-14.31,5.73-22.31,3.75Z"/>
      </g>
      <ellipse id="Lh" class="cls-21" cx="1622.1" cy="664.79" rx="8.33" ry="14.32" transform="translate(276.65 1788.58) rotate(-62.16)"/>
      <ellipse id="Rh" class="cls-21" cx="1395.61" cy="659.59" rx="14.36" ry="9.75" transform="translate(-143.38 779.12) rotate(-29.74)"/>
    </g>
    <g id="Frame">
      <circle class="cls-22" cx="1507.37" cy="457.43" r="6.28"/>
      <line class="cls-12" x1="1664.9" y1="499.25" x2="1507.37" y2="457.43"/>
      <line class="cls-12" x1="1343.22" y1="499.25" x2="1507.37" y2="457.43"/>
      <path class="cls-22" d="M1657.81,506.08c.71,0,1.29.58,1.29,1.29v180.42c0,.71-.58,1.29-1.29,1.29h-305.42c-.71,0-1.29-.58-1.29-1.29v-180.42c0-.71.58-1.29,1.29-1.29h305.42M1657.81,491.08h-305.42c-9,0-16.29,7.29-16.29,16.29v180.42c0,9,7.29,16.29,16.29,16.29h305.42c9,0,16.29-7.29,16.29-16.29v-180.42c0-9-7.29-16.29-16.29-16.29h0Z"/>
    </g>
  </g>
  <g id="Tasks">
    <g id="Note2">
      <rect class="cls-24" x="1011.6" y="521.85" width="91.8" height="115.97" rx="1.83" ry="1.83"/>
      <polygon class="cls-20" points="1079.75 518.93 1086.84 511.63 1112.96 538.55 1105.87 545.85 1079.75 518.93"/>
      <polygon class="cls-20" points="1001.74 622.32 1008.12 614.39 1036.63 638.77 1030.25 646.7 1001.74 622.32"/>
    </g>
    <g id="Task">
      <rect class="cls-10" x="889.31" y="388.7" width="167.66" height="211.91"/>
      <polygon class="cls-24" points="933.49 401.04 941.47 388.7 933.49 376.37 1012.8 376.37 1005.18 388.7 1012.8 401.04 933.49 401.04"/>
      <g id="Layer_39" data-name="Layer 39">
        <line class="cls-12" x1="904.53" y1="470.99" x2="967.66" y2="470.99"/>
        <line class="cls-12" x1="904.61" y1="491.31" x2="1038.14" y2="491.31"/>
        <line class="cls-12" x1="904.61" y1="511.63" x2="1038.14" y2="511.63"/>
        <line class="cls-12" x1="904.61" y1="531.95" x2="1038.14" y2="531.95"/>
        <line class="cls-12" x1="904.61" y1="552.27" x2="1038.14" y2="552.27"/>
        <line class="cls-12" x1="1018.19" y1="576.28" x2="1038.14" y2="576.28"/>
      </g>
      <text class="cls-31" transform="translate(917.41 446.57)"><tspan class="cls-34" x="0" y="0">T</tspan><tspan class="cls-36" x="26.52" y="0">A</tspan><tspan class="cls-35" x="59.76" y="0">SK</tspan></text>
    </g>
  </g>
  <g id="Calendar">
    <rect class="cls-10" x="164.57" y="331.27" width="217.37" height="183.81" rx="13.9" ry="13.9"/>
    <path class="cls-22" d="M164.57,331.27h203.47c7.67,0,13.9,6.23,13.9,13.9v9.49c0,7.67-6.23,13.9-13.9,13.9h-203.47v-37.29h0Z"/>
    <g class="cls-37">
      <g>
        <rect class="cls-8" x="179.26" y="391.46" width="30" height="25"/>
        <rect class="cls-8" x="218.26" y="391.46" width="30" height="25"/>
        <rect class="cls-8" x="257.26" y="391.46" width="30" height="25"/>
        <rect class="cls-8" x="296.26" y="391.46" width="30" height="25"/>
        <rect class="cls-8" x="335.26" y="391.46" width="30" height="25"/>
        <rect class="cls-8" x="179.26" y="429.46" width="30" height="25"/>
        <rect class="cls-8" x="218.26" y="429.46" width="30" height="25"/>
        <rect class="cls-8" x="257.26" y="429.46" width="30" height="25"/>
        <rect class="cls-8" x="296.26" y="429.46" width="30" height="25"/>
        <rect class="cls-8" x="335.26" y="429.46" width="30" height="25"/>
        <rect class="cls-8" x="179.26" y="467.46" width="30" height="25"/>
        <rect class="cls-8" x="218.26" y="467.46" width="30" height="25"/>
        <rect class="cls-8" x="257.26" y="467.46" width="30" height="25"/>
        <rect class="cls-8" x="296.26" y="467.46" width="30" height="25"/>
        <rect class="cls-8" x="335.26" y="467.46" width="30" height="25"/>
      </g>
    </g>
    <g id="Layer_75" data-name="Layer 75">
      <circle class="cls-24" cx="185.63" cy="369.76" r="12.59"/>
      <g>
        <line class="cls-14" x1="185.63" y1="388.72" x2="185.63" y2="386.57"/>
        <line class="cls-14" x1="174.48" y1="385.1" x2="175.75" y2="383.36"/>
        <line class="cls-14" x1="167.6" y1="375.62" x2="169.64" y2="374.95"/>
        <line class="cls-14" x1="167.6" y1="363.9" x2="169.64" y2="364.56"/>
        <line class="cls-14" x1="174.49" y1="354.42" x2="175.75" y2="356.15"/>
        <line class="cls-14" x1="185.63" y1="350.8" x2="185.63" y2="352.94"/>
        <line class="cls-14" x1="196.78" y1="354.42" x2="195.51" y2="356.15"/>
        <line class="cls-14" x1="203.66" y1="363.9" x2="201.62" y2="364.56"/>
        <line class="cls-14" x1="203.66" y1="375.62" x2="201.62" y2="374.95"/>
        <line class="cls-14" x1="196.78" y1="385.1" x2="195.51" y2="383.36"/>
      </g>
    </g>
    <rect class="cls-9" x="164.57" y="331.27" width="217.37" height="183.81" rx="13.9" ry="13.9"/>
    <text class="cls-32" transform="translate(204.59 357.82)"><tspan class="cls-28" x="0" y="0">C</tspan><tspan class="cls-25" x="22.17" y="0">A</tspan><tspan class="cls-30" x="45.15" y="0">L</tspan><tspan class="cls-26" x="64.66" y="0">E</tspan><tspan class="cls-29" x="84.26" y="0">N</tspan><tspan class="cls-27" x="107.39" y="0">D</tspan><tspan class="cls-29" x="130.09" y="0">AR</tspan></text>
    <g id="Layer_76" data-name="Layer 76">
      <path class="cls-24" d="M250.06,425.05c-.52.18-.98.47-1.25.96-1.79,2.41-1.93,2.57-3.7,4.83-4.3,5.35-9.31,11.91-14,14.51-.49.23-.35.26-1.46.53-.04,0-.09,0-.13,0-.04-.01-.08-.02-.12-.03,0,0,0,0,0,0-.02-.02-.04-.04-.06-.06-.08-.12-.21-.31-.3-.49-.19-.29-.53-1.63-.98-3.27-.25-.76-.41-1.69-1.12-2.17-1.72-1.45-4.25.79-3.08,2.7,2.69,14.82,13.48,4.44,19.99-3.53,2.94-3.57,5.83-7.18,8.58-10.9.97-1.54-.62-3.62-2.37-3.08Z"/>
      <path class="cls-24" d="M285.97,390.09c-1.57.16-2.65,1.68-3.95,2.46-9.53,7.29-19.13,14.56-27.86,22.8-1.91,1.97.98,4.87,2.96,2.96,7.03-6.72,16.39-13.97,22.66-18.83,2.4-1.85,4.82-3.67,7.25-5.48.47-.27.82-.73.96-1.25.38-1.29-.68-2.67-2.02-2.65Z"/>
      <path class="cls-24" d="M316.36,483.86c-1.41-1.65-2.86-3.26-4.33-4.86.48-.43.95-.86,1.43-1.29,1.04-1.09,2.55-1.87,3.28-3.19.76-1.52-.87-3.32-2.47-2.83-1.86,1.14-3.46,2.71-5.08,4.24-.86-.92-1.72-1.84-2.58-2.76-.89-.93-1.8-1.85-2.66-2.8-.35-.38-.65-.87-1.18-1.02-2.03-.96-3.91,1.85-2.29,3.4,1.86,2.02,3.75,4.02,5.63,6.02-2.09,1.95-4.4,3.77-6.06,6.06-.96,2.03,1.85,3.91,3.4,2.29,1.78-1.82,3.63-3.58,5.5-5.3.94,1.02,1.88,2.06,2.81,3.1,1.27,1.2,2.17,3.03,3.65,3.93,1.29.66,2.95-.49,2.9-1.92-.04-1.3-1.23-2.09-1.93-3.07Z"/>
      <g id="Layer_77" data-name="Layer 77">
        <rect class="cls-24" x="202.06" y="466.53" width="43" height="45" rx="3" ry="3"/>
        <line class="cls-13" x1="208.36" y1="475.51" x2="238.77" y2="475.51"/>
        <line class="cls-13" x1="208.36" y1="483.76" x2="238.77" y2="483.76"/>
        <line class="cls-13" x1="208.36" y1="492.01" x2="238.77" y2="492.01"/>
        <line class="cls-13" x1="208.36" y1="500.7" x2="221.11" y2="500.7"/>
      </g>
      <g id="Layer_78" data-name="Layer 78">
        <rect class="cls-24" x="326.66" y="372.76" width="43" height="27.5" rx="3" ry="3"/>
        <line class="cls-13" x1="332.95" y1="378.24" x2="363.36" y2="378.24"/>
        <line class="cls-13" x1="362.7" y1="383.28" x2="347.61" y2="383.28"/>
        <line class="cls-13" x1="332.95" y1="388.33" x2="363.36" y2="388.33"/>
        <line class="cls-13" x1="332.95" y1="393.64" x2="345.7" y2="393.64"/>
      </g>
    </g>
  </g>
</svg>