<?xml version="1.0" encoding="UTF-8"?>
<svg xmlns="http://www.w3.org/2000/svg" viewBox="0 0 2101.18 1983.47">
  <defs>
    <style>
      .cls-1, .cls-2, .cls-3, .cls-4, .cls-5, .cls-6, .cls-7, .cls-8, .cls-9, .cls-10, .cls-11, .cls-12, .cls-13, .cls-14, .cls-15, .cls-16, .cls-17, .cls-18, .cls-19, .cls-20, .cls-21, .cls-22, .cls-23, .cls-24, .cls-25, .cls-26, .cls-27, .cls-28, .cls-29, .cls-30, .cls-31, .cls-32, .cls-33, .cls-34, .cls-35, .cls-36, .cls-37, .cls-38, .cls-39, .cls-40, .cls-41, .cls-42, .cls-43, .cls-44, .cls-45, .cls-46, .cls-47, .cls-48, .cls-49, .cls-50, .cls-51, .cls-52, .cls-53, .cls-54, .cls-55, .cls-56 {
        stroke-width: 8px;
      }

      .cls-1, .cls-2, .cls-3, .cls-4, .cls-5, .cls-7, .cls-8, .cls-9, .cls-10, .cls-11, .cls-12, .cls-13, .cls-14, .cls-15, .cls-17, .cls-19, .cls-20, .cls-21, .cls-22, .cls-23, .cls-25, .cls-26, .cls-27, .cls-28, .cls-31, .cls-32, .cls-33, .cls-34, .cls-35, .cls-38, .cls-39, .cls-41, .cls-43, .cls-45, .cls-46, .cls-47, .cls-49, .cls-50, .cls-51, .cls-52, .cls-53, .cls-54, .cls-55, .cls-56 {
        stroke-linecap: round;
        stroke-linejoin: round;
      }

      .cls-1, .cls-2, .cls-4, .cls-5, .cls-18, .cls-27, .cls-32, .cls-38, .cls-43, .cls-53, .cls-55 {
        stroke: #dd702d;
      }

      .cls-1, .cls-3, .cls-7, .cls-13, .cls-16, .cls-22, .cls-30, .cls-40, .cls-44, .cls-47, .cls-49, .cls-54 {
        fill: none;
      }

      .cls-2, .cls-57 {
        fill: #dd702d;
      }

      .cls-3, .cls-16 {
        stroke: #b57322;
      }

      .cls-4, .cls-15, .cls-31, .cls-41 {
        fill: #bfbfbf;
      }

      .cls-5, .cls-21, .cls-26, .cls-45 {
        fill: #e0e0e0;
      }

      .cls-58, .cls-59, .cls-60, .cls-61, .cls-62, .cls-63, .cls-64, .cls-65, .cls-66, .cls-67, .cls-68, .cls-69, .cls-57 {
        stroke-width: 0px;
      }

      .cls-58, .cls-35 {
        fill: #ffcc4a;
      }

      .cls-6 {
        stroke: #b57321;
      }

      .cls-6, .cls-16, .cls-18, .cls-24, .cls-29, .cls-30, .cls-36, .cls-37, .cls-40, .cls-42, .cls-44, .cls-48 {
        stroke-miterlimit: 10;
      }

      .cls-6, .cls-19, .cls-28, .cls-33, .cls-36, .cls-37, .cls-38, .cls-48 {
        fill: #f3efd9;
      }

      .cls-7, .cls-30, .cls-48 {
        stroke: #457a59;
      }

      .cls-8, .cls-9, .cls-12, .cls-20, .cls-24, .cls-28, .cls-31, .cls-34, .cls-45, .cls-50, .cls-51, .cls-54 {
        stroke: #678c90;
      }

      .cls-8, .cls-10, .cls-32, .cls-46 {
        fill: #dbdbdb;
      }

      .cls-9 {
        fill: #9fc9bd;
      }

      .cls-10, .cls-14, .cls-19, .cls-21, .cls-25, .cls-35, .cls-39, .cls-41, .cls-42, .cls-49 {
        stroke: #ffcc4a;
      }

      .cls-11 {
        fill: #9fc29b;
      }

      .cls-11, .cls-13, .cls-15, .cls-17, .cls-23, .cls-26, .cls-29, .cls-33, .cls-46, .cls-52, .cls-56 {
        stroke: #53936c;
      }

      .cls-12, .cls-14, .cls-27, .cls-66, .cls-56 {
        fill: #fff;
      }

      .cls-17, .cls-69 {
        fill: #799e75;
      }

      .cls-18, .cls-43 {
        fill: #ffbd59;
      }

      .cls-59, .cls-39 {
        fill: #b8a454;
      }

      .cls-20, .cls-24 {
        fill: #a9d8ca;
      }

      .cls-60, .cls-23 {
        fill: #53936c;
      }

      .cls-22, .cls-36, .cls-44 {
        stroke: #a38c2e;
      }

      .cls-25, .cls-42 {
        fill: #ffe16f;
      }

      .cls-61, .cls-50 {
        fill: #7ea89c;
      }

      .cls-29, .cls-52 {
        fill: #aed5aa;
      }

      .cls-62 {
        fill: #404040;
      }

      .cls-34 {
        fill: #698f91;
      }

      .cls-63 {
        fill: #262626;
      }

      .cls-37, .cls-40, .cls-47 {
        stroke: #4d7175;
      }

      .cls-64, .cls-53 {
        fill: #de9a33;
      }

      .cls-65, .cls-51 {
        fill: #678c90;
      }

      .cls-67 {
        fill: #c5e2e8;
      }

      .cls-68 {
        fill: #ffe875;
      }

      .cls-55 {
        fill: #f0b359;
      }
    </style>
  </defs>
  <g id="Competition_house" data-name="Competition house">
    <g id="Bg">
      <path class="cls-67" d="M92.91,647.21c-23.49-61.73-20.38-132.8,8.4-192.31,28.78-59.51,82.85-106.65,146.29-127.56,62.13-20.47,149.08-.32,203.57-36.15,54.9-36.09,87.12-80.22,151.06-95.7,61.87-14.98,120.8-17.86,170.82,24.27,50.02,42.13,89.49,75.36,110.85,136.7,21.36,61.33,12.24,101.99,41.42,160.11,25.83,51.45,63.21,100.81,64.52,158.2,1.51,65.69-44.49,122.02-87.98,171.83-33.37,38.22-54.81,65.05-105.98,64.85-42.36-.16-96.91-14.61-136.65-29.07-113.6-41.34-230.13,22.98-350.86,13.77-65.94-5.03-135.71-21.73-175.98-73.43-40.27-51.7-57.01-120.53-44.9-184.6"/>
    </g>
    <g id="Clouds">
      <path class="cls-66" d="M972.09,391.76c11.41-23.97-.93-55.83-25.83-66.68-24.9-10.85-57.78,1.31-68.82,25.45-16.66-15.94-40.44-33.11-61.15-22.5-8.63,4.42-14.15,12.78-20.34,20.08-30.51,36-87.19,19.38-140.66,48.38,0,0,220.73-3.26,316.8-4.73Z"/>
      <path class="cls-66" d="M129.15,350.14c-9.56-23.97,17.81-48.11,38.67-58.95s48.31-5.18,57.56,18.96c13.96-15.94,27.29-21.33,46.5-14.62,18.96,6.63,26.32,25.65,100.87,51.71-100.67,0-163.09,4.37-243.61,2.9Z"/>
    </g>
    <g id="Building">
      <g id="Back2">
        <g id="Back_two_walls" data-name="Back two walls">
          <rect class="cls-38" x="30.76" y="545.63" width="934.06" height="267.13"/>
        </g>
        <g id="Windows">
          <g id="Left">
            <path class="cls-32" d="M225.31,749.71l25.4-.28s5.8-44.9-12.21-44.9-13.19,45.18-13.19,45.18Z"/>
            <path class="cls-32" d="M171.8,749.71l25.4-.28s5.8-44.9-12.21-44.9-13.19,45.18-13.19,45.18Z"/>
            <path class="cls-32" d="M120.72,749.71l25.4-.28s5.8-44.9-12.21-44.9-13.19,45.18-13.19,45.18Z"/>
            <path class="cls-32" d="M71.68,749.71l25.4-.28s5.8-44.9-12.21-44.9-13.19,45.18-13.19,45.18Z"/>
            <rect class="cls-32" x="225.39" y="594.13" width="25.54" height="72.97"/>
            <rect class="cls-32" x="72.15" y="594.13" width="25.54" height="72.97"/>
            <rect class="cls-32" x="171.88" y="594.13" width="25.54" height="72.97"/>
            <rect class="cls-32" x="120.8" y="594.13" width="25.54" height="72.97"/>
            <path class="cls-32" d="M225.31,749.71l25.4-.28s5.8-44.9-12.21-44.9-13.19,45.18-13.19,45.18Z"/>
            <path class="cls-32" d="M171.8,749.71l25.4-.28s5.8-44.9-12.21-44.9-13.19,45.18-13.19,45.18Z"/>
            <path class="cls-32" d="M120.72,749.71l25.4-.28s5.8-44.9-12.21-44.9-13.19,45.18-13.19,45.18Z"/>
            <path class="cls-32" d="M71.68,749.71l25.4-.28s5.8-44.9-12.21-44.9-13.19,45.18-13.19,45.18Z"/>
            <rect class="cls-32" x="225.39" y="594.13" width="25.54" height="72.97"/>
            <rect class="cls-32" x="72.15" y="594.13" width="25.54" height="72.97"/>
            <rect class="cls-32" x="171.88" y="594.13" width="25.54" height="72.97"/>
            <rect class="cls-32" x="120.8" y="594.13" width="25.54" height="72.97"/>
          </g>
          <g id="Right">
            <path class="cls-32" d="M900.4,750.61l25.4-.28s5.8-44.9-12.21-44.9-13.19,45.18-13.19,45.18Z"/>
            <path class="cls-32" d="M846.88,750.61l25.4-.28s5.8-44.9-12.21-44.9-13.19,45.18-13.19,45.18Z"/>
            <path class="cls-32" d="M795.8,750.61l25.4-.28s5.8-44.9-12.21-44.9-13.19,45.18-13.19,45.18Z"/>
            <path class="cls-32" d="M746.77,750.61l25.4-.28s5.8-44.9-12.21-44.9-13.19,45.18-13.19,45.18Z"/>
            <rect class="cls-32" x="900.48" y="595.03" width="25.54" height="72.97"/>
            <rect class="cls-32" x="747.23" y="595.03" width="25.54" height="72.97"/>
            <rect class="cls-32" x="795.88" y="595.03" width="25.54" height="72.97"/>
            <rect class="cls-32" x="846.96" y="595.03" width="25.54" height="72.97"/>
          </g>
        </g>
      </g>
      <g id="Layer_16" data-name="Layer 16">
        <rect class="cls-6" x="292.07" y="482.85" width="403.79" height="312.29"/>
      </g>
      <g id="Layer_17" data-name="Layer 17">
        <path class="cls-62" d="M513.78,581.08c-1.13-4.2-4.07-7.89-7.88-9.98-8.71-4.31-17.37-1.89-20.74,7.64-2.33,5.47-1.4,12.41,2.73,16.78.92,1.01,2.23,1.84,3.6,2.25.85,1.07,1.84,1.99,2.97,2.69,5.29,3.13,12.08.9,15.89-3.55,4.01-4.2,4.76-10.36,3.43-15.83Z"/>
        <path class="cls-62" d="M617.96,566.17c-1.66-1.11-4.14-1.14-5.67.23-.62.42-1.08.99-1.39,1.62-2.72-.44-5.85,1.37-5.81,4.74-.35,9.04-.71,18.09-.41,27.14.34,5.54-.46,11.54,2.41,16.55,2.32,4.11,7.65,5.13,10.9,1.47,4.59-5.67,4.77-13.5,5.49-20.46.31-7.66,1.22-26.7-5.52-31.27Z"/>
        <path class="cls-62" d="M611.98,668.44c-.33.2-.6.42-.86.65-2.84-1.69-7.36-.33-7.48,4.1.2,14.06-.52,28.91,5.04,42.11,1.53,2.51,5.01,3.56,7.59,2.05,5.4-3.7,5.3-14.94,5.9-21,.26-6.13.78-33.07-10.19-27.9Z"/>
        <path class="cls-62" d="M383.3,570.64c-.61-1.81-2.57-3-4.45-2.99-1.8.08-2.95.74-3.69,1.72-2.5-.82-5.66.39-6.36,3.25-1.39,10.08-1.41,20.39.11,30.46.44,3.03,1.05,6.03,1.82,9,.43,1.3.44,2.83,1.43,3.87,1.89,2.77,6.41,2.39,8.02-.49,1.1-1.95.52-4.31.83-6.45.27-4.33.49-8.65.76-12.98.31-5.54.84-11.06,1.38-16.57,0-2.76,1.13-6.25.14-8.81Z"/>
        <path class="cls-62" d="M383.3,674.05c-.61-1.81-2.57-3-4.45-2.99-1.8.08-2.95.74-3.69,1.72-2.5-.82-5.66.39-6.36,3.25-1.39,10.08-1.41,20.39.11,30.46.44,3.03,1.05,6.03,1.82,9,.43,1.3.44,2.83,1.43,3.87,1.89,2.77,6.41,2.39,8.02-.49,1.1-1.95.52-4.31.83-6.45.27-4.33.49-8.65.76-12.98.31-5.54.84-11.06,1.38-16.57,0-2.76,1.13-6.25.14-8.81Z"/>
        <path class="cls-62" d="M514.17,683.47c.67-4.14.18-8.37-.03-12.53-.53-6.98-1.97-14.16-5.85-20.1-.43-.68-.94-1.28-1.48-1.79-.18-.42-.35-.84-.55-1.25-2.58-6.32-12.08-11.99-16.82-4.7-.18.36-.33.72-.45,1.09-1.08.01-2.21.35-3.35,1.1-2.56.79-4.45,3.23-5.33,5.73-.42,1.94-.56,3.96-.46,5.94.01.1.02.21.03.31-.07.38-.09.77-.14,1.16-.37.81-.73,1.62-1.05,2.44-9.33,23.05-3.65,48.41-2.59,72.42.14,2.04.3,4.09.45,6.13-.33,5.79-.61,11.59-.8,17.39.06,4.75-.75,9.77.46,14.38,1.11,2.88,4.19,3.5,6.51,2.46,1.04.66,2.34.91,3.86.52.94-.23,1.68-.79,2.32-1.47,1.03.14,2.09.04,3.16-.39,2.35-.51,2.94-1.34,3.39-1.29.1-.03.21-.04.31-.07.55-.01,1.76-.11,2.37-.23.76-.13,1.48-.4,2.18-.69,1.31,3.62,6.8,3.89,8.62.53,1.25-2.97.95-7.27,1.52-10.55.36-3.56.72-7.12,1.06-10.69,1.51-16.22,2.36-32.5,2.65-48.79.09-5.44.08-10.89-.21-16.32.1-.24.2-.48.26-.74Z"/>
      </g>
      <g id="Layer_18" data-name="Layer 18">
        <path class="cls-63" d="M507.91,644.78c.03-.09.08-.18.1-.27,1.42-8.29-10.77-7.46-15.31-4.22-5.19,3.74-8.09,8.9-9.74,14.71-11.37,21.39-9.29,52.76-8.3,75.95.73,15.64,1.07,31.29,1.66,46.93.1,2.4,0,5.3,2.2,6.82,2.69,2.31,7,.61,7.8-2.7,1.66-11.24,1.34-22.66,1.71-33.99.48-17.9,1.04-35.79,1.77-53.68.3-7.66.51-15.32.83-22.97.32-5.52.48-9.29,1.36-12.76,2.32-3.98,4.98-6.58,7.76-7.33.36-.13.72-.22,1.1-.29.13,0,.26-.01.4-.01,1.09.5,2.31.71,3.49.35,2.93-.7,4.13-4.01,3.19-6.53Z"/>
        <path class="cls-63" d="M513.29,567.53c-1.64-1.51-4.02-1.86-6.13-2.37-2.63-.5-5.32-.67-7.97-.18-7.64,1.24-13.36,7.87-15.91,14.87-2.05,6.64-1.82,14.16.77,20.62,3.09,5.87,11.71,1.21,8.55-4.61-1.98-6.49-1.46-16.73,6.48-20.81,1.56-.55,3.43-1.34,8.6.29,4.91,2.35,9.41-3.91,5.6-7.81Z"/>
        <path class="cls-63" d="M622.26,567.6c-1.3-1.37-3.26-1.51-5.02-1.74-3.33-.33-6.74.85-9.16,3.15-3.3,3.17-4,7.88-4.54,12.21-.6,4.69-.81,9.42-.8,14.14.23,6.99-.19,14.23,1.19,21.07,1.86,4.87,9.37,3.33,9.31-1.87-1.07-13.42-1.43-32.67,1.43-38.37.1-.11.2-.21.29-.29.13-.08.26-.16.39-.23.14-.04.3-.09.48-.13.12,0,.26,0,.44-.01.19.01.33.02.45.03.92.2,1.82.52,2.75.27,3.91-.26,5.6-5.58,2.79-8.22Z"/>
        <path class="cls-63" d="M625.23,670.44c-1.52-2.31-4.58-3.18-7.14-3.82-4.59-.9-9.81.74-12.47,4.72-2.78,4.45-2.72,9.98-3.03,15.05-.13,8.06-.52,16.13-.29,24.2.07,2.15.17,4.3.3,6.45.03,1.62.26,3.32,1.5,4.48,2.86,3.05,8.44.76,8.3-3.44-.7-8.81-.42-17.65-.21-26.48.19-7.41.15-12.45,1.62-14.98.15-.09.3-.2.45-.28.29-.1.59-.18.89-.24.12,0,.25,0,.41-.01.15,0,.27.01.38.02.57.12,1.13.28,1.68.49.29.14.64.32.94.5,1.12.66,2.5.84,3.75.49,3.02-.76,4.5-4.49,2.91-7.15Z"/>
        <path class="cls-63" d="M382.34,567.68c-3.61-1.86-9.5.85-11.97,3.71-3.76,4.33-3.17,10.54-3.42,15.91,0,5.68.08,11.36-.16,17.04-.07,3.02-.26,6.04-.02,9.06.15,1.22.19,2.57,1.11,3.49,2.97,4.11,9.48,1,8.6-3.75-.02-.19-.04-.37-.05-.56-.19-5.16.27-10.32.25-15.48,0-7.08-.18-16.56.82-19.11.1-.11.26-.27.46-.46.16-.1.37-.23.6-.35.27-.09.67-.22,1.09-.32.32-.07.55-.12.73-.15.48-.04.95-.15,1.39-.38.6-.2,1.12-.53,1.57-1.01,2.25-2.14,1.7-6.11-.98-7.64Z"/>
        <path class="cls-63" d="M383.84,672.58c-2.02-1.92-5.06-1.57-7.64-1.56-4.51.1-9.44,2.55-10.31,7.34-.79,5.86-.86,11.79-.86,17.69-.01,6.96.72,13.92.28,20.87-.02.22-.05.43-.07.65-.02.12-.05.26-.09.45-.28.82-.49,1.68-.27,2.53.51,5.17,8.15,5.66,9.47.65,1.57-6.61.54-13.53.5-20.26-.21-5.75-.06-16.41.48-20.01.17-.05.36-.1.56-.14.52-.04,1.55-.12,2.11-.07,1.43-.04,2.96.52,4.27-.24,3.17-1.07,3.96-5.64,1.57-7.89Z"/>
      </g>
      <g id="Layer_19" data-name="Layer 19">
        <circle class="cls-16" cx="498.73" cy="585.4" r="18.85"/>
        <rect class="cls-3" x="604.55" y="567.37" width="18.24" height="49.87"/>
        <rect class="cls-3" x="604.55" y="668.17" width="18.24" height="49.87"/>
        <rect class="cls-3" x="366.56" y="671.21" width="18.24" height="49.87"/>
        <rect class="cls-3" x="366.56" y="567.37" width="18.24" height="49.87"/>
        <path class="cls-3" d="M475.15,778.67l38.28.69s.34-89.73.34-118.77c-3.87-14.84-11.36-21.33-18.86-21.4-6.57,0-12.8,5.93-19.09,23.5l-.67,115.98Z"/>
      </g>
      <g id="Layer_13" data-name="Layer 13">
        <g id="Layer_6" data-name="Layer 6">
          <polygon class="cls-55" points="159.36 433.68 48.31 532.02 268.24 532.02 159.36 433.68"/>
          <polygon class="cls-55" points="838.38 433.68 727.33 532.02 947.26 532.02 838.38 433.68"/>
        </g>
        <g id="Layer_5" data-name="Layer 5">
          <rect class="cls-53" x="675.98" y="801.21" width="315.6" height="29.19"/>
          <rect class="cls-53" x="4" y="801.21" width="315.6" height="29.19"/>
          <rect class="cls-53" x="4" y="527.99" width="315.6" height="29.19"/>
          <rect class="cls-53" x="675.98" y="534.07" width="315.6" height="29.19"/>
        </g>
      </g>
      <polygon class="cls-43" points="496.28 310.15 308.37 482.85 680.55 482.85 496.28 310.15"/>
      <g id="Column">
        <g id="Layer_15" data-name="Layer 15">
          <rect class="cls-18" x="293.79" y="518.14" width="38.92" height="244.74"/>
        </g>
        <g>
          <path class="cls-57" d="M349.46,501.62c-6.63-6.08-29.51-3.56-38.82-3.35-6.78.42-13.55,1.07-20.29,1.95-2.58.34-5.47.6-7.84,1.78-2.96-2.27-7.89,0-7.76,3.94.69,6.2.99,12.76,4.46,18.16,8.07,11.86,24.12,10.28,36.74,10.04,5.69-.23,11.39-.5,17.05-1.19,4.64-.4,9.37-1.77,12.51-5.41,3.85-4.26,5.49-10.01,6.01-15.63.38-3.5.59-7.61-2.07-10.31Z"/>
          <path class="cls-64" d="M338.64,520.66c-.13.14-.28.3-.46.48-.22.22-.42.4-.58.55-3.39,2.21-9.58,1.92-18.12,2.58-13.97.67-26.06.85-30.51-3.61-.5-.43-.92-.92-1.33-1.43-.11-.16-.23-.35-.36-.58-.3-.5-.56-1.04-.79-1.57.14.33.09.23-.02-.06-.1-.22-.2-.44-.29-.66.13.29.22.5.28.64-.11-.27-.28-.72-.41-1.15-.56-2.16-.8-3.27-.94-4.22.69-.25,1.32-.66,1.97-1.03,4.15-1.05,2.61-.46,7.21-1.15,13.76-1.54,27.64-2.42,41.49-1.93,3.72.4,3.04-.04,6.21.98-.11,4.1-.08,3.02-.81,6.63-1.22,3.69-.4,2.27-2.54,5.53Z"/>
        </g>
        <g>
          <path class="cls-57" d="M276.41,776.91c6.34,6.38,29.31,4.93,38.62,5.16,6.79-.11,13.59-.43,20.36-1.01,2.59-.22,5.5-.35,7.92-1.41,2.85,2.41,7.88.37,7.93-3.57-.4-6.23-.39-12.79-3.61-18.35-7.51-12.23-23.62-11.4-36.23-11.74-5.7-.04-11.4-.03-17.09.39-4.65.18-9.44,1.33-12.75,4.82-4.05,4.08-5.95,9.74-6.73,15.33-.54,3.48-.94,7.57,1.59,10.39Z"/>
          <path class="cls-64" d="M288.1,758.39c.13-.14.29-.29.48-.46.23-.2.44-.38.6-.52,3.49-2.05,9.66-1.47,18.22-1.73,13.99-.02,26.07.37,30.31,5.03.47.45.88.96,1.27,1.49.1.17.22.36.34.6.28.52.51,1.06.72,1.61-.13-.33-.08-.24.02.06.09.22.18.44.26.67-.12-.3-.2-.51-.25-.65.1.28.25.73.36,1.17.46,2.19.65,3.31.74,4.26-.7.22-1.35.6-2.02.94-4.2.86-2.63.34-7.26.81-13.82.89-27.73,1.13-41.54,0-3.7-.58-3.04-.1-6.16-1.26.3-4.09.22-3.01,1.12-6.59,1.39-3.63.5-2.24,2.79-5.4Z"/>
        </g>
        <rect class="cls-18" x="418.65" y="518.83" width="38.92" height="244.74"/>
        <g>
          <path class="cls-57" d="M474.32,502.31c-6.63-6.08-29.51-3.56-38.82-3.35-6.78.42-13.55,1.07-20.29,1.95-2.58.34-5.47.6-7.84,1.78-2.96-2.27-7.89,0-7.76,3.94.69,6.2.99,12.76,4.46,18.16,8.07,11.86,24.12,10.28,36.74,10.04,5.69-.23,11.39-.5,17.05-1.19,4.64-.4,9.37-1.77,12.51-5.41,3.85-4.26,5.49-10.01,6.01-15.63.38-3.5.59-7.61-2.07-10.31Z"/>
          <path class="cls-64" d="M463.5,521.35c-.13.14-.28.3-.46.48-.22.22-.42.4-.58.55-3.39,2.21-9.58,1.92-18.12,2.58-13.97.67-26.06.85-30.51-3.61-.5-.43-.92-.92-1.33-1.43-.11-.16-.23-.35-.36-.58-.3-.5-.56-1.04-.79-1.57.14.33.09.23-.02-.06-.1-.22-.2-.44-.29-.66.13.29.22.5.28.64-.11-.27-.28-.72-.41-1.15-.56-2.16-.8-3.27-.94-4.22.69-.25,1.32-.66,1.97-1.03,4.15-1.05,2.61-.46,7.21-1.15,13.76-1.54,27.64-2.42,41.49-1.93,3.72.4,3.04-.04,6.21.98-.11,4.1-.08,3.02-.81,6.63-1.22,3.69-.4,2.27-2.54,5.53Z"/>
        </g>
        <g>
          <path class="cls-57" d="M401.27,777.59c6.34,6.38,29.31,4.93,38.62,5.16,6.79-.11,13.59-.43,20.36-1.01,2.59-.22,5.5-.35,7.92-1.41,2.85,2.41,7.88.37,7.93-3.57-.4-6.23-.39-12.79-3.61-18.35-7.51-12.23-23.62-11.4-36.23-11.74-5.7-.04-11.4-.03-17.09.39-4.65.18-9.44,1.33-12.75,4.82-4.05,4.08-5.95,9.74-6.73,15.33-.54,3.48-.94,7.57,1.59,10.39Z"/>
          <path class="cls-64" d="M412.96,759.07c.13-.14.29-.29.48-.46.23-.2.44-.38.6-.52,3.49-2.05,9.66-1.47,18.22-1.73,13.99-.02,26.07.37,30.31,5.03.47.45.88.96,1.27,1.49.1.17.22.36.34.6.28.52.51,1.06.72,1.61-.13-.33-.08-.24.02.06.09.22.18.44.26.67-.12-.3-.2-.51-.25-.65.1.28.25.73.36,1.17.46,2.19.65,3.31.74,4.26-.7.22-1.35.6-2.02.94-4.2.86-2.63.34-7.26.81-13.82.89-27.73,1.13-41.54,0-3.7-.58-3.04-.1-6.16-1.26.3-4.09.22-3.01,1.12-6.59,1.39-3.63.5-2.24,2.79-5.4Z"/>
        </g>
        <rect class="cls-18" x="536.62" y="518.83" width="38.92" height="244.74"/>
        <g>
          <path class="cls-57" d="M592.29,502.31c-6.63-6.08-29.51-3.56-38.82-3.35-6.78.42-13.55,1.07-20.29,1.95-2.58.34-5.47.6-7.84,1.78-2.96-2.27-7.89,0-7.76,3.94.69,6.2.99,12.76,4.46,18.16,8.07,11.86,24.12,10.28,36.74,10.04,5.69-.23,11.39-.5,17.05-1.19,4.64-.4,9.37-1.77,12.51-5.41,3.85-4.26,5.49-10.01,6.01-15.63.38-3.5.59-7.61-2.07-10.31Z"/>
          <path class="cls-64" d="M581.48,521.35c-.13.14-.28.3-.46.48-.22.22-.42.4-.58.55-3.39,2.21-9.58,1.92-18.12,2.58-13.97.67-26.06.85-30.51-3.61-.5-.43-.92-.92-1.33-1.43-.11-.16-.23-.35-.36-.58-.3-.5-.56-1.04-.79-1.57.14.33.09.23-.02-.06-.1-.22-.2-.44-.29-.66.13.29.22.5.28.64-.11-.27-.28-.72-.41-1.15-.56-2.16-.8-3.27-.94-4.22.69-.25,1.32-.66,1.97-1.03,4.15-1.05,2.61-.46,7.21-1.15,13.76-1.54,27.64-2.42,41.49-1.93,3.72.4,3.04-.04,6.21.98-.11,4.1-.08,3.02-.81,6.63-1.22,3.69-.4,2.27-2.54,5.53Z"/>
        </g>
        <g>
          <path class="cls-57" d="M519.25,777.59c6.34,6.38,29.31,4.93,38.62,5.16,6.79-.11,13.59-.43,20.36-1.01,2.59-.22,5.5-.35,7.92-1.41,2.85,2.41,7.88.37,7.93-3.57-.4-6.23-.39-12.79-3.61-18.35-7.51-12.23-23.62-11.4-36.23-11.74-5.7-.04-11.4-.03-17.09.39-4.65.18-9.44,1.33-12.75,4.82-4.05,4.08-5.95,9.74-6.73,15.33-.54,3.48-.94,7.57,1.59,10.39Z"/>
          <path class="cls-64" d="M530.93,759.07c.13-.14.29-.29.48-.46.23-.2.44-.38.6-.52,3.49-2.05,9.66-1.47,18.22-1.73,13.99-.02,26.07.37,30.31,5.03.47.45.88.96,1.27,1.49.1.17.22.36.34.6.28.52.51,1.06.72,1.61-.13-.33-.08-.24.02.06.09.22.18.44.26.67-.12-.3-.2-.51-.25-.65.1.28.25.73.36,1.17.46,2.19.65,3.31.74,4.26-.7.22-1.35.6-2.02.94-4.2.86-2.63.34-7.26.81-13.82.89-27.73,1.13-41.54,0-3.7-.58-3.04-.1-6.16-1.26.3-4.09.22-3.01,1.12-6.59,1.39-3.63.5-2.24,2.79-5.4Z"/>
        </g>
        <rect class="cls-18" x="655.29" y="518.83" width="38.92" height="244.74"/>
        <g>
          <path class="cls-57" d="M710.95,502.31c-6.63-6.08-29.51-3.56-38.82-3.35-6.78.42-13.55,1.07-20.29,1.95-2.58.34-5.47.6-7.84,1.78-2.96-2.27-7.89,0-7.76,3.94.69,6.2.99,12.76,4.46,18.16,8.07,11.86,24.12,10.28,36.74,10.04,5.69-.23,11.39-.5,17.05-1.19,4.64-.4,9.37-1.77,12.51-5.41,3.85-4.26,5.49-10.01,6.01-15.63.38-3.5.59-7.61-2.07-10.31Z"/>
          <path class="cls-64" d="M700.14,521.35c-.13.14-.28.3-.46.48-.22.22-.42.4-.58.55-3.39,2.21-9.58,1.92-18.12,2.58-13.97.67-26.06.85-30.51-3.61-.5-.43-.92-.92-1.33-1.43-.11-.16-.23-.35-.36-.58-.3-.5-.56-1.04-.79-1.57.14.33.09.23-.02-.06-.1-.22-.2-.44-.29-.66.13.29.22.5.28.64-.11-.27-.28-.72-.41-1.15-.56-2.16-.8-3.27-.94-4.22.69-.25,1.32-.66,1.97-1.03,4.15-1.05,2.61-.46,7.21-1.15,13.76-1.54,27.64-2.42,41.49-1.93,3.72.4,3.04-.04,6.21.98-.11,4.1-.08,3.02-.81,6.63-1.22,3.69-.4,2.27-2.54,5.53Z"/>
        </g>
        <g>
          <path class="cls-57" d="M637.91,777.59c6.34,6.38,29.31,4.93,38.62,5.16,6.79-.11,13.59-.43,20.36-1.01,2.59-.22,5.5-.35,7.92-1.41,2.85,2.41,7.88.37,7.93-3.57-.4-6.23-.39-12.79-3.61-18.35-7.51-12.23-23.62-11.4-36.23-11.74-5.7-.04-11.4-.03-17.09.39-4.65.18-9.44,1.33-12.75,4.82-4.05,4.08-5.95,9.74-6.73,15.33-.54,3.48-.94,7.57,1.59,10.39Z"/>
          <path class="cls-64" d="M649.6,759.07c.13-.14.29-.29.48-.46.23-.2.44-.38.6-.52,3.49-2.05,9.66-1.47,18.22-1.73,13.99-.02,26.07.37,30.31,5.03.47.45.88.96,1.27,1.49.1.17.22.36.34.6.28.52.51,1.06.72,1.61-.13-.33-.08-.24.02.06.09.22.18.44.26.67-.12-.3-.2-.51-.25-.65.1.28.25.73.36,1.17.46,2.19.65,3.31.74,4.26-.7.22-1.35.6-2.02.94-4.2.86-2.63.34-7.26.81-13.82.89-27.73,1.13-41.54,0-3.7-.58-3.04-.1-6.16-1.26.3-4.09.22-3.01,1.12-6.59,1.39-3.63.5-2.24,2.79-5.4Z"/>
        </g>
      </g>
      <g id="Layer_12" data-name="Layer 12">
        <path class="cls-53" d="M269.46,507.4v-24.55s165.8-5.47,221.07-5.47,228.94,5.47,228.94,5.47v24.55s-172.03-5.46-229.37-5.46-220.63,5.46-220.63,5.46Z"/>
        <path class="cls-4" d="M724.14,768.97v27.85s-168.39,6.21-224.52,6.21-232.51-6.21-232.51-6.21v-27.85s174.71,6.19,232.95,6.19,224.07-6.19,224.07-6.19Z"/>
        <path class="cls-5" d="M742.57,793.3v27.85s-182.83,6.21-243.77,6.21-252.45-6.21-252.45-6.21v-27.85s189.7,6.19,252.93,6.19,243.29-6.19,243.29-6.19Z"/>
        <path class="cls-27" d="M762.59,822.49v27.85s-196.72,6.21-262.29,6.21-271.63-6.21-271.63-6.21v-27.85s204.11,6.19,272.15,6.19,261.78-6.19,261.78-6.19Z"/>
      </g>
      <g id="Flag">
        <path class="cls-1" d="M494.46,243.24l.69,66.91-.69-66.91Z"/>
        <polygon class="cls-2" points="437.95 267.9 495.15 246.66 493.43 291.19 437.95 267.9"/>
      </g>
    </g>
    <g id="Stars">
      <path class="cls-68" d="M774.31,191.8s3.09,25.32,18.34,31.1c-14.79,3.95-17.29,29.07-17.29,29.07,0,0-2.68-23.19-17.71-28.65,14.63-7.09,16.66-31.52,16.66-31.52Z"/>
      <path class="cls-68" d="M287.17,373.47s4.33,27.64,25.66,33.94c-20.69,4.31-24.19,31.73-24.19,31.73,0,0-3.75-25.31-24.78-31.27,20.47-7.74,23.31-34.41,23.31-34.41Z"/>
      <path class="cls-68" d="M912.04,810.33s4.46,31.34,26.43,38.5c-21.31,4.88-24.91,35.99-24.91,35.99,0,0-3.86-28.71-25.53-35.46,21.09-8.78,24.01-39.02,24.01-39.02Z"/>
      <path class="cls-68" d="M610.6,243.24s5.81,35.85,34.41,44.03c-27.75,5.59-32.44,41.16-32.44,41.16,0,0-5.03-32.84-33.24-40.56,27.46-10.04,31.27-44.63,31.27-44.63Z"/>
      <path class="cls-68" d="M154.67,826.37s2.9,19.45,17.21,23.89c-13.87,3.03-16.22,22.33-16.22,22.33,0,0-2.51-17.81-16.62-22.01,13.73-5.45,15.63-24.21,15.63-24.21Z"/>
      <path class="cls-68" d="M161.01,325.35s2.9,19.45,17.21,23.89c-13.87,3.03-16.22,22.33-16.22,22.33,0,0-2.51-17.81-16.62-22.01,13.73-5.45,15.63-24.21,15.63-24.21Z"/>
    </g>
  </g>
  <g id="Reading_house" data-name="Reading house">
    <g id="Bg_copy" data-name="Bg copy">
      <path class="cls-67" d="M1193.1,644.75c-22.95-60.33-72.12-114.85-60.75-178.45,14.27-79.85,119.46-221.68,178.94-226.93,63.69-5.62,136.68,81.55,200.17,75.95,76.41-6.74,128.19-36.37,189.14-56.85,63.87-21.46,138.05-29.91,192.04,0,55.91,30.98,83.81,53.63,89.1,116.89,5.15,61.62-15.39,96.08,13.13,152.88,25.25,50.28,84.07,51.19,97.95,110.64,14.6,62.54-9.19,109.49-51.7,158.17-32.61,37.35-49.22,88.34-98.55,96.51-41.95,6.95-293.1-29.86-334.4-28.53-72.59,2.35-125.7,31.53-243.7,22.53-64.45-4.92-93.42-20.74-132.78-71.27s-55.72-117.81-43.88-180.42"/>
    </g>
    <g id="Clouds_copy" data-name="Clouds copy">
      <path class="cls-66" d="M2008.74,339.04c9.83-30.23-.8-70.41-22.26-84.09-21.46-13.68-49.8,1.65-59.32,32.09-14.36-20.1-34.86-41.75-52.71-28.38-7.44,5.57-12.2,16.12-17.54,25.33-26.3,45.39-75.15,24.44-121.24,61.02,0,0,190.27-4.11,273.08-5.97Z"/>
      <path class="cls-66" d="M1135.77,416.67c-10.64-29.6,19.83-59.4,43.06-72.79,23.23-13.39,53.78-6.39,64.09,23.41,15.54-19.68,30.39-26.34,51.77-18.05,21.11,8.19,29.31,31.67,112.3,63.85-112.07,0-181.58,5.4-271.21,3.58Z"/>
    </g>
    <g id="Building_copy" data-name="Building copy">
      <g id="Back2_copy" data-name="Back2 copy">
        <g id="Back_two_walls_copy" data-name="Back two walls copy">
          <rect class="cls-33" x="1132.36" y="545.46" width="912.92" height="261.08"/>
        </g>
        <g id="Windows_copy" data-name="Windows copy">
          <g id="Left_copy" data-name="Left copy">
            <path class="cls-46" d="M1322.51,744.93l24.82-.27s5.67-43.88-11.93-43.88-12.89,44.16-12.89,44.16Z"/>
            <path class="cls-46" d="M1270.21,744.93l24.82-.27s5.67-43.88-11.93-43.88-12.89,44.16-12.89,44.16Z"/>
            <path class="cls-46" d="M1220.28,744.93l24.82-.27s5.67-43.88-11.93-43.88-12.89,44.16-12.89,44.16Z"/>
            <path class="cls-46" d="M1172.36,744.93l24.82-.27s5.67-43.88-11.93-43.88-12.89,44.16-12.89,44.16Z"/>
            <rect class="cls-46" x="1322.59" y="592.87" width="24.96" height="71.32"/>
            <rect class="cls-46" x="1172.81" y="592.87" width="24.96" height="71.32"/>
            <rect class="cls-46" x="1270.28" y="592.87" width="24.96" height="71.32"/>
            <rect class="cls-46" x="1220.36" y="592.87" width="24.96" height="71.32"/>
            <path class="cls-46" d="M1322.51,744.93l24.82-.27s5.67-43.88-11.93-43.88-12.89,44.16-12.89,44.16Z"/>
            <path class="cls-46" d="M1270.21,744.93l24.82-.27s5.67-43.88-11.93-43.88-12.89,44.16-12.89,44.16Z"/>
            <path class="cls-46" d="M1220.28,744.93l24.82-.27s5.67-43.88-11.93-43.88-12.89,44.16-12.89,44.16Z"/>
            <path class="cls-46" d="M1172.36,744.93l24.82-.27s5.67-43.88-11.93-43.88-12.89,44.16-12.89,44.16Z"/>
            <rect class="cls-46" x="1322.59" y="592.87" width="24.96" height="71.32"/>
            <rect class="cls-46" x="1172.81" y="592.87" width="24.96" height="71.32"/>
            <rect class="cls-46" x="1270.28" y="592.87" width="24.96" height="71.32"/>
            <rect class="cls-46" x="1220.36" y="592.87" width="24.96" height="71.32"/>
          </g>
          <g id="Right_copy" data-name="Right copy">
            <path class="cls-46" d="M1982.31,745.81l24.82-.27s5.67-43.88-11.93-43.88-12.89,44.16-12.89,44.16Z"/>
            <path class="cls-46" d="M1930.01,745.81l24.82-.27s5.67-43.88-11.93-43.88-12.89,44.16-12.89,44.16Z"/>
            <path class="cls-46" d="M1880.08,745.81l24.82-.27s5.67-43.88-11.93-43.88-12.89,44.16-12.89,44.16Z"/>
            <path class="cls-46" d="M1832.16,745.81l24.82-.27s5.67-43.88-11.93-43.88-12.89,44.16-12.89,44.16Z"/>
            <rect class="cls-46" x="1982.39" y="593.75" width="24.96" height="71.32"/>
            <rect class="cls-46" x="1832.61" y="593.75" width="24.96" height="71.32"/>
            <rect class="cls-46" x="1880.16" y="593.75" width="24.96" height="71.32"/>
            <rect class="cls-46" x="1930.09" y="593.75" width="24.96" height="71.32"/>
          </g>
        </g>
      </g>
      <g id="Layer_16_copy" data-name="Layer 16 copy">
        <rect class="cls-48" x="1387.75" y="484.11" width="394.65" height="305.22"/>
      </g>
      <g id="Layer_17_copy" data-name="Layer 17 copy">
        <path class="cls-62" d="M1604.44,580.12c-1.11-4.11-3.97-7.71-7.7-9.76-8.51-4.21-16.98-1.85-20.27,7.47-2.27,5.35-1.37,12.13,2.67,16.4.9.99,2.18,1.8,3.52,2.2.83,1.04,1.8,1.94,2.9,2.63,5.17,3.06,11.81.88,15.53-3.46,3.92-4.11,4.65-10.13,3.35-15.47Z"/>
        <path class="cls-62" d="M1706.27,565.54c-1.63-1.09-4.05-1.12-5.54.22-.61.41-1.06.96-1.36,1.58-2.66-.43-5.72,1.34-5.68,4.63-.34,8.84-.7,17.68-.4,26.52.34,5.42-.45,11.28,2.36,16.17,2.27,4.02,7.47,5.01,10.65,1.43,4.48-5.55,4.66-13.2,5.36-20,.3-7.49,1.19-26.09-5.4-30.56Z"/>
        <path class="cls-62" d="M1700.42,665.49c-.32.2-.59.41-.84.64-2.77-1.65-7.19-.33-7.31,4,.2,13.74-.5,28.26,4.93,41.15,1.49,2.45,4.9,3.48,7.41,2,5.27-3.61,5.18-14.6,5.77-20.52.26-5.99.76-32.32-9.96-27.27Z"/>
        <path class="cls-62" d="M1476.92,569.91c-.6-1.77-2.51-2.93-4.35-2.92-1.76.08-2.88.72-3.6,1.68-2.44-.8-5.54.38-6.21,3.18-1.36,9.85-1.38,19.93.11,29.77.43,2.96,1.02,5.9,1.78,8.79.42,1.27.43,2.77,1.39,3.78,1.85,2.71,6.27,2.34,7.84-.48,1.08-1.91.5-4.21.81-6.31.27-4.23.48-8.46.74-12.69.31-5.41.82-10.8,1.35-16.2,0-2.7,1.1-6.11.14-8.61Z"/>
        <path class="cls-62" d="M1476.92,670.97c-.6-1.77-2.51-2.93-4.35-2.92-1.76.08-2.88.72-3.6,1.68-2.44-.8-5.54.38-6.21,3.18-1.36,9.85-1.38,19.93.11,29.77.43,2.96,1.02,5.9,1.78,8.79.42,1.27.43,2.77,1.39,3.78,1.85,2.71,6.27,2.34,7.84-.48,1.08-1.91.5-4.21.81-6.31.27-4.23.48-8.46.74-12.69.31-5.41.82-10.8,1.35-16.2,0-2.7,1.1-6.11.14-8.61Z"/>
        <path class="cls-62" d="M1604.83,680.19c.66-4.04.17-8.18-.03-12.25-.52-6.83-1.93-13.84-5.72-19.65-.43-.67-.92-1.25-1.45-1.75-.18-.41-.34-.82-.54-1.23-2.52-6.17-11.81-11.72-16.44-4.59-.18.35-.32.71-.44,1.07-1.06.01-2.16.34-3.27,1.08-2.51.77-4.35,3.15-5.21,5.6-.42,1.9-.54,3.87-.45,5.81,0,.1.02.2.03.3-.07.37-.09.76-.13,1.13-.37.79-.71,1.58-1.03,2.39-9.12,22.53-3.56,47.31-2.54,70.78.14,2,.29,4,.44,5.99-.33,5.66-.6,11.32-.78,16.99.06,4.64-.73,9.55.45,14.05,1.08,2.81,4.09,3.42,6.36,2.4,1.01.64,2.28.89,3.77.51.92-.22,1.65-.77,2.27-1.43,1.01.14,2.04.04,3.08-.38,2.3-.5,2.88-1.31,3.31-1.26.1-.03.2-.04.3-.07.54-.01,1.72-.11,2.31-.23.74-.13,1.44-.39,2.13-.68,1.28,3.54,6.64,3.8,8.43.52,1.23-2.91.93-7.1,1.48-10.31.36-3.48.71-6.96,1.03-10.45,1.47-15.85,2.3-31.76,2.59-47.68.09-5.32.08-10.64-.21-15.95.09-.24.19-.47.25-.72Z"/>
      </g>
      <g id="Layer_18_copy" data-name="Layer 18 copy">
        <path class="cls-63" d="M1598.71,642.38c.03-.09.08-.17.1-.27,1.39-8.1-10.53-7.29-14.97-4.13-5.07,3.66-7.91,8.7-9.52,14.38-11.11,20.91-9.07,51.57-8.11,74.23.71,15.28,1.05,30.58,1.62,45.86.1,2.34,0,5.18,2.15,6.66,2.63,2.26,6.84.59,7.63-2.64,1.62-10.98,1.31-22.15,1.67-33.22.47-17.49,1.02-34.98,1.73-52.46.29-7.48.5-14.97.81-22.45.31-5.4.47-9.08,1.33-12.47,2.26-3.89,4.87-6.43,7.58-7.16.35-.13.71-.21,1.07-.29.13,0,.26-.01.39-.01,1.07.48,2.26.69,3.41.35,2.86-.68,4.04-3.92,3.12-6.38Z"/>
        <path class="cls-63" d="M1603.96,566.87c-1.61-1.48-3.93-1.82-5.99-2.32-2.57-.49-5.2-.65-7.79-.17-7.47,1.21-13.06,7.7-15.55,14.53-2.01,6.49-1.78,13.84.75,20.15,3.02,5.73,11.44,1.18,8.36-4.5-1.94-6.34-1.42-16.35,6.33-20.34,1.52-.54,3.35-1.31,8.4.28,4.79,2.3,9.2-3.82,5.47-7.64Z"/>
        <path class="cls-63" d="M1710.47,566.94c-1.27-1.34-3.18-1.48-4.91-1.7-3.25-.33-6.59.83-8.95,3.08-3.22,3.1-3.91,7.7-4.44,11.94-.59,4.58-.79,9.21-.78,13.82.22,6.83-.19,13.91,1.16,20.59,1.82,4.76,9.16,3.25,9.1-1.83-1.05-13.11-1.4-31.93,1.4-37.5.1-.11.2-.2.28-.29.13-.08.25-.16.39-.23.14-.04.3-.09.47-.13.11,0,.26,0,.43-.01.18.01.32.02.44.03.89.2,1.78.51,2.69.27,3.82-.25,5.47-5.46,2.73-8.03Z"/>
        <path class="cls-63" d="M1713.38,667.45c-1.49-2.26-4.48-3.11-6.97-3.74-4.49-.88-9.59.72-12.19,4.61-2.71,4.35-2.66,9.75-2.96,14.71-.12,7.88-.51,15.77-.28,23.65.07,2.1.17,4.2.3,6.3.03,1.58.25,3.25,1.47,4.38,2.79,2.98,8.25.74,8.12-3.36-.68-8.61-.41-17.25-.2-25.88.18-7.25.15-12.16,1.58-14.64.15-.09.29-.19.44-.27.28-.09.57-.17.87-.23.11,0,.24,0,.4-.01.15,0,.27.01.37.02.56.11,1.11.28,1.64.48.28.13.62.31.92.49,1.09.64,2.44.82,3.66.48,2.95-.74,4.4-4.39,2.84-6.98Z"/>
        <path class="cls-63" d="M1475.98,567.02c-3.53-1.82-9.29.83-11.7,3.63-3.67,4.23-3.1,10.3-3.34,15.55,0,5.55.08,11.11-.16,16.66-.07,2.95-.25,5.91-.02,8.85.15,1.19.19,2.51,1.09,3.41,2.9,4.02,9.26.98,8.41-3.67-.02-.18-.04-.36-.05-.55-.18-5.05.26-10.09.24-15.13,0-6.92-.18-16.18.8-18.68.1-.11.25-.27.45-.45.16-.1.36-.22.58-.34.26-.09.66-.22,1.07-.31.32-.07.54-.11.71-.15.47-.04.93-.14,1.36-.37.59-.19,1.1-.52,1.53-.98,2.2-2.09,1.66-5.98-.96-7.47Z"/>
        <path class="cls-63" d="M1477.45,669.54c-1.98-1.87-4.94-1.54-7.47-1.53-4.41.1-9.23,2.5-10.08,7.18-.77,5.72-.84,11.52-.84,17.29-.01,6.8.7,13.6.28,20.4-.02.21-.04.42-.07.64-.02.12-.05.26-.09.44-.27.8-.48,1.64-.26,2.47.5,5.06,7.97,5.53,9.25.63,1.53-6.46.52-13.22.49-19.8-.21-5.62-.06-16.04.47-19.56.17-.05.35-.1.54-.14.5-.04,1.51-.12,2.06-.07,1.39-.04,2.89.51,4.18-.24,3.1-1.05,3.87-5.51,1.53-7.71Z"/>
      </g>
      <g id="Layer_19_copy" data-name="Layer 19 copy">
        <circle class="cls-30" cx="1589.74" cy="584.33" r="18.42"/>
        <rect class="cls-7" x="1693.16" y="566.71" width="17.83" height="48.74"/>
        <rect class="cls-7" x="1693.16" y="665.23" width="17.83" height="48.74"/>
        <rect class="cls-7" x="1460.56" y="668.21" width="17.83" height="48.74"/>
        <rect class="cls-7" x="1460.56" y="566.71" width="17.83" height="48.74"/>
        <path class="cls-7" d="M1566.69,773.23l37.41.68s.33-87.7.33-116.09c-3.78-14.51-11.1-20.85-18.43-20.91-6.42,0-12.51,5.8-18.65,22.97l-.65,113.35Z"/>
      </g>
      <g id="Layer_13_copy" data-name="Layer 13 copy">
        <g id="Layer_6_copy" data-name="Layer 6 copy">
          <polygon class="cls-11" points="1258.05 436.05 1149.52 532.17 1364.47 532.17 1258.05 436.05"/>
          <polygon class="cls-11" points="1921.69 436.05 1813.16 532.17 2028.11 532.17 1921.69 436.05"/>
        </g>
        <g id="Layer_5_copy" data-name="Layer 5 copy">
          <rect class="cls-17" x="1762.97" y="795.26" width="308.45" height="28.53"/>
          <rect class="cls-17" x="1106.21" y="795.26" width="308.45" height="28.53"/>
          <rect class="cls-17" x="1106.21" y="528.23" width="308.45" height="28.53"/>
          <rect class="cls-17" x="1762.97" y="534.17" width="308.45" height="28.53"/>
        </g>
      </g>
      <polygon class="cls-52" points="1587.35 315.31 1403.69 484.11 1767.44 484.11 1587.35 315.31"/>
      <g id="Column_copy" data-name="Column copy">
        <g id="Layer_15_copy" data-name="Layer 15 copy">
          <rect class="cls-29" x="1389.44" y="518.6" width="38.04" height="239.2"/>
        </g>
        <g>
          <path class="cls-60" d="M1443.84,502.45c-6.48-5.94-28.84-3.48-37.94-3.28-6.63.41-13.24,1.04-19.83,1.91-2.52.34-5.35.59-7.67,1.74-2.89-2.22-7.71,0-7.58,3.85.67,6.06.96,12.47,4.36,17.75,7.89,11.59,23.58,10.05,35.91,9.82,5.56-.22,11.13-.49,16.67-1.16,4.53-.39,9.16-1.73,12.22-5.29,3.77-4.16,5.37-9.78,5.88-15.27.37-3.42.58-7.43-2.02-10.07Z"/>
          <path class="cls-69" d="M1433.27,521.07c-.13.14-.27.3-.45.47-.21.21-.41.39-.57.53-3.32,2.16-9.36,1.88-17.71,2.52-13.65.65-25.47.83-29.82-3.53-.48-.42-.9-.9-1.3-1.4-.11-.16-.23-.35-.36-.57-.3-.49-.54-1.01-.78-1.54.14.32.09.23-.02-.05-.09-.21-.19-.43-.28-.64.13.28.22.48.28.63-.11-.27-.27-.7-.4-1.12-.55-2.11-.78-3.2-.92-4.12.67-.24,1.29-.65,1.93-1.01,4.06-1.03,2.55-.45,7.05-1.13,13.45-1.5,27.02-2.36,40.55-1.89,3.63.39,2.97-.04,6.07.95-.11,4-.07,2.95-.79,6.48-1.19,3.61-.39,2.21-2.48,5.4Z"/>
        </g>
        <g>
          <path class="cls-60" d="M1372.45,771.51c6.2,6.24,28.65,4.82,37.74,5.04,6.64-.1,13.28-.42,19.89-.99,2.53-.22,5.37-.34,7.74-1.38,2.79,2.35,7.71.36,7.75-3.49-.39-6.09-.38-12.5-3.53-17.94-7.34-11.95-23.08-11.14-35.41-11.48-5.57-.04-11.15-.03-16.7.38-4.55.18-9.23,1.3-12.46,4.71-3.96,3.98-5.82,9.52-6.58,14.98-.53,3.4-.92,7.4,1.55,10.16Z"/>
          <path class="cls-69" d="M1383.88,753.41c.13-.13.29-.28.47-.45.22-.2.43-.37.59-.51,3.41-2.01,9.44-1.44,17.81-1.69,13.67-.02,25.48.36,29.63,4.91.46.44.86.94,1.24,1.45.1.16.21.36.33.59.27.51.5,1.04.7,1.57-.12-.33-.08-.23.02.06.08.22.17.43.25.65-.11-.29-.19-.49-.25-.64.1.27.24.71.35,1.14.45,2.14.63,3.23.72,4.16-.68.21-1.32.59-1.97.92-4.1.84-2.57.33-7.1.8-13.5.87-27.1,1.1-40.59,0-3.61-.56-2.97-.1-6.02-1.24.29-3.99.21-2.95,1.09-6.44,1.36-3.55.49-2.19,2.73-5.28Z"/>
        </g>
        <rect class="cls-29" x="1511.47" y="519.27" width="38.04" height="239.2"/>
        <g>
          <path class="cls-60" d="M1565.87,503.13c-6.48-5.94-28.84-3.48-37.94-3.28-6.63.41-13.24,1.04-19.83,1.91-2.52.34-5.35.59-7.67,1.74-2.89-2.22-7.71,0-7.58,3.85.67,6.06.96,12.47,4.36,17.75,7.89,11.59,23.58,10.05,35.91,9.82,5.56-.22,11.13-.49,16.67-1.16,4.53-.39,9.16-1.73,12.22-5.29,3.77-4.16,5.37-9.78,5.88-15.27.37-3.42.58-7.43-2.02-10.07Z"/>
          <path class="cls-69" d="M1555.31,521.74c-.13.14-.27.3-.45.47-.21.21-.41.39-.57.53-3.32,2.16-9.36,1.88-17.71,2.52-13.65.65-25.47.83-29.82-3.53-.48-.42-.9-.9-1.3-1.4-.11-.16-.23-.35-.36-.57-.3-.49-.54-1.01-.78-1.54.14.32.09.23-.02-.05-.09-.21-.19-.43-.28-.64.13.28.22.48.28.63-.11-.27-.27-.7-.4-1.12-.55-2.11-.78-3.2-.92-4.12.67-.24,1.29-.65,1.93-1.01,4.06-1.03,2.55-.45,7.05-1.13,13.45-1.5,27.02-2.36,40.55-1.89,3.63.39,2.97-.04,6.07.95-.11,4-.07,2.95-.79,6.48-1.19,3.61-.39,2.21-2.48,5.4Z"/>
        </g>
        <g>
          <path class="cls-60" d="M1494.49,772.18c6.2,6.24,28.65,4.82,37.74,5.04,6.64-.1,13.28-.42,19.89-.99,2.53-.22,5.37-.34,7.74-1.38,2.79,2.35,7.71.36,7.75-3.49-.39-6.09-.38-12.5-3.53-17.94-7.34-11.95-23.08-11.14-35.41-11.48-5.57-.04-11.15-.03-16.7.38-4.55.18-9.23,1.3-12.46,4.71-3.96,3.98-5.82,9.52-6.58,14.98-.53,3.4-.92,7.4,1.55,10.16Z"/>
          <path class="cls-69" d="M1505.91,754.08c.13-.13.29-.28.47-.45.22-.2.43-.37.59-.51,3.41-2.01,9.44-1.44,17.81-1.69,13.67-.02,25.48.36,29.63,4.91.46.44.86.94,1.24,1.45.1.16.21.36.33.59.27.51.5,1.04.7,1.57-.12-.33-.08-.23.02.06.08.22.17.43.25.65-.11-.29-.19-.49-.25-.64.1.27.24.71.35,1.14.45,2.14.63,3.23.72,4.16-.68.21-1.32.59-1.97.92-4.1.84-2.57.33-7.1.8-13.5.87-27.1,1.1-40.59,0-3.61-.56-2.97-.1-6.02-1.24.29-3.99.21-2.95,1.09-6.44,1.36-3.55.49-2.19,2.73-5.28Z"/>
        </g>
        <rect class="cls-29" x="1626.77" y="519.27" width="38.04" height="239.2"/>
        <g>
          <path class="cls-60" d="M1681.18,503.13c-6.48-5.94-28.84-3.48-37.94-3.28-6.63.41-13.24,1.04-19.83,1.91-2.52.34-5.35.59-7.67,1.74-2.89-2.22-7.71,0-7.58,3.85.67,6.06.96,12.47,4.36,17.75,7.89,11.59,23.58,10.05,35.91,9.82,5.56-.22,11.13-.49,16.67-1.16,4.53-.39,9.16-1.73,12.22-5.29,3.77-4.16,5.37-9.78,5.88-15.27.37-3.42.58-7.43-2.02-10.07Z"/>
          <path class="cls-69" d="M1670.61,521.74c-.13.14-.27.3-.45.47-.21.21-.41.39-.57.53-3.32,2.16-9.36,1.88-17.71,2.52-13.65.65-25.47.83-29.82-3.53-.48-.42-.9-.9-1.3-1.4-.11-.16-.23-.35-.36-.57-.3-.49-.54-1.01-.78-1.54.14.32.09.23-.02-.05-.09-.21-.19-.43-.28-.64.13.28.22.48.28.63-.11-.27-.27-.7-.4-1.12-.55-2.11-.78-3.2-.92-4.12.67-.24,1.29-.65,1.93-1.01,4.06-1.03,2.55-.45,7.05-1.13,13.45-1.5,27.02-2.36,40.55-1.89,3.63.39,2.97-.04,6.07.95-.11,4-.07,2.95-.79,6.48-1.19,3.61-.39,2.21-2.48,5.4Z"/>
        </g>
        <g>
          <path class="cls-60" d="M1609.79,772.18c6.2,6.24,28.65,4.82,37.74,5.04,6.64-.1,13.28-.42,19.89-.99,2.53-.22,5.37-.34,7.74-1.38,2.79,2.35,7.71.36,7.75-3.49-.39-6.09-.38-12.5-3.53-17.94-7.34-11.95-23.08-11.14-35.41-11.48-5.57-.04-11.15-.03-16.7.38-4.55.18-9.23,1.3-12.46,4.71-3.96,3.98-5.82,9.52-6.58,14.98-.53,3.4-.92,7.4,1.55,10.16Z"/>
          <path class="cls-69" d="M1621.21,754.08c.13-.13.29-.28.47-.45.22-.2.43-.37.59-.51,3.41-2.01,9.44-1.44,17.81-1.69,13.67-.02,25.48.36,29.63,4.91.46.44.86.94,1.24,1.45.1.16.21.36.33.59.27.51.5,1.04.7,1.57-.12-.33-.08-.23.02.06.08.22.17.43.25.65-.11-.29-.19-.49-.25-.64.1.27.24.71.35,1.14.45,2.14.63,3.23.72,4.16-.68.21-1.32.59-1.97.92-4.1.84-2.57.33-7.1.8-13.5.87-27.1,1.1-40.59,0-3.61-.56-2.97-.1-6.02-1.24.29-3.99.21-2.95,1.09-6.44,1.36-3.55.49-2.19,2.73-5.28Z"/>
        </g>
        <rect class="cls-29" x="1742.75" y="519.27" width="38.04" height="239.2"/>
        <g>
          <path class="cls-60" d="M1797.16,503.13c-6.48-5.94-28.84-3.48-37.94-3.28-6.63.41-13.24,1.04-19.83,1.91-2.52.34-5.35.59-7.67,1.74-2.89-2.22-7.71,0-7.58,3.85.67,6.06.96,12.47,4.36,17.75,7.89,11.59,23.58,10.05,35.91,9.82,5.56-.22,11.13-.49,16.67-1.16,4.53-.39,9.16-1.73,12.22-5.29,3.77-4.16,5.37-9.78,5.88-15.27.37-3.42.58-7.43-2.02-10.07Z"/>
          <path class="cls-69" d="M1786.59,521.74c-.13.14-.27.3-.45.47-.21.21-.41.39-.57.53-3.32,2.16-9.36,1.88-17.71,2.52-13.65.65-25.47.83-29.82-3.53-.48-.42-.9-.9-1.3-1.4-.11-.16-.23-.35-.36-.57-.3-.49-.54-1.01-.78-1.54.14.32.09.23-.02-.05-.09-.21-.19-.43-.28-.64.13.28.22.48.28.63-.11-.27-.27-.7-.4-1.12-.55-2.11-.78-3.2-.92-4.12.67-.24,1.29-.65,1.93-1.01,4.06-1.03,2.55-.45,7.05-1.13,13.45-1.5,27.02-2.36,40.55-1.89,3.63.39,2.97-.04,6.07.95-.11,4-.07,2.95-.79,6.48-1.19,3.61-.39,2.21-2.48,5.4Z"/>
        </g>
        <g>
          <path class="cls-60" d="M1725.77,772.18c6.2,6.24,28.65,4.82,37.74,5.04,6.64-.1,13.28-.42,19.89-.99,2.53-.22,5.37-.34,7.74-1.38,2.79,2.35,7.71.36,7.75-3.49-.39-6.09-.38-12.5-3.53-17.94-7.34-11.95-23.08-11.14-35.41-11.48-5.57-.04-11.15-.03-16.7.38-4.55.18-9.23,1.3-12.46,4.71-3.96,3.98-5.82,9.52-6.58,14.98-.53,3.4-.92,7.4,1.55,10.16Z"/>
          <path class="cls-69" d="M1737.19,754.08c.13-.13.29-.28.47-.45.22-.2.43-.37.59-.51,3.41-2.01,9.44-1.44,17.81-1.69,13.67-.02,25.48.36,29.63,4.91.46.44.86.94,1.24,1.45.1.16.21.36.33.59.27.51.5,1.04.7,1.57-.12-.33-.08-.23.02.06.08.22.17.43.25.65-.11-.29-.19-.49-.25-.64.1.27.24.71.35,1.14.45,2.14.63,3.23.72,4.16-.68.21-1.32.59-1.97.92-4.1.84-2.57.33-7.1.8-13.5.87-27.1,1.1-40.59,0-3.61-.56-2.97-.1-6.02-1.24.29-3.99.21-2.95,1.09-6.44,1.36-3.55.49-2.19,2.73-5.28Z"/>
        </g>
      </g>
      <g id="Layer_12_copy" data-name="Layer 12 copy">
        <path class="cls-17" d="M1365.66,508.1v-24s162.05-5.35,216.06-5.35,223.75,5.35,223.75,5.35v24s-168.13-5.33-224.18-5.33-215.64,5.33-215.64,5.33Z"/>
        <path class="cls-15" d="M1810.05,763.75v27.22s-164.58,6.07-219.43,6.07-227.24-6.07-227.24-6.07v-27.22s170.76,6.05,227.68,6.05,219-6.05,219-6.05Z"/>
        <path class="cls-26" d="M1828.06,787.53v27.22s-178.69,6.07-238.25,6.07-246.73-6.07-246.73-6.07v-27.22s185.4,6.05,247.2,6.05,237.78-6.05,237.78-6.05Z"/>
        <path class="cls-56" d="M1847.63,816.06v27.22s-192.27,6.07-256.36,6.07-265.48-6.07-265.48-6.07v-27.22s199.49,6.05,265.99,6.05,255.85-6.05,255.85-6.05Z"/>
      </g>
      <g id="Flag_copy" data-name="Flag copy">
        <path class="cls-13" d="M1585.56,249.92l.67,65.4-.67-65.4Z"/>
        <polygon class="cls-23" points="1530.33 274.02 1586.23 253.26 1584.56 296.78 1530.33 274.02"/>
      </g>
    </g>
    <g id="Stars_copy" data-name="Stars copy">
      <path class="cls-68" d="M2006.53,406.64s3.02,24.75,17.92,30.4c-14.45,3.86-16.89,28.42-16.89,28.42,0,0-2.62-22.67-17.31-28,14.3-6.93,16.28-30.81,16.28-30.81Z"/>
      <path class="cls-68" d="M1444.44,330.77s4.23,27.01,25.08,33.18c-20.22,4.21-23.64,31.01-23.64,31.01,0,0-3.66-24.74-24.22-30.56,20.01-7.57,22.79-33.63,22.79-33.63Z"/>
      <path class="cls-68" d="M1941.39,812.01s4.36,30.63,25.83,37.62c-20.83,4.77-24.35,35.17-24.35,35.17,0,0-3.77-28.06-24.95-34.66,20.61-8.58,23.47-38.14,23.47-38.14Z"/>
      <path class="cls-68" d="M1699.07,249.92s5.68,35.04,33.63,43.03c-27.12,5.46-31.7,40.23-31.7,40.23,0,0-4.92-32.09-32.49-39.65,26.83-9.82,30.56-43.62,30.56-43.62Z"/>
      <path class="cls-68" d="M1265.66,819.85s5.1,24.04,30.23,29.52c-24.38,3.75-28.5,27.6-28.5,27.6,0,0-4.42-22.02-29.2-27.2,24.12-6.73,27.47-29.92,27.47-29.92Z"/>
      <path class="cls-68" d="M1310.53,235.88s2.84,19.01,16.82,23.35c-13.56,2.96-15.85,21.82-15.85,21.82,0,0-2.46-17.41-16.24-21.51,13.42-5.33,15.28-23.66,15.28-23.66Z"/>
    </g>
  </g>
  <g id="Phrase_house" data-name="Phrase house">
    <g id="Bg_copy_2" data-name="Bg copy 2">
      <path class="cls-67" d="M2050.11,1709.52c23.88-62.76,20.72-135.02-8.54-195.53-29.26-60.5-84.23-108.44-148.74-129.69-63.17-20.81-151.57-.33-206.97-36.75-55.81-36.7-88.58-81.56-153.58-97.3-62.91-15.23-122.82-18.16-173.67,24.68-50.85,42.84-90.98,76.62-112.7,138.98-21.72,62.35-12.44,103.69-42.11,162.78-26.26,52.31-64.26,102.5-65.6,160.84-1.53,66.79,45.23,124.06,89.45,174.7,33.93,38.86,55.73,66.13,107.75,65.94,43.07-.16,98.53-14.85,138.93-29.56,115.49-42.03,233.97,23.37,356.72,14,67.04-5.11,137.98-22.1,178.92-74.66,40.94-52.56,57.97-122.55,45.65-187.69"/>
    </g>
    <g id="Clouds_copy_2" data-name="Clouds copy 2">
      <path class="cls-66" d="M2048,1451.84c12.33-29.17-1.01-67.93-27.92-81.12-26.91-13.2-62.46,1.6-74.39,30.96-18.01-19.39-43.71-40.28-66.11-27.38-9.33,5.38-15.3,15.55-21.99,24.43-32.98,43.79-94.25,23.58-152.05,58.87,0,0,238.61-3.97,342.46-5.76Z"/>
      <path class="cls-66" d="M1269.16,1333.53c-12.05-33.42,22.45-67.06,48.75-82.17,26.3-15.12,60.89-7.21,72.55,26.42,17.6-22.22,34.4-29.74,58.61-20.38,23.9,9.24,33.18,35.75,127.14,72.08-126.88,0-205.57,6.09-307.05,4.04Z"/>
    </g>
    <g id="Building_copy_2" data-name="Building copy 2">
      <g id="Back2_copy_2" data-name="Back2 copy 2">
        <g id="Back_two_walls_copy_2" data-name="Back two walls copy 2">
          <rect class="cls-28" x="1131.15" y="1612.15" width="939.13" height="268.58"/>
        </g>
        <g id="Windows_copy_2" data-name="Windows copy 2">
          <g id="Left_copy_2" data-name="Left copy 2">
            <path class="cls-8" d="M1326.76,1817.34l25.53-.28s5.83-45.14-12.27-45.14-13.26,45.42-13.26,45.42Z"/>
            <path class="cls-8" d="M1272.96,1817.34l25.53-.28s5.83-45.14-12.27-45.14-13.26,45.42-13.26,45.42Z"/>
            <path class="cls-8" d="M1221.6,1817.34l25.53-.28s5.83-45.14-12.27-45.14-13.26,45.42-13.26,45.42Z"/>
            <path class="cls-8" d="M1172.3,1817.34l25.53-.28s5.83-45.14-12.27-45.14-13.26,45.42-13.26,45.42Z"/>
            <rect class="cls-8" x="1326.85" y="1660.92" width="25.68" height="73.37"/>
            <rect class="cls-8" x="1172.77" y="1660.92" width="25.68" height="73.37"/>
            <rect class="cls-8" x="1273.04" y="1660.92" width="25.68" height="73.37"/>
            <rect class="cls-8" x="1221.68" y="1660.92" width="25.68" height="73.37"/>
            <path class="cls-8" d="M1326.76,1817.34l25.53-.28s5.83-45.14-12.27-45.14-13.26,45.42-13.26,45.42Z"/>
            <path class="cls-8" d="M1272.96,1817.34l25.53-.28s5.83-45.14-12.27-45.14-13.26,45.42-13.26,45.42Z"/>
            <path class="cls-8" d="M1221.6,1817.34l25.53-.28s5.83-45.14-12.27-45.14-13.26,45.42-13.26,45.42Z"/>
            <path class="cls-8" d="M1172.3,1817.34l25.53-.28s5.83-45.14-12.27-45.14-13.26,45.42-13.26,45.42Z"/>
            <rect class="cls-8" x="1326.85" y="1660.92" width="25.68" height="73.37"/>
            <rect class="cls-8" x="1172.77" y="1660.92" width="25.68" height="73.37"/>
            <rect class="cls-8" x="1273.04" y="1660.92" width="25.68" height="73.37"/>
            <rect class="cls-8" x="1221.68" y="1660.92" width="25.68" height="73.37"/>
          </g>
          <g id="Right_copy_2" data-name="Right copy 2">
            <path class="cls-8" d="M2005.51,1818.25l25.53-.28s5.83-45.14-12.27-45.14-13.26,45.42-13.26,45.42Z"/>
            <path class="cls-8" d="M1951.71,1818.25l25.53-.28s5.83-45.14-12.27-45.14-13.26,45.42-13.26,45.42Z"/>
            <path class="cls-8" d="M1900.35,1818.25l25.53-.28s5.83-45.14-12.27-45.14-13.26,45.42-13.26,45.42Z"/>
            <path class="cls-8" d="M1851.05,1818.25l25.53-.28s5.83-45.14-12.27-45.14-13.26,45.42-13.26,45.42Z"/>
            <rect class="cls-8" x="2005.59" y="1661.82" width="25.68" height="73.37"/>
            <rect class="cls-8" x="1851.52" y="1661.82" width="25.68" height="73.37"/>
            <rect class="cls-8" x="1900.43" y="1661.82" width="25.68" height="73.37"/>
            <rect class="cls-8" x="1951.79" y="1661.82" width="25.68" height="73.37"/>
          </g>
        </g>
      </g>
      <g id="Layer_16_copy_2" data-name="Layer 16 copy 2">
        <rect class="cls-37" x="1393.88" y="1549.03" width="405.98" height="313.99"/>
      </g>
      <g id="Layer_17_copy_2" data-name="Layer 17 copy 2">
        <path class="cls-62" d="M1616.79,1647.8c-1.14-4.22-4.09-7.93-7.92-10.04-8.76-4.33-17.47-1.9-20.85,7.68-2.34,5.5-1.4,12.47,2.74,16.87.93,1.02,2.24,1.85,3.62,2.26.85,1.07,1.85,2,2.98,2.7,5.32,3.15,12.15.9,15.97-3.56,4.03-4.22,4.78-10.42,3.45-15.92Z"/>
        <path class="cls-62" d="M1721.54,1632.81c-1.67-1.12-4.16-1.15-5.7.23-.63.42-1.09.99-1.4,1.63-2.73-.45-5.88,1.38-5.84,4.76-.35,9.09-.72,18.18-.41,27.28.35,5.57-.46,11.6,2.42,16.64,2.34,4.13,7.69,5.16,10.96,1.47,4.61-5.7,4.8-13.58,5.52-20.58.31-7.71,1.23-26.84-5.55-31.44Z"/>
        <path class="cls-62" d="M1715.53,1735.63c-.33.2-.61.42-.86.65-2.85-1.7-7.4-.33-7.52,4.12.2,14.13-.52,29.07,5.07,42.34,1.53,2.52,5.04,3.58,7.63,2.06,5.43-3.72,5.33-15.02,5.94-21.11.26-6.17.78-33.25-10.25-28.05Z"/>
        <path class="cls-62" d="M1485.61,1637.3c-.61-1.82-2.59-3.02-4.47-3.01-1.81.08-2.96.74-3.71,1.73-2.51-.83-5.7.39-6.39,3.27-1.39,10.13-1.41,20.5.11,30.62.45,3.05,1.05,6.07,1.83,9.05.43,1.31.45,2.85,1.43,3.89,1.9,2.78,6.45,2.41,8.06-.5,1.11-1.96.52-4.34.83-6.49.27-4.35.5-8.7.77-13.05.32-5.57.85-11.11,1.38-16.66,0-2.78,1.13-6.28.14-8.85Z"/>
        <path class="cls-62" d="M1485.61,1741.27c-.61-1.82-2.59-3.02-4.47-3.01-1.81.08-2.96.74-3.71,1.73-2.51-.83-5.7.39-6.39,3.27-1.39,10.13-1.41,20.5.11,30.62.45,3.05,1.05,6.07,1.83,9.05.43,1.31.45,2.85,1.43,3.89,1.9,2.78,6.45,2.41,8.06-.5,1.11-1.96.52-4.34.83-6.49.27-4.35.5-8.7.77-13.05.32-5.57.85-11.11,1.38-16.66,0-2.78,1.13-6.28.14-8.85Z"/>
        <path class="cls-62" d="M1617.19,1750.75c.67-4.16.18-8.42-.03-12.6-.54-7.02-1.98-14.24-5.88-20.21-.44-.69-.94-1.28-1.49-1.8-.18-.42-.35-.85-.55-1.26-2.59-6.35-12.15-12.05-16.91-4.72-.18.36-.33.73-.46,1.1-1.09.01-2.22.35-3.37,1.11-2.58.8-4.47,3.24-5.36,5.76-.43,1.95-.56,3.98-.46,5.97.01.1.02.21.03.31-.07.38-.1.78-.14,1.17-.38.81-.73,1.63-1.06,2.46-9.38,23.17-3.67,48.67-2.61,72.81.14,2.06.3,4.11.45,6.17-.34,5.82-.62,11.65-.81,17.48.06,4.77-.76,9.82.46,14.46,1.11,2.89,4.21,3.52,6.54,2.47,1.04.66,2.35.92,3.88.52.95-.23,1.69-.79,2.33-1.47,1.04.14,2.1.04,3.17-.39,2.37-.51,2.96-1.35,3.41-1.3.1-.03.21-.04.31-.07.55-.01,1.77-.11,2.38-.23.76-.13,1.48-.4,2.2-.7,1.32,3.64,6.83,3.91,8.67.53,1.26-2.99.95-7.31,1.53-10.6.37-3.58.73-7.16,1.06-10.75,1.51-16.31,2.37-32.68,2.66-49.05.09-5.47.08-10.95-.21-16.41.1-.24.2-.48.26-.74Z"/>
      </g>
      <g id="Layer_18_copy_2" data-name="Layer 18 copy 2">
        <path class="cls-63" d="M1610.9,1711.85c.03-.09.08-.18.1-.28,1.43-8.34-10.83-7.5-15.4-4.25-5.21,3.76-8.13,8.95-9.79,14.79-11.43,21.51-9.34,53.05-8.34,76.36.73,15.72,1.08,31.46,1.67,47.18.1,2.41,0,5.33,2.21,6.85,2.7,2.32,7.04.61,7.85-2.71,1.67-11.3,1.35-22.79,1.72-34.18.48-17.99,1.05-35.98,1.78-53.97.3-7.7.51-15.4.83-23.1.32-5.55.48-9.34,1.37-12.83,2.33-4,5.01-6.62,7.8-7.37.36-.13.73-.22,1.1-.29.13,0,.26-.01.4-.01,1.1.5,2.32.71,3.51.36,2.94-.7,4.16-4.03,3.21-6.57Z"/>
        <path class="cls-63" d="M1616.3,1634.17c-1.65-1.52-4.05-1.87-6.16-2.38-2.65-.5-5.35-.67-8.01-.18-7.68,1.24-13.44,7.92-15.99,14.95-2.06,6.68-1.83,14.24.78,20.73,3.1,5.9,11.77,1.22,8.6-4.63-1.99-6.53-1.47-16.82,6.52-20.92,1.57-.55,3.45-1.35,8.64.29,4.93,2.36,9.46-3.93,5.63-7.86Z"/>
        <path class="cls-63" d="M1725.87,1634.25c-1.31-1.37-3.28-1.52-5.05-1.75-3.35-.33-6.78.85-9.21,3.17-3.31,3.18-4.02,7.92-4.57,12.28-.6,4.71-.81,9.47-.81,14.22.23,7.02-.19,14.31,1.19,21.18,1.87,4.89,9.42,3.34,9.36-1.88-1.08-13.49-1.44-32.85,1.44-38.58.11-.11.2-.21.29-.29.13-.08.26-.16.4-.23.14-.04.3-.09.48-.13.12,0,.26,0,.44-.01.19.01.33.02.45.03.92.21,1.83.53,2.77.27,3.93-.26,5.63-5.61,2.81-8.26Z"/>
        <path class="cls-63" d="M1728.86,1737.64c-1.53-2.33-4.61-3.19-7.17-3.84-4.62-.91-9.87.74-12.54,4.74-2.79,4.48-2.74,10.03-3.05,15.14-.13,8.11-.53,16.22-.29,24.33.07,2.16.17,4.33.3,6.49.03,1.62.26,3.34,1.51,4.5,2.87,3.07,8.49.76,8.35-3.46-.7-8.86-.42-17.75-.21-26.62.19-7.45.15-12.51,1.63-15.06.15-.09.3-.2.46-.28.29-.1.59-.18.89-.24.12,0,.25,0,.41-.01.15,0,.27.01.38.02.57.12,1.14.28,1.68.5.29.14.64.32.94.5,1.12.66,2.51.84,3.77.49,3.03-.76,4.52-4.52,2.92-7.19Z"/>
        <path class="cls-63" d="M1484.64,1634.33c-3.63-1.87-9.55.85-12.04,3.73-3.78,4.35-3.19,10.6-3.44,15.99,0,5.71.08,11.43-.17,17.13-.07,3.03-.26,6.08-.02,9.11.15,1.23.19,2.59,1.12,3.51,2.99,4.13,9.53,1.01,8.65-3.77-.02-.19-.04-.37-.05-.56-.19-5.19.27-10.38.25-15.57,0-7.12-.18-16.65.82-19.22.1-.11.26-.27.47-.46.17-.1.37-.23.6-.35.27-.09.68-.23,1.1-.32.32-.07.55-.12.73-.15.49-.04.96-.15,1.39-.38.61-.2,1.13-.53,1.57-1.01,2.26-2.15,1.71-6.15-.99-7.68Z"/>
        <path class="cls-63" d="M1486.15,1739.8c-2.03-1.93-5.09-1.58-7.68-1.57-4.53.1-9.49,2.57-10.36,7.38-.79,5.89-.86,11.85-.86,17.78-.01,6.99.72,13.99.28,20.98-.02.22-.05.44-.07.66-.02.12-.05.27-.09.45-.28.82-.49,1.69-.27,2.54.51,5.2,8.19,5.69,9.52.65,1.58-6.65.54-13.6.51-20.37-.22-5.78-.06-16.5.48-20.12.17-.05.36-.1.56-.14.52-.04,1.56-.12,2.12-.07,1.43-.04,2.97.52,4.3-.24,3.18-1.08,3.98-5.67,1.57-7.93Z"/>
      </g>
      <g id="Layer_19_copy_2" data-name="Layer 19 copy 2">
        <circle class="cls-40" cx="1601.67" cy="1652.14" r="18.95"/>
        <rect class="cls-47" x="1708.06" y="1634.01" width="18.34" height="50.14"/>
        <rect class="cls-47" x="1708.06" y="1735.36" width="18.34" height="50.14"/>
        <rect class="cls-47" x="1468.78" y="1738.42" width="18.34" height="50.14"/>
        <rect class="cls-47" x="1468.78" y="1634.01" width="18.34" height="50.14"/>
        <path class="cls-47" d="M1577.96,1846.46l38.48.69s.34-90.22.34-119.42c-3.89-14.92-11.42-21.44-18.96-21.51-6.61,0-12.87,5.96-19.19,23.63l-.67,116.61Z"/>
      </g>
      <g id="Layer_13_copy_2" data-name="Layer 13 copy 2">
        <g id="Layer_6_copy_2" data-name="Layer 6 copy 2">
          <polygon class="cls-9" points="1260.45 1499.6 1148.81 1598.47 1369.93 1598.47 1260.45 1499.6"/>
          <polygon class="cls-9" points="1943.15 1499.6 1831.51 1598.47 2052.63 1598.47 1943.15 1499.6"/>
        </g>
        <g id="Layer_5_copy_2" data-name="Layer 5 copy 2">
          <rect class="cls-50" x="1779.88" y="1869.12" width="317.31" height="29.35"/>
          <rect class="cls-50" x="1104.25" y="1869.12" width="317.31" height="29.35"/>
          <rect class="cls-50" x="1104.25" y="1594.42" width="317.31" height="29.35"/>
          <rect class="cls-50" x="1779.88" y="1600.54" width="317.31" height="29.35"/>
        </g>
      </g>
      <polygon class="cls-20" points="1599.21 1375.39 1410.28 1549.03 1784.47 1549.03 1599.21 1375.39"/>
      <g id="Column_copy_2" data-name="Column copy 2">
        <g id="Layer_15_copy_2" data-name="Layer 15 copy 2">
          <rect class="cls-24" x="1395.61" y="1584.51" width="39.13" height="246.06"/>
        </g>
        <g>
          <path class="cls-65" d="M1451.58,1567.91c-6.67-6.11-29.67-3.58-39.03-3.37-6.82.43-13.62,1.07-20.4,1.97-2.59.34-5.5.6-7.89,1.79-2.97-2.28-7.94,0-7.8,3.96.69,6.24.99,12.83,4.48,18.26,8.11,11.93,24.25,10.34,36.94,10.1,5.72-.23,11.45-.51,17.14-1.19,4.66-.4,9.42-1.78,12.58-5.44,3.87-4.28,5.52-10.06,6.04-15.71.38-3.52.59-7.65-2.08-10.36Z"/>
          <path class="cls-61" d="M1440.71,1587.05c-.13.14-.28.31-.46.49-.22.22-.42.4-.58.55-3.41,2.22-9.63,1.93-18.22,2.59-14.05.67-26.2.85-30.68-3.63-.5-.43-.93-.93-1.34-1.44-.11-.16-.23-.36-.37-.59-.31-.51-.56-1.04-.8-1.58.14.33.09.23-.02-.06-.1-.22-.2-.44-.29-.66.13.29.22.5.29.65-.11-.28-.28-.72-.41-1.15-.57-2.17-.8-3.29-.94-4.24.69-.25,1.33-.66,1.98-1.04,4.18-1.06,2.62-.46,7.25-1.16,13.83-1.54,27.79-2.43,41.71-1.95,3.74.4,3.06-.04,6.25.98-.11,4.12-.08,3.04-.81,6.67-1.23,3.71-.4,2.28-2.55,5.56Z"/>
        </g>
        <g>
          <path class="cls-65" d="M1378.14,1844.69c6.38,6.42,29.47,4.95,38.83,5.18,6.83-.11,13.66-.44,20.47-1.01,2.6-.22,5.53-.35,7.96-1.42,2.87,2.42,7.93.37,7.97-3.59-.4-6.26-.39-12.86-3.63-18.45-7.55-12.29-23.75-11.46-36.43-11.81-5.73-.04-11.47-.03-17.18.39-4.68.18-9.49,1.34-12.82,4.85-4.07,4.1-5.99,9.79-6.77,15.41-.54,3.5-.95,7.61,1.59,10.45Z"/>
          <path class="cls-61" d="M1389.89,1826.07c.14-.14.29-.29.49-.46.23-.21.44-.38.61-.52,3.51-2.06,9.71-1.48,18.32-1.74,14.06-.02,26.22.37,30.48,5.06.48.45.88.97,1.27,1.5.1.17.22.37.34.6.28.52.51,1.07.72,1.62-.13-.34-.08-.24.02.06.09.22.18.45.26.67-.12-.3-.2-.51-.26-.66.1.28.25.73.36,1.17.46,2.2.65,3.32.74,4.28-.7.22-1.36.6-2.03.94-4.22.86-2.64.34-7.3.82-13.89.9-27.88,1.13-41.76,0-3.72-.58-3.06-.1-6.2-1.27.3-4.11.22-3.03,1.12-6.62,1.4-3.65.5-2.26,2.81-5.43Z"/>
        </g>
        <rect class="cls-24" x="1521.15" y="1585.21" width="39.13" height="246.06"/>
        <g>
          <path class="cls-65" d="M1577.12,1568.6c-6.67-6.11-29.67-3.58-39.03-3.37-6.82.43-13.62,1.07-20.4,1.97-2.59.34-5.5.6-7.89,1.79-2.97-2.28-7.94,0-7.8,3.96.69,6.24.99,12.83,4.48,18.26,8.11,11.93,24.25,10.34,36.94,10.1,5.72-.23,11.45-.51,17.14-1.19,4.66-.4,9.42-1.78,12.58-5.44,3.87-4.28,5.52-10.06,6.04-15.71.38-3.52.59-7.65-2.08-10.36Z"/>
          <path class="cls-61" d="M1566.25,1587.75c-.13.14-.28.31-.46.49-.22.22-.42.4-.58.55-3.41,2.22-9.63,1.93-18.22,2.59-14.05.67-26.2.85-30.68-3.63-.5-.43-.93-.93-1.34-1.44-.11-.16-.23-.36-.37-.59-.31-.51-.56-1.04-.8-1.58.14.33.09.23-.02-.06-.1-.22-.2-.44-.29-.66.13.29.22.5.29.65-.11-.28-.28-.72-.41-1.15-.57-2.17-.8-3.29-.94-4.24.69-.25,1.33-.66,1.98-1.04,4.18-1.06,2.62-.46,7.25-1.16,13.83-1.54,27.79-2.43,41.71-1.95,3.74.4,3.06-.04,6.25.98-.11,4.12-.08,3.04-.81,6.67-1.23,3.71-.4,2.28-2.55,5.56Z"/>
        </g>
        <g>
          <path class="cls-65" d="M1503.68,1845.38c6.38,6.42,29.47,4.95,38.83,5.18,6.83-.11,13.66-.44,20.47-1.01,2.6-.22,5.53-.35,7.96-1.42,2.87,2.42,7.93.37,7.97-3.59-.4-6.26-.39-12.86-3.63-18.45-7.55-12.29-23.75-11.46-36.43-11.81-5.73-.04-11.47-.03-17.18.39-4.68.18-9.49,1.34-12.82,4.85-4.07,4.1-5.99,9.79-6.77,15.41-.54,3.5-.95,7.61,1.59,10.45Z"/>
          <path class="cls-61" d="M1515.43,1826.76c.14-.14.29-.29.49-.46.23-.21.44-.38.61-.52,3.51-2.06,9.71-1.48,18.32-1.74,14.06-.02,26.22.37,30.48,5.06.48.45.88.97,1.27,1.5.1.17.22.37.34.6.28.52.51,1.07.72,1.62-.13-.34-.08-.24.02.06.09.22.18.45.26.67-.12-.3-.2-.51-.26-.66.1.28.25.73.36,1.17.46,2.2.65,3.32.74,4.28-.7.22-1.36.6-2.03.94-4.22.86-2.64.34-7.3.82-13.89.9-27.88,1.13-41.76,0-3.72-.58-3.06-.1-6.2-1.27.3-4.11.22-3.03,1.12-6.62,1.4-3.65.5-2.26,2.81-5.43Z"/>
        </g>
        <rect class="cls-24" x="1639.76" y="1585.21" width="39.13" height="246.06"/>
        <g>
          <path class="cls-65" d="M1695.73,1568.6c-6.67-6.11-29.67-3.58-39.03-3.37-6.82.43-13.62,1.07-20.4,1.97-2.59.34-5.5.6-7.89,1.79-2.97-2.28-7.94,0-7.8,3.96.69,6.24.99,12.83,4.48,18.26,8.11,11.93,24.25,10.34,36.94,10.1,5.72-.23,11.45-.51,17.14-1.19,4.66-.4,9.42-1.78,12.58-5.44,3.87-4.28,5.52-10.06,6.04-15.71.38-3.52.59-7.65-2.08-10.36Z"/>
          <path class="cls-61" d="M1684.86,1587.75c-.13.14-.28.31-.46.49-.22.22-.42.4-.58.55-3.41,2.22-9.63,1.93-18.22,2.59-14.05.67-26.2.85-30.68-3.63-.5-.43-.93-.93-1.34-1.44-.11-.16-.23-.36-.37-.59-.31-.51-.56-1.04-.8-1.58.14.33.09.23-.02-.06-.1-.22-.2-.44-.29-.66.13.29.22.5.29.65-.11-.28-.28-.72-.41-1.15-.57-2.17-.8-3.29-.94-4.24.69-.25,1.33-.66,1.98-1.04,4.18-1.06,2.62-.46,7.25-1.16,13.83-1.54,27.79-2.43,41.71-1.95,3.74.4,3.06-.04,6.25.98-.11,4.12-.08,3.04-.81,6.67-1.23,3.71-.4,2.28-2.55,5.56Z"/>
        </g>
        <g>
          <path class="cls-65" d="M1622.29,1845.38c6.38,6.42,29.47,4.95,38.83,5.18,6.83-.11,13.66-.44,20.47-1.01,2.6-.22,5.53-.35,7.96-1.42,2.87,2.42,7.93.37,7.97-3.59-.4-6.26-.39-12.86-3.63-18.45-7.55-12.29-23.75-11.46-36.43-11.81-5.73-.04-11.47-.03-17.18.39-4.68.18-9.49,1.34-12.82,4.85-4.07,4.1-5.99,9.79-6.77,15.41-.54,3.5-.95,7.61,1.59,10.45Z"/>
          <path class="cls-61" d="M1634.04,1826.76c.14-.14.29-.29.49-.46.23-.21.44-.38.61-.52,3.51-2.06,9.71-1.48,18.32-1.74,14.06-.02,26.22.37,30.48,5.06.48.45.88.97,1.27,1.5.1.17.22.37.34.6.28.52.51,1.07.72,1.62-.13-.34-.08-.24.02.06.09.22.18.45.26.67-.12-.3-.2-.51-.26-.66.1.28.25.73.36,1.17.46,2.2.65,3.32.74,4.28-.7.22-1.36.6-2.03.94-4.22.86-2.64.34-7.3.82-13.89.9-27.88,1.13-41.76,0-3.72-.58-3.06-.1-6.2-1.27.3-4.11.22-3.03,1.12-6.62,1.4-3.65.5-2.26,2.81-5.43Z"/>
        </g>
        <rect class="cls-24" x="1759.07" y="1585.21" width="39.13" height="246.06"/>
        <g>
          <path class="cls-65" d="M1815.04,1568.6c-6.67-6.11-29.67-3.58-39.03-3.37-6.82.43-13.62,1.07-20.4,1.97-2.59.34-5.5.6-7.89,1.79-2.97-2.28-7.94,0-7.8,3.96.69,6.24.99,12.83,4.48,18.26,8.11,11.93,24.25,10.34,36.94,10.1,5.72-.23,11.45-.51,17.14-1.19,4.66-.4,9.42-1.78,12.58-5.44,3.87-4.28,5.52-10.06,6.04-15.71.38-3.52.59-7.65-2.08-10.36Z"/>
          <path class="cls-61" d="M1804.17,1587.75c-.13.14-.28.31-.46.49-.22.22-.42.4-.58.55-3.41,2.22-9.63,1.93-18.22,2.59-14.05.67-26.2.85-30.68-3.63-.5-.43-.93-.93-1.34-1.44-.11-.16-.23-.36-.37-.59-.31-.51-.56-1.04-.8-1.58.14.33.09.23-.02-.06-.1-.22-.2-.44-.29-.66.13.29.22.5.29.65-.11-.28-.28-.72-.41-1.15-.57-2.17-.8-3.29-.94-4.24.69-.25,1.33-.66,1.98-1.04,4.18-1.06,2.62-.46,7.25-1.16,13.83-1.54,27.79-2.43,41.71-1.95,3.74.4,3.06-.04,6.25.98-.11,4.12-.08,3.04-.81,6.67-1.23,3.71-.4,2.28-2.55,5.56Z"/>
        </g>
        <g>
          <path class="cls-65" d="M1741.6,1845.38c6.38,6.42,29.47,4.95,38.83,5.18,6.83-.11,13.66-.44,20.47-1.01,2.6-.22,5.53-.35,7.96-1.42,2.87,2.42,7.93.37,7.97-3.59-.4-6.26-.39-12.86-3.63-18.45-7.55-12.29-23.75-11.46-36.43-11.81-5.73-.04-11.47-.03-17.18.39-4.68.18-9.49,1.34-12.82,4.85-4.07,4.1-5.99,9.79-6.77,15.41-.54,3.5-.95,7.61,1.59,10.45Z"/>
          <path class="cls-61" d="M1753.35,1826.76c.14-.14.29-.29.49-.46.23-.21.44-.38.61-.52,3.51-2.06,9.71-1.48,18.32-1.74,14.06-.02,26.22.37,30.48,5.06.48.45.88.97,1.27,1.5.1.17.22.37.34.6.28.52.51,1.07.72,1.62-.13-.34-.08-.24.02.06.09.22.18.45.26.67-.12-.3-.2-.51-.26-.66.1.28.25.73.36,1.17.46,2.2.65,3.32.74,4.28-.7.22-1.36.6-2.03.94-4.22.86-2.64.34-7.3.82-13.89.9-27.88,1.13-41.76,0-3.72-.58-3.06-.1-6.2-1.27.3-4.11.22-3.03,1.12-6.62,1.4-3.65.5-2.26,2.81-5.43Z"/>
        </g>
      </g>
      <g id="Layer_12_copy_2" data-name="Layer 12 copy 2">
        <path class="cls-34" d="M1371.15,1573.72v-24.69s166.7-5.5,222.27-5.5,230.18,5.5,230.18,5.5v24.69s-172.96-5.49-230.62-5.49-221.83,5.49-221.83,5.49Z"/>
        <path class="cls-31" d="M1828.3,1836.71v28s-169.3,6.24-225.73,6.24-233.77-6.24-233.77-6.24v-28s175.66,6.22,234.21,6.22,225.29-6.22,225.29-6.22Z"/>
        <path class="cls-45" d="M1846.83,1861.17v28s-183.82,6.24-245.09,6.24-253.82-6.24-253.82-6.24v-28s190.73,6.22,254.3,6.22,244.61-6.22,244.61-6.22Z"/>
        <path class="cls-12" d="M1866.96,1890.52v28s-197.79,6.24-263.72,6.24-273.1-6.24-273.1-6.24v-28s205.22,6.22,273.62,6.22,263.2-6.22,263.2-6.22Z"/>
      </g>
      <g id="Flag_copy_2" data-name="Flag copy 2">
        <path class="cls-54" d="M1597.37,1308.12l.69,67.27-.69-67.27Z"/>
        <polygon class="cls-51" points="1540.55 1332.92 1598.06 1311.56 1596.34 1356.33 1540.55 1332.92"/>
      </g>
    </g>
    <g id="Stars_copy_2" data-name="Stars copy 2">
      <path class="cls-68" d="M1941.23,1917.02s3.11,25.46,18.44,31.27c-14.87,3.97-17.38,29.23-17.38,29.23,0,0-2.69-23.32-17.81-28.81,14.71-7.13,16.75-31.69,16.75-31.69Z"/>
      <path class="cls-68" d="M1388.96,1439.07s4.35,27.79,25.8,34.13c-20.8,4.33-24.32,31.9-24.32,31.9,0,0-3.77-25.45-24.92-31.44,20.58-7.78,23.44-34.59,23.44-34.59Z"/>
      <path class="cls-68" d="M2006.59,1424.77s4.48,31.51,26.57,38.7c-21.43,4.91-25.05,36.18-25.05,36.18,0,0-3.88-28.86-25.67-35.66,21.2-8.83,24.14-39.23,24.14-39.23Z"/>
      <path class="cls-68" d="M1798.28,1313.51s5.84,36.05,34.6,44.27c-27.9,5.62-32.61,41.39-32.61,41.39,0,0-5.06-33.01-33.42-40.78,27.6-10.1,31.44-44.87,31.44-44.87Z"/>
      <path class="cls-68" d="M1285.09,1937s2.92,19.55,17.3,24.02c-13.95,3.05-16.31,22.45-16.31,22.45,0,0-2.53-17.91-16.71-22.12,13.8-5.48,15.72-24.34,15.72-24.34Z"/>
      <path class="cls-68" d="M1297.93,1327.72s2.92,19.55,17.3,24.02c-13.95,3.05-16.31,22.45-16.31,22.45,0,0-2.53-17.91-16.71-22.12,13.8-5.48,15.72-24.34,15.72-24.34Z"/>
    </g>
  </g>
  <g id="Vocabulary_house" data-name="Vocabulary house">
    <g id="Bg_copy_4" data-name="Bg copy 4">
      <path class="cls-67" d="M919.72,1709.06c22.99-60.66,72.24-115.48,60.85-179.43-14.3-80.29-119.66-222.9-179.25-228.18-63.8-5.65-136.91,82-200.52,76.37-76.54-6.78-128.42-36.57-189.47-57.16-63.98-21.58-138.29-30.07-192.37,0-56.01,31.15-83.95,53.93-89.25,117.53-5.16,61.96,15.42,96.61-13.15,153.72-25.29,50.56-84.22,51.47-98.12,111.25-14.62,62.89,9.21,110.09,51.79,159.04,32.67,37.56,49.3,88.82,98.72,97.04,42.03,6.99,293.61-30.03,334.98-28.69,72.71,2.36,125.91,31.71,244.12,22.65,64.56-4.94,93.58-20.86,133-71.66,39.43-50.8,55.82-118.45,43.96-181.41"/>
    </g>
    <g id="Clouds_copy_3" data-name="Clouds copy 3">
      <path class="cls-66" d="M982.96,1411.48c12.22-36.2-1-84.3-27.67-100.68-26.67-16.38-61.9,1.98-73.73,38.42-17.85-24.07-43.32-49.99-65.51-33.97-9.25,6.67-15.16,19.3-21.79,30.33-32.68,54.35-93.4,29.26-150.68,73.06,0,0,236.47-4.93,339.38-7.15Z"/>
      <path class="cls-66" d="M76.09,1486.52c-11.15-26.93,20.77-54.03,45.11-66.21,24.34-12.18,56.35-5.81,67.14,21.29,16.28-17.9,31.84-23.96,54.23-16.42,22.12,7.45,30.7,28.81,117.65,58.08-117.41,0-190.23,4.91-284.13,3.26Z"/>
    </g>
    <g id="Building_copy_3" data-name="Building copy 3">
      <g id="Back2_copy_3" data-name="Back2 copy 3">
        <g id="Back_two_walls_copy_3" data-name="Back two walls copy 3">
          <rect class="cls-19" x="37.9" y="1611.75" width="917.93" height="262.52"/>
        </g>
        <g id="Windows_copy_3" data-name="Windows copy 3">
          <g id="Left_copy_3" data-name="Left copy 3">
            <path class="cls-10" d="M229.09,1812.3l24.96-.28s5.7-44.12-12-44.12-12.96,44.4-12.96,44.4Z"/>
            <path class="cls-10" d="M176.5,1812.3l24.96-.28s5.7-44.12-12-44.12-12.96,44.4-12.96,44.4Z"/>
            <path class="cls-10" d="M126.3,1812.3l24.96-.28s5.7-44.12-12-44.12-12.96,44.4-12.96,44.4Z"/>
            <path class="cls-10" d="M78.11,1812.3l24.96-.28s5.7-44.12-12-44.12-12.96,44.4-12.96,44.4Z"/>
            <rect class="cls-10" x="229.17" y="1659.41" width="25.1" height="71.71"/>
            <rect class="cls-10" x="78.57" y="1659.41" width="25.1" height="71.71"/>
            <rect class="cls-10" x="176.58" y="1659.41" width="25.1" height="71.71"/>
            <rect class="cls-10" x="126.38" y="1659.41" width="25.1" height="71.71"/>
            <path class="cls-10" d="M229.09,1812.3l24.96-.28s5.7-44.12-12-44.12-12.96,44.4-12.96,44.4Z"/>
            <path class="cls-10" d="M176.5,1812.3l24.96-.28s5.7-44.12-12-44.12-12.96,44.4-12.96,44.4Z"/>
            <path class="cls-10" d="M126.3,1812.3l24.96-.28s5.7-44.12-12-44.12-12.96,44.4-12.96,44.4Z"/>
            <path class="cls-10" d="M78.11,1812.3l24.96-.28s5.7-44.12-12-44.12-12.96,44.4-12.96,44.4Z"/>
            <rect class="cls-10" x="229.17" y="1659.41" width="25.1" height="71.71"/>
            <rect class="cls-10" x="78.57" y="1659.41" width="25.1" height="71.71"/>
            <rect class="cls-10" x="176.58" y="1659.41" width="25.1" height="71.71"/>
            <rect class="cls-10" x="126.38" y="1659.41" width="25.1" height="71.71"/>
          </g>
          <g id="Right_copy_3" data-name="Right copy 3">
            <path class="cls-10" d="M892.51,1813.19l24.96-.28s5.7-44.12-12-44.12-12.96,44.4-12.96,44.4Z"/>
            <path class="cls-10" d="M839.92,1813.19l24.96-.28s5.7-44.12-12-44.12-12.96,44.4-12.96,44.4Z"/>
            <path class="cls-10" d="M789.73,1813.19l24.96-.28s5.7-44.12-12-44.12-12.96,44.4-12.96,44.4Z"/>
            <path class="cls-10" d="M741.54,1813.19l24.96-.28s5.7-44.12-12-44.12-12.96,44.4-12.96,44.4Z"/>
            <rect class="cls-10" x="892.59" y="1660.29" width="25.1" height="71.71"/>
            <rect class="cls-10" x="742" y="1660.29" width="25.1" height="71.71"/>
            <rect class="cls-10" x="789.8" y="1660.29" width="25.1" height="71.71"/>
            <rect class="cls-10" x="840" y="1660.29" width="25.1" height="71.71"/>
          </g>
        </g>
      </g>
      <g id="Layer_16_copy_3" data-name="Layer 16 copy 3">
        <rect class="cls-36" x="294.69" y="1550.05" width="396.81" height="306.9"/>
      </g>
      <g id="Layer_17_copy_3" data-name="Layer 17 copy 3">
        <path class="cls-62" d="M512.57,1646.59c-1.11-4.13-4-7.75-7.74-9.81-8.56-4.24-17.07-1.86-20.38,7.51-2.29,5.38-1.37,12.19,2.68,16.49.91.99,2.19,1.81,3.54,2.21.83,1.05,1.81,1.95,2.92,2.64,5.2,3.08,11.87.88,15.61-3.48,3.94-4.13,4.67-10.18,3.37-15.56Z"/>
        <path class="cls-62" d="M614.95,1631.93c-1.63-1.09-4.07-1.12-5.57.22-.61.41-1.06.97-1.37,1.59-2.67-.44-5.75,1.35-5.71,4.66-.34,8.88-.7,17.77-.4,26.67.34,5.45-.45,11.34,2.37,16.26,2.28,4.04,7.51,5.04,10.71,1.44,4.51-5.58,4.69-13.27,5.39-20.11.3-7.53,1.2-26.24-5.43-30.73Z"/>
        <path class="cls-62" d="M609.08,1732.43c-.32.2-.59.41-.84.64-2.79-1.66-7.23-.33-7.35,4.03.2,13.81-.51,28.41,4.95,41.38,1.5,2.46,4.92,3.5,7.45,2.01,5.3-3.63,5.21-14.68,5.8-20.64.26-6.03.76-32.5-10.01-27.42Z"/>
        <path class="cls-62" d="M384.35,1636.33c-.6-1.78-2.53-2.95-4.37-2.94-1.77.08-2.9.72-3.62,1.69-2.45-.81-5.57.38-6.25,3.2-1.36,9.91-1.38,20.04.11,29.93.44,2.98,1.03,5.93,1.79,8.84.42,1.28.44,2.78,1.4,3.8,1.86,2.72,6.3,2.35,7.88-.48,1.08-1.92.51-4.24.82-6.34.27-4.25.48-8.5.75-12.76.31-5.44.83-10.86,1.35-16.29,0-2.72,1.11-6.14.14-8.65Z"/>
        <path class="cls-62" d="M384.35,1737.94c-.6-1.78-2.53-2.95-4.37-2.94-1.77.08-2.9.72-3.62,1.69-2.45-.81-5.57.38-6.25,3.2-1.36,9.91-1.38,20.04.11,29.93.44,2.98,1.03,5.93,1.79,8.84.42,1.28.44,2.78,1.4,3.8,1.86,2.72,6.3,2.35,7.88-.48,1.08-1.92.51-4.24.82-6.34.27-4.25.48-8.5.75-12.76.31-5.44.83-10.86,1.35-16.29,0-2.72,1.11-6.14.14-8.65Z"/>
        <path class="cls-62" d="M512.96,1747.21c.66-4.07.17-8.23-.03-12.32-.53-6.86-1.94-13.92-5.75-19.76-.43-.67-.92-1.25-1.46-1.76-.18-.41-.35-.83-.54-1.23-2.53-6.21-11.87-11.78-16.53-4.62-.18.35-.33.71-.45,1.07-1.06.01-2.17.34-3.29,1.08-2.52.78-4.37,3.17-5.24,5.63-.42,1.91-.55,3.89-.45,5.84,0,.1.02.2.03.3-.07.38-.09.76-.13,1.14-.37.79-.71,1.59-1.04,2.4-9.17,22.65-3.58,47.57-2.55,71.17.14,2.01.29,4.02.44,6.03-.33,5.69-.6,11.39-.79,17.09.06,4.67-.74,9.6.45,14.13,1.09,2.83,4.12,3.44,6.4,2.42,1.02.65,2.3.9,3.79.51.93-.23,1.65-.77,2.28-1.44,1.01.14,2.06.04,3.1-.38,2.31-.5,2.89-1.32,3.33-1.27.1-.03.2-.04.3-.07.54-.01,1.73-.11,2.33-.23.74-.13,1.45-.39,2.15-.68,1.29,3.55,6.68,3.82,8.48.52,1.23-2.92.93-7.14,1.49-10.36.36-3.5.71-7,1.04-10.5,1.48-15.94,2.32-31.94,2.6-47.94.09-5.35.08-10.7-.21-16.04.09-.24.19-.47.25-.73Z"/>
      </g>
      <g id="Layer_18_copy_3" data-name="Layer 18 copy 3">
        <path class="cls-63" d="M506.81,1709.19c.03-.09.08-.18.1-.27,1.4-8.15-10.58-7.33-15.05-4.15-5.1,3.68-7.95,8.75-9.57,14.46-11.17,21.03-9.12,51.85-8.15,74.64.71,15.37,1.05,30.75,1.63,46.12.1,2.36,0,5.21,2.16,6.7,2.64,2.27,6.88.6,7.67-2.65,1.63-11.04,1.32-22.27,1.68-33.4.47-17.59,1.03-35.17,1.74-52.75.29-7.52.5-15.05.81-22.57.31-5.43.47-9.13,1.33-12.54,2.28-3.91,4.9-6.47,7.62-7.2.35-.13.71-.21,1.08-.29.13,0,.26-.01.39-.01,1.07.49,2.27.69,3.43.35,2.88-.68,4.06-3.94,3.14-6.42Z"/>
        <path class="cls-63" d="M512.09,1633.27c-1.61-1.48-3.95-1.83-6.02-2.33-2.59-.49-5.23-.65-7.83-.17-7.51,1.21-13.13,7.74-15.63,14.61-2.02,6.53-1.79,13.92.76,20.26,3.03,5.76,11.51,1.19,8.4-4.53-1.95-6.38-1.43-16.44,6.37-20.45,1.53-.54,3.37-1.32,8.45.28,4.82,2.31,9.25-3.85,5.5-7.68Z"/>
        <path class="cls-63" d="M619.19,1633.34c-1.28-1.34-3.2-1.49-4.94-1.71-3.27-.33-6.62.83-9,3.1-3.24,3.11-3.93,7.75-4.46,12-.59,4.61-.79,9.26-.79,13.9.23,6.86-.19,13.99,1.16,20.7,1.83,4.78,9.21,3.27,9.15-1.84-1.05-13.19-1.4-32.1,1.41-37.7.1-.11.2-.21.28-.29.13-.08.26-.16.39-.23.14-.04.3-.09.47-.13.11,0,.26,0,.43-.01.18.01.33.02.44.03.9.2,1.79.51,2.7.27,3.84-.25,5.5-5.49,2.74-8.08Z"/>
        <path class="cls-63" d="M622.1,1734.4c-1.5-2.27-4.5-3.12-7.01-3.76-4.51-.89-9.64.72-12.26,4.64-2.73,4.37-2.68,9.8-2.98,14.79-.12,7.92-.51,15.85-.28,23.78.07,2.11.17,4.23.3,6.34.03,1.59.25,3.27,1.48,4.4,2.81,3,8.3.74,8.16-3.38-.69-8.66-.41-17.35-.2-26.02.18-7.29.15-12.23,1.59-14.72.15-.09.29-.19.45-.28.29-.1.57-.17.87-.23.11,0,.24,0,.41-.01.15,0,.27.01.38.02.56.12,1.11.28,1.65.48.28.14.63.31.92.49,1.1.64,2.46.82,3.68.48,2.97-.74,4.42-4.42,2.86-7.02Z"/>
        <path class="cls-63" d="M383.4,1633.42c-3.55-1.83-9.34.83-11.77,3.65-3.69,4.25-3.11,10.36-3.36,15.63,0,5.58.08,11.17-.16,16.75-.07,2.96-.25,5.94-.02,8.9.15,1.2.19,2.53,1.09,3.43,2.92,4.04,9.31.98,8.46-3.69-.02-.18-.04-.36-.05-.55-.18-5.07.26-10.14.24-15.22,0-6.96-.18-16.27.8-18.78.1-.11.26-.27.45-.45.16-.1.37-.22.59-.34.26-.09.66-.22,1.07-.31.32-.07.54-.11.72-.15.48-.04.94-.15,1.36-.37.59-.19,1.11-.52,1.54-.99,2.21-2.1,1.67-6.01-.97-7.51Z"/>
        <path class="cls-63" d="M384.88,1736.51c-1.99-1.88-4.97-1.54-7.51-1.53-4.43.1-9.28,2.51-10.13,7.22-.78,5.75-.84,11.58-.84,17.38-.01,6.84.71,13.68.28,20.51-.02.21-.04.43-.07.64-.02.12-.05.26-.09.44-.27.8-.48,1.65-.26,2.48.5,5.08,8.01,5.56,9.31.64,1.54-6.5.53-13.3.49-19.91-.21-5.65-.06-16.12.47-19.67.17-.05.36-.1.55-.14.51-.04,1.52-.12,2.07-.07,1.4-.04,2.91.51,4.2-.24,3.11-1.06,3.89-5.54,1.54-7.75Z"/>
      </g>
      <g id="Layer_19_copy_3" data-name="Layer 19 copy 3">
        <circle class="cls-44" cx="497.79" cy="1650.83" r="18.53"/>
        <rect class="cls-22" x="601.78" y="1633.11" width="17.93" height="49"/>
        <rect class="cls-22" x="601.78" y="1732.17" width="17.93" height="49"/>
        <rect class="cls-22" x="367.9" y="1735.16" width="17.93" height="49"/>
        <rect class="cls-22" x="367.9" y="1633.11" width="17.93" height="49"/>
        <path class="cls-22" d="M474.62,1840.76l37.61.68s.33-88.18.33-116.72c-3.8-14.59-11.17-20.96-18.53-21.03-6.46,0-12.58,5.83-18.76,23.09l-.66,113.98Z"/>
      </g>
      <g id="Layer_13_copy_3" data-name="Layer 13 copy 3">
        <g id="Layer_6_copy_3" data-name="Layer 6 copy 3">
          <polygon class="cls-25" points="164.27 1501.73 55.15 1598.37 271.28 1598.37 164.27 1501.73"/>
          <polygon class="cls-25" points="831.56 1501.73 722.44 1598.37 938.57 1598.37 831.56 1501.73"/>
        </g>
        <g id="Layer_5_copy_3" data-name="Layer 5 copy 3">
          <rect class="cls-39" x="671.97" y="1862.91" width="310.14" height="28.69"/>
          <rect class="cls-39" x="11.6" y="1862.91" width="310.14" height="28.69"/>
          <rect class="cls-39" x="11.6" y="1594.41" width="310.14" height="28.69"/>
          <rect class="cls-39" x="671.97" y="1600.39" width="310.14" height="28.69"/>
        </g>
      </g>
      <polygon class="cls-25" points="495.38 1380.33 310.72 1550.05 676.46 1550.05 495.38 1380.33"/>
      <g id="Column_copy_3" data-name="Column copy 3">
        <g id="Layer_15_copy_3" data-name="Layer 15 copy 3">
          <rect class="cls-42" x="296.39" y="1584.73" width="38.25" height="240.51"/>
        </g>
        <g>
          <path class="cls-58" d="M351.09,1568.5c-6.52-5.98-29-3.5-38.15-3.29-6.66.42-13.32,1.05-19.94,1.92-2.53.34-5.38.59-7.71,1.75-2.91-2.23-7.76,0-7.62,3.87.68,6.1.97,12.54,4.38,17.85,7.93,11.66,23.71,10.11,36.11,9.87,5.59-.22,11.2-.5,16.76-1.17,4.56-.39,9.21-1.74,12.29-5.32,3.79-4.19,5.4-9.83,5.91-15.36.37-3.44.58-7.47-2.03-10.13Z"/>
          <path class="cls-59" d="M340.46,1587.21c-.13.14-.27.3-.45.48-.21.21-.41.39-.57.54-3.33,2.17-9.41,1.89-17.81,2.53-13.73.66-25.61.83-29.99-3.55-.49-.42-.91-.91-1.31-1.4-.11-.16-.23-.35-.36-.57-.3-.49-.55-1.02-.78-1.55.14.32.09.23-.02-.06-.09-.21-.19-.43-.28-.64.13.29.22.49.28.63-.11-.27-.27-.7-.4-1.13-.55-2.12-.79-3.22-.92-4.14.68-.25,1.3-.65,1.94-1.01,4.08-1.03,2.56-.45,7.09-1.13,13.52-1.51,27.17-2.37,40.77-1.9,3.65.4,2.99-.04,6.11.96-.11,4.03-.07,2.97-.79,6.52-1.2,3.63-.39,2.23-2.49,5.43Z"/>
        </g>
        <g>
          <path class="cls-58" d="M279.31,1839.03c6.23,6.27,28.8,4.84,37.95,5.07,6.68-.1,13.35-.43,20-.99,2.54-.22,5.4-.34,7.78-1.39,2.8,2.37,7.75.36,7.79-3.51-.39-6.12-.38-12.57-3.54-18.03-7.38-12.02-23.21-11.2-35.61-11.54-5.6-.04-11.21-.03-16.79.39-4.57.18-9.28,1.31-12.53,4.74-3.98,4.01-5.85,9.57-6.62,15.06-.53,3.42-.93,7.44,1.56,10.21Z"/>
          <path class="cls-59" d="M290.79,1820.83c.13-.13.29-.29.48-.45.22-.2.43-.37.59-.51,3.43-2.02,9.49-1.45,17.91-1.7,13.74-.02,25.62.36,29.79,4.94.47.44.86.95,1.24,1.46.1.16.21.36.33.59.28.51.5,1.04.71,1.58-.12-.33-.08-.23.02.06.08.22.17.44.25.66-.11-.29-.19-.5-.25-.64.1.27.24.71.35,1.14.45,2.15.64,3.25.73,4.18-.69.21-1.33.59-1.98.92-4.13.84-2.58.33-7.13.8-13.58.88-27.25,1.11-40.82,0-3.63-.57-2.99-.1-6.06-1.24.3-4.02.21-2.96,1.1-6.47,1.37-3.57.49-2.21,2.74-5.31Z"/>
        </g>
        <rect class="cls-42" x="419.09" y="1585.41" width="38.25" height="240.51"/>
        <g>
          <path class="cls-58" d="M473.79,1569.17c-6.52-5.98-29-3.5-38.15-3.29-6.66.42-13.32,1.05-19.94,1.92-2.53.34-5.38.59-7.71,1.75-2.91-2.23-7.76,0-7.62,3.87.68,6.1.97,12.54,4.38,17.85,7.93,11.66,23.71,10.11,36.11,9.87,5.59-.22,11.2-.5,16.76-1.17,4.56-.39,9.21-1.74,12.29-5.32,3.79-4.19,5.4-9.83,5.91-15.36.37-3.44.58-7.47-2.03-10.13Z"/>
          <path class="cls-59" d="M463.17,1587.89c-.13.14-.27.3-.45.48-.21.21-.41.39-.57.54-3.33,2.17-9.41,1.89-17.81,2.53-13.73.66-25.61.83-29.99-3.55-.49-.42-.91-.91-1.31-1.4-.11-.16-.23-.35-.36-.57-.3-.49-.55-1.02-.78-1.55.14.32.09.23-.02-.06-.09-.21-.19-.43-.28-.64.13.29.22.49.28.63-.11-.27-.27-.7-.4-1.13-.55-2.12-.79-3.22-.92-4.14.68-.25,1.3-.65,1.94-1.01,4.08-1.03,2.56-.45,7.09-1.13,13.52-1.51,27.17-2.37,40.77-1.9,3.65.4,2.99-.04,6.11.96-.11,4.03-.07,2.97-.79,6.52-1.2,3.63-.39,2.23-2.49,5.43Z"/>
        </g>
        <g>
          <path class="cls-58" d="M402.01,1839.7c6.23,6.27,28.8,4.84,37.95,5.07,6.68-.1,13.35-.43,20-.99,2.54-.22,5.4-.34,7.78-1.39,2.8,2.37,7.75.36,7.79-3.51-.39-6.12-.38-12.57-3.54-18.03-7.38-12.02-23.21-11.2-35.61-11.54-5.6-.04-11.21-.03-16.79.39-4.57.18-9.28,1.31-12.53,4.74-3.98,4.01-5.85,9.57-6.62,15.06-.53,3.42-.93,7.44,1.56,10.21Z"/>
          <path class="cls-59" d="M413.5,1821.51c.13-.13.29-.29.48-.45.22-.2.43-.37.59-.51,3.43-2.02,9.49-1.45,17.91-1.7,13.74-.02,25.62.36,29.79,4.94.47.44.86.95,1.24,1.46.1.16.21.36.33.59.28.51.5,1.04.71,1.58-.12-.33-.08-.23.02.06.08.22.17.44.25.66-.11-.29-.19-.5-.25-.64.1.27.24.71.35,1.14.45,2.15.64,3.25.73,4.18-.69.21-1.33.59-1.98.92-4.13.84-2.58.33-7.13.8-13.58.88-27.25,1.11-40.82,0-3.63-.57-2.99-.1-6.06-1.24.3-4.02.21-2.96,1.1-6.47,1.37-3.57.49-2.21,2.74-5.31Z"/>
        </g>
        <rect class="cls-42" x="535.02" y="1585.41" width="38.25" height="240.51"/>
        <g>
          <path class="cls-58" d="M589.73,1569.17c-6.52-5.98-29-3.5-38.15-3.29-6.66.42-13.32,1.05-19.94,1.92-2.53.34-5.38.59-7.71,1.75-2.91-2.23-7.76,0-7.62,3.87.68,6.1.97,12.54,4.38,17.85,7.93,11.66,23.71,10.11,36.11,9.87,5.59-.22,11.2-.5,16.76-1.17,4.56-.39,9.21-1.74,12.29-5.32,3.79-4.19,5.4-9.83,5.91-15.36.37-3.44.58-7.47-2.03-10.13Z"/>
          <path class="cls-59" d="M579.1,1587.89c-.13.14-.27.3-.45.48-.21.21-.41.39-.57.54-3.33,2.17-9.41,1.89-17.81,2.53-13.73.66-25.61.83-29.99-3.55-.49-.42-.91-.91-1.31-1.4-.11-.16-.23-.35-.36-.57-.3-.49-.55-1.02-.78-1.55.14.32.09.23-.02-.06-.09-.21-.19-.43-.28-.64.13.29.22.49.28.63-.11-.27-.27-.7-.4-1.13-.55-2.12-.79-3.22-.92-4.14.68-.25,1.3-.65,1.94-1.01,4.08-1.03,2.56-.45,7.09-1.13,13.52-1.51,27.17-2.37,40.77-1.9,3.65.4,2.99-.04,6.11.96-.11,4.03-.07,2.97-.79,6.52-1.2,3.63-.39,2.23-2.49,5.43Z"/>
        </g>
        <g>
          <path class="cls-58" d="M517.95,1839.7c6.23,6.27,28.8,4.84,37.95,5.07,6.68-.1,13.35-.43,20-.99,2.54-.22,5.4-.34,7.78-1.39,2.8,2.37,7.75.36,7.79-3.51-.39-6.12-.38-12.57-3.54-18.03-7.38-12.02-23.21-11.2-35.61-11.54-5.6-.04-11.21-.03-16.79.39-4.57.18-9.28,1.31-12.53,4.74-3.98,4.01-5.85,9.57-6.62,15.06-.53,3.42-.93,7.44,1.56,10.21Z"/>
          <path class="cls-59" d="M529.43,1821.51c.13-.13.29-.29.48-.45.22-.2.43-.37.59-.51,3.43-2.02,9.49-1.45,17.91-1.7,13.74-.02,25.62.36,29.79,4.94.47.44.86.95,1.24,1.46.1.16.21.36.33.59.28.51.5,1.04.71,1.58-.12-.33-.08-.23.02.06.08.22.17.44.25.66-.11-.29-.19-.5-.25-.64.1.27.24.71.35,1.14.45,2.15.64,3.25.73,4.18-.69.21-1.33.59-1.98.92-4.13.84-2.58.33-7.13.8-13.58.88-27.25,1.11-40.82,0-3.63-.57-2.99-.1-6.06-1.24.3-4.02.21-2.96,1.1-6.47,1.37-3.57.49-2.21,2.74-5.31Z"/>
        </g>
        <rect class="cls-42" x="651.64" y="1585.41" width="38.25" height="240.51"/>
        <g>
          <path class="cls-58" d="M706.34,1569.17c-6.52-5.98-29-3.5-38.15-3.29-6.66.42-13.32,1.05-19.94,1.92-2.53.34-5.38.59-7.71,1.75-2.91-2.23-7.76,0-7.62,3.87.68,6.1.97,12.54,4.38,17.85,7.93,11.66,23.71,10.11,36.11,9.87,5.59-.22,11.2-.5,16.76-1.17,4.56-.39,9.21-1.74,12.29-5.32,3.79-4.19,5.4-9.83,5.91-15.36.37-3.44.58-7.47-2.03-10.13Z"/>
          <path class="cls-59" d="M695.72,1587.89c-.13.14-.27.3-.45.48-.21.21-.41.39-.57.54-3.33,2.17-9.41,1.89-17.81,2.53-13.73.66-25.61.83-29.99-3.55-.49-.42-.91-.91-1.31-1.4-.11-.16-.23-.35-.36-.57-.3-.49-.55-1.02-.78-1.55.14.32.09.23-.02-.06-.09-.21-.19-.43-.28-.64.13.29.22.49.28.63-.11-.27-.27-.7-.4-1.13-.55-2.12-.79-3.22-.92-4.14.68-.25,1.3-.65,1.94-1.01,4.08-1.03,2.56-.45,7.09-1.13,13.52-1.51,27.17-2.37,40.77-1.9,3.65.4,2.99-.04,6.11.96-.11,4.03-.07,2.97-.79,6.52-1.2,3.63-.39,2.23-2.49,5.43Z"/>
        </g>
        <g>
          <path class="cls-58" d="M634.56,1839.7c6.23,6.27,28.8,4.84,37.95,5.07,6.68-.1,13.35-.43,20-.99,2.54-.22,5.4-.34,7.78-1.39,2.8,2.37,7.75.36,7.79-3.51-.39-6.12-.38-12.57-3.54-18.03-7.38-12.02-23.21-11.2-35.61-11.54-5.6-.04-11.21-.03-16.79.39-4.57.18-9.28,1.31-12.53,4.74-3.98,4.01-5.85,9.57-6.62,15.06-.53,3.42-.93,7.44,1.56,10.21Z"/>
          <path class="cls-59" d="M646.05,1821.51c.13-.13.29-.29.48-.45.22-.2.43-.37.59-.51,3.43-2.02,9.49-1.45,17.91-1.7,13.74-.02,25.62.36,29.79,4.94.47.44.86.95,1.24,1.46.1.16.21.36.33.59.28.51.5,1.04.71,1.58-.12-.33-.08-.23.02.06.08.22.17.44.25.66-.11-.29-.19-.5-.25-.64.1.27.24.71.35,1.14.45,2.15.64,3.25.73,4.18-.69.21-1.33.59-1.98.92-4.13.84-2.58.33-7.13.8-13.58.88-27.25,1.11-40.82,0-3.63-.57-2.99-.1-6.06-1.24.3-4.02.21-2.96,1.1-6.47,1.37-3.57.49-2.21,2.74-5.31Z"/>
        </g>
      </g>
      <g id="Layer_12_copy_3" data-name="Layer 12 copy 3">
        <path class="cls-39" d="M272.47,1574.18v-24.13s162.94-5.38,217.25-5.38,224.98,5.38,224.98,5.38v24.13s-169.06-5.36-225.41-5.36-216.82,5.36-216.82,5.36Z"/>
        <path class="cls-41" d="M719.3,1831.23v27.37s-165.48,6.1-220.64,6.1-228.49-6.1-228.49-6.1v-27.37s171.69,6.08,228.93,6.08,220.2-6.08,220.2-6.08Z"/>
        <path class="cls-21" d="M737.41,1855.14v27.37s-179.67,6.1-239.56,6.1-248.09-6.1-248.09-6.1v-27.37s186.42,6.08,248.56,6.08,239.09-6.08,239.09-6.08Z"/>
        <path class="cls-14" d="M757.09,1883.82v27.37s-193.32,6.1-257.76,6.1-266.94-6.1-266.94-6.1v-27.37s200.58,6.08,267.45,6.08,257.25-6.08,257.25-6.08Z"/>
      </g>
      <g id="Flag_copy_3" data-name="Flag copy 3">
        <path class="cls-49" d="M493.59,1314.58l.67,65.75-.67-65.75Z"/>
        <polygon class="cls-35" points="438.05 1338.81 494.26 1317.94 492.58 1361.7 438.05 1338.81"/>
      </g>
    </g>
    <g id="Stars_copy_3" data-name="Stars copy 3">
      <path class="cls-68" d="M650.82,1369.12s3.04,24.89,18.02,30.56c-14.53,3.88-16.99,28.57-16.99,28.57,0,0-2.63-22.79-17.41-28.16,14.38-6.97,16.37-30.98,16.37-30.98Z"/>
      <path class="cls-68" d="M359.07,1366.42s4.26,27.16,25.21,33.36c-20.33,4.23-23.77,31.18-23.77,31.18,0,0-3.68-24.88-24.36-30.73,20.12-7.61,22.91-33.81,22.91-33.81Z"/>
      <path class="cls-68" d="M825.86,1878.09s4.38,30.8,25.97,37.83c-20.95,4.8-24.48,35.36-24.48,35.36,0,0-3.8-28.21-25.09-34.85,20.72-8.63,23.6-38.34,23.6-38.34Z"/>
      <path class="cls-68" d="M928.38,1450.67s5.71,35.23,33.82,43.27c-27.27,5.49-31.88,40.45-31.88,40.45,0,0-4.94-32.27-32.66-39.86,26.98-9.87,30.73-43.86,30.73-43.86Z"/>
      <path class="cls-68" d="M107.29,1891.98s2.85,19.11,16.91,23.47c-13.64,2.98-15.94,21.94-15.94,21.94,0,0-2.47-17.51-16.33-21.63,13.49-5.35,15.36-23.79,15.36-23.79Z"/>
      <path class="cls-68" d="M228.4,1296.45s2.85,19.11,16.91,23.47c-13.64,2.98-15.94,21.94-15.94,21.94,0,0-2.47-17.51-16.33-21.63,13.49-5.35,15.36-23.79,15.36-23.79Z"/>
    </g>
  </g>
</svg>