<svg xmlns="http://www.w3.org/2000/svg" xmlns:xlink="http://www.w3.org/1999/xlink" width="1080" zoomAndPan="magnify" viewBox="0 0 810 809.999993" height="1080" preserveAspectRatio="xMidYMid meet" version="1.0"><defs><clipPath id="85fe6eb005"><path d="M 95.175781 0 L 546 0 L 546 810 L 95.175781 810 Z M 95.175781 0 " clip-rule="nonzero"/></clipPath><clipPath id="92c1c22739"><path d="M 95.175781 89 L 546 89 L 546 115 L 95.175781 115 Z M 95.175781 89 " clip-rule="nonzero"/></clipPath><clipPath id="9b75ce41d6"><path d="M 95.175781 670 L 546 670 L 546 696 L 95.175781 696 Z M 95.175781 670 " clip-rule="nonzero"/></clipPath><clipPath id="6702b14bdf"><path d="M 350.15625 210 L 714.675781 210 L 714.675781 574.984375 L 350.15625 574.984375 Z M 350.15625 210 " clip-rule="nonzero"/></clipPath></defs><g clip-path="url(#85fe6eb005)"><path fill="#ffe26f" d="M 511.660156 809.730469 L 128.90625 809.730469 C 110.304688 809.730469 95.175781 794.597656 95.175781 776 L 95.175781 33.992188 C 95.175781 15.402344 110.304688 0.269531 128.90625 0.269531 L 511.660156 0.269531 C 530.25 0.269531 545.382812 15.402344 545.382812 33.992188 L 545.382812 222.855469 C 545.382812 229.84375 539.722656 235.503906 532.734375 235.503906 C 525.753906 235.503906 520.085938 229.84375 520.085938 222.855469 L 520.085938 33.992188 C 520.085938 29.34375 516.308594 25.566406 511.660156 25.566406 L 128.90625 25.566406 C 124.25 25.566406 120.46875 29.34375 120.46875 33.992188 L 120.46875 776 C 120.46875 780.65625 124.25 784.433594 128.90625 784.433594 L 511.660156 784.433594 C 516.308594 784.433594 520.085938 780.65625 520.085938 776 L 520.085938 561.660156 C 520.085938 554.671875 525.753906 549.011719 532.734375 549.011719 C 539.722656 549.011719 545.382812 554.671875 545.382812 561.660156 L 545.382812 776 C 545.382812 794.597656 530.25 809.730469 511.660156 809.730469 " fill-opacity="1" fill-rule="nonzero"/></g><g clip-path="url(#92c1c22739)"><path fill="#ffe26f" d="M 532.734375 114.433594 L 107.824219 114.433594 C 100.835938 114.433594 95.175781 108.773438 95.175781 101.785156 C 95.175781 94.804688 100.835938 89.136719 107.824219 89.136719 L 532.734375 89.136719 C 539.722656 89.136719 545.382812 94.804688 545.382812 101.785156 C 545.382812 108.773438 539.722656 114.433594 532.734375 114.433594 " fill-opacity="1" fill-rule="nonzero"/></g><g clip-path="url(#9b75ce41d6)"><path fill="#ffe26f" d="M 532.734375 695.371094 L 107.824219 695.371094 C 100.835938 695.371094 95.175781 689.710938 95.175781 682.722656 C 95.175781 675.742188 100.835938 670.074219 107.824219 670.074219 L 532.734375 670.074219 C 539.722656 670.074219 545.382812 675.742188 545.382812 682.722656 C 545.382812 689.710938 539.722656 695.371094 532.734375 695.371094 " fill-opacity="1" fill-rule="nonzero"/></g><path fill="#ffe26f" d="M 367.988281 752.789062 L 272.574219 752.789062 C 265.589844 752.789062 259.929688 747.128906 259.929688 740.144531 C 259.929688 733.15625 265.589844 727.496094 272.574219 727.496094 L 367.988281 727.496094 C 374.96875 727.496094 380.636719 733.15625 380.636719 740.144531 C 380.636719 747.128906 374.96875 752.789062 367.988281 752.789062 " fill-opacity="1" fill-rule="nonzero"/><g clip-path="url(#6702b14bdf)"><path fill="#ffbd59" d="M 523.816406 549.003906 L 541.421875 549.019531 L 541.4375 524.757812 C 541.445312 518.546875 545.957031 513.257812 552.09375 512.277344 C 570.628906 509.3125 588.496094 501.921875 603.765625 490.902344 C 608.800781 487.265625 615.726562 487.835938 620.113281 492.222656 L 637.265625 509.398438 L 649.726562 496.957031 L 632.570312 479.78125 C 628.183594 475.394531 627.640625 468.460938 631.273438 463.433594 C 642.320312 448.175781 649.734375 430.320312 652.722656 411.789062 C 653.71875 405.664062 659.003906 401.160156 665.210938 401.160156 C 665.210938 401.160156 665.210938 401.160156 665.21875 401.160156 L 689.488281 401.175781 L 689.496094 383.570312 L 665.234375 383.554688 C 659.019531 383.546875 653.734375 379.03125 652.753906 372.898438 C 649.789062 354.371094 642.398438 336.496094 631.378906 321.222656 C 627.75 316.1875 628.3125 309.265625 632.699219 304.875 L 649.875 287.722656 L 637.441406 275.265625 L 620.265625 292.417969 C 615.867188 296.804688 608.9375 297.351562 603.910156 293.714844 C 588.652344 282.679688 570.796875 275.257812 552.265625 272.269531 C 546.132812 271.28125 541.625 265.984375 541.632812 259.773438 L 541.65625 235.511719 L 524.046875 235.496094 L 524.03125 259.765625 C 524.03125 265.96875 519.507812 271.257812 513.382812 272.238281 C 494.84375 275.203125 476.980469 282.59375 461.707031 293.613281 C 456.671875 297.242188 449.738281 296.6875 445.351562 292.292969 L 428.199219 275.113281 L 415.742188 287.558594 L 432.894531 304.726562 C 437.28125 309.121094 437.835938 316.054688 434.191406 321.082031 C 423.15625 336.339844 415.734375 354.195312 412.746094 372.722656 C 411.757812 378.851562 406.46875 383.355469 400.261719 383.355469 C 400.253906 383.355469 400.253906 383.355469 400.253906 383.355469 L 375.988281 383.339844 L 375.972656 400.945312 L 400.238281 400.960938 C 406.445312 400.96875 411.734375 405.480469 412.722656 411.617188 C 415.6875 430.152344 423.070312 448.019531 434.089844 463.289062 C 437.722656 468.316406 437.164062 475.25 432.769531 479.636719 L 415.589844 496.792969 L 428.035156 509.25 L 445.210938 492.097656 C 449.605469 487.707031 456.53125 487.15625 461.558594 490.800781 C 476.8125 501.84375 494.671875 509.257812 513.199219 512.246094 C 519.335938 513.234375 523.839844 518.53125 523.832031 524.742188 Z M 554.0625 574.324219 C 554.0625 574.324219 554.0625 574.324219 554.050781 574.324219 L 511.152344 574.289062 C 507.792969 574.289062 504.582031 572.953125 502.210938 570.582031 C 499.839844 568.203125 498.511719 564.988281 498.511719 561.636719 L 498.527344 535.082031 C 483.46875 531.46875 468.964844 525.445312 455.746094 517.320312 L 436.957031 536.085938 C 432.007812 541.019531 424 541.011719 419.070312 536.070312 L 388.753906 505.714844 C 386.382812 503.335938 385.054688 500.121094 385.054688 496.769531 C 385.0625 493.40625 386.390625 490.199219 388.769531 487.828125 L 407.558594 469.0625 C 399.449219 455.828125 393.449219 441.316406 389.851562 426.25 L 363.308594 426.234375 C 356.320312 426.222656 350.667969 420.558594 350.667969 413.570312 L 350.699219 370.667969 C 350.699219 367.316406 352.035156 364.101562 354.414062 361.730469 C 356.785156 359.363281 359.996094 358.039062 363.347656 358.039062 C 363.355469 358.039062 363.355469 358.039062 363.355469 358.039062 L 389.90625 358.054688 C 393.519531 342.996094 399.542969 328.488281 407.679688 315.273438 L 388.910156 296.472656 C 383.972656 291.535156 383.980469 283.527344 388.921875 278.59375 L 419.28125 248.277344 C 421.652344 245.90625 424.863281 244.578125 428.214844 244.578125 C 428.214844 244.578125 428.222656 244.578125 428.222656 244.578125 C 431.582031 244.585938 434.792969 245.914062 437.164062 248.292969 L 455.929688 267.082031 C 469.164062 258.972656 483.675781 252.964844 498.742188 249.375 L 498.757812 222.832031 C 498.765625 215.84375 504.425781 210.191406 511.40625 210.191406 C 511.414062 210.191406 511.414062 210.191406 511.421875 210.191406 L 554.320312 210.222656 C 557.671875 210.222656 560.890625 211.558594 563.261719 213.929688 C 565.625 216.3125 566.960938 219.527344 566.960938 222.878906 L 566.9375 249.433594 C 581.996094 253.035156 596.5 259.066406 609.71875 267.195312 L 628.515625 248.429688 C 630.886719 246.066406 634.097656 244.738281 637.449219 244.738281 C 637.457031 244.738281 637.457031 244.738281 637.457031 244.738281 C 640.816406 244.738281 644.035156 246.074219 646.40625 248.445312 L 676.710938 278.796875 C 681.652344 283.746094 681.644531 291.753906 676.703125 296.6875 L 657.90625 315.453125 C 666.023438 328.679688 672.023438 343.199219 675.613281 358.265625 L 702.160156 358.28125 C 709.144531 358.289062 714.804688 363.957031 714.796875 370.9375 L 714.765625 413.835938 C 714.765625 417.195312 713.429688 420.414062 711.058594 422.777344 C 708.6875 425.148438 705.46875 426.476562 702.117188 426.476562 C 702.117188 426.476562 702.117188 426.476562 702.109375 426.476562 L 675.566406 426.460938 C 671.953125 441.519531 665.929688 456.027344 657.796875 469.242188 L 676.5625 488.039062 C 678.933594 490.410156 680.261719 493.628906 680.261719 496.980469 C 680.253906 500.339844 678.925781 503.550781 676.546875 505.921875 L 646.191406 536.238281 C 643.820312 538.609375 640.601562 539.9375 637.25 539.9375 C 637.25 539.9375 637.25 539.9375 637.242188 539.9375 C 633.890625 539.9375 630.675781 538.601562 628.304688 536.230469 L 609.535156 517.429688 C 596.3125 525.542969 581.796875 531.550781 566.722656 535.136719 L 566.707031 561.683594 C 566.707031 568.671875 561.039062 574.324219 554.0625 574.324219 " fill-opacity="1" fill-rule="nonzero"/></g><path fill="#ffbd59" d="M 456.570312 392.203125 L 469.21875 392.210938 C 469.1875 427.238281 497.660156 455.75 532.6875 455.78125 C 549.65625 455.796875 565.609375 449.195312 577.617188 437.203125 C 589.625 425.210938 596.242188 409.269531 596.257812 392.304688 C 596.28125 357.277344 567.808594 328.757812 532.78125 328.734375 C 532.765625 328.734375 532.75 328.734375 532.734375 328.734375 C 497.730469 328.734375 469.242188 357.199219 469.21875 392.210938 Z M 532.734375 481.078125 C 532.71875 481.078125 532.695312 481.078125 532.671875 481.078125 C 483.699219 481.035156 443.882812 441.164062 443.921875 392.195312 C 443.953125 343.238281 483.792969 303.4375 532.734375 303.4375 C 532.757812 303.4375 532.773438 303.4375 532.804688 303.4375 C 581.773438 303.476562 621.59375 343.351562 621.550781 392.320312 C 621.535156 416.050781 612.28125 438.34375 595.488281 455.109375 C 578.722656 471.851562 556.433594 481.078125 532.734375 481.078125 " fill-opacity="1" fill-rule="nonzero"/></svg>