<svg xmlns="http://www.w3.org/2000/svg" xmlns:xlink="http://www.w3.org/1999/xlink" width="1080" zoomAndPan="magnify" viewBox="0 0 810 809.999993" height="1080" preserveAspectRatio="xMidYMid meet" version="1.0"><defs><clipPath id="b734ee3ba4"><path d="M 443 42.019531 L 703 42.019531 L 703 177 L 443 177 Z M 443 42.019531 " clip-rule="nonzero"/></clipPath><clipPath id="8109b67195"><path d="M 0.199219 637.625 L 809.800781 637.625 L 809.800781 767.964844 L 0.199219 767.964844 Z M 0.199219 637.625 " clip-rule="nonzero"/></clipPath></defs><g clip-path="url(#b734ee3ba4)"><path fill="#ffbd59" d="M 697.382812 67.199219 L 702.652344 121.699219 L 648.15625 116.429688 L 656.835938 107.746094 C 658.167969 106.414062 658.875 104.574219 658.78125 102.6875 C 658.6875 100.804688 657.800781 99.050781 656.335938 97.851562 C 611.464844 61.246094 546.691406 64.582031 505.664062 105.617188 C 494.664062 116.617188 486.222656 129.484375 480.554688 143.859375 C 476.476562 154.25 473.972656 165.0625 473.089844 176.121094 C 465.0625 171.855469 456.796875 167.917969 448.386719 164.359375 C 446.886719 163.726562 445.375 163.097656 443.863281 162.488281 C 445.5625 151.847656 448.480469 141.402344 452.558594 131.359375 C 459.765625 113.582031 470.351562 97.636719 484.015625 83.96875 C 497.679688 70.300781 513.621094 59.714844 531.40625 52.507812 C 548.5625 45.546875 566.699219 42.019531 585.300781 42.019531 C 603.894531 42.019531 622.027344 45.546875 639.183594 52.507812 C 653.714844 58.394531 667.097656 66.597656 678.953125 76.871094 C 681.597656 79.160156 685.5625 79.019531 688.042969 76.542969 L 697.382812 67.199219 " fill-opacity="1" fill-rule="nonzero"/></g><path fill="#ffe26f" d="M 600.542969 334.007812 C 615.972656 370.480469 623.792969 409.210938 623.792969 449.121094 C 623.792969 489.023438 615.972656 527.753906 600.542969 564.21875 C 585.648438 599.441406 564.328125 631.066406 537.175781 658.210938 C 532.695312 662.6875 528.054688 667.050781 523.335938 671.203125 L 464.695312 671.203125 C 498.105469 650.605469 526.566406 622.671875 547.902344 589.339844 C 574.714844 547.449219 588.882812 498.964844 588.882812 449.121094 C 588.882812 305.308594 471.886719 188.3125 328.082031 188.3125 C 184.269531 188.3125 67.273438 305.308594 67.273438 449.121094 C 67.273438 452.804688 70.257812 455.792969 73.945312 455.792969 L 91.980469 455.792969 L 49.824219 506.976562 L 7.667969 455.792969 L 25.699219 455.792969 C 29.382812 455.792969 32.375 452.804688 32.375 449.121094 C 32.375 409.199219 40.191406 370.46875 55.609375 334.007812 C 70.507812 298.785156 91.828125 267.167969 118.980469 240.011719 C 146.132812 212.863281 177.757812 191.542969 212.96875 176.648438 C 249.429688 161.222656 288.160156 153.40625 328.082031 153.40625 C 364.59375 153.40625 400.183594 159.964844 433.890625 172.90625 C 433.96875 172.933594 434.046875 172.96875 434.125 172.992188 C 434.179688 173.019531 434.230469 173.039062 434.28125 173.058594 C 437.238281 174.191406 440.230469 175.402344 443.1875 176.648438 C 454.464844 181.421875 465.480469 186.902344 475.953125 192.960938 C 475.996094 192.980469 476.035156 193.007812 476.082031 193.027344 C 476.144531 193.070312 476.207031 193.105469 476.273438 193.144531 C 498.410156 205.96875 518.902344 221.734375 537.175781 240.015625 C 553.722656 256.554688 568.226562 274.929688 580.292969 294.621094 C 580.339844 294.691406 580.386719 294.769531 580.441406 294.84375 C 588.058594 307.292969 594.824219 320.464844 600.542969 334.007812 " fill-opacity="1" fill-rule="nonzero"/><g clip-path="url(#8109b67195)"><path fill="#ffbd59" d="M 809.800781 702.8125 L 722.425781 767.964844 L 722.425781 727.925781 C 722.789062 724.273438 719.199219 721.074219 715.753906 721.074219 L 0.199219 721.074219 L 0.199219 684.550781 L 438.550781 684.550781 C 438.597656 684.554688 438.65625 684.554688 438.707031 684.554688 C 438.765625 684.554688 438.828125 684.554688 438.890625 684.550781 L 525.664062 684.550781 C 525.820312 684.554688 525.976562 684.554688 526.125 684.550781 L 715.753906 684.550781 C 719.089844 684.550781 722.773438 681.214844 722.425781 677.703125 L 722.425781 637.664062 L 809.800781 702.8125 " fill-opacity="1" fill-rule="nonzero"/></g></svg>