<svg xmlns="http://www.w3.org/2000/svg" xmlns:xlink="http://www.w3.org/1999/xlink" width="1080" zoomAndPan="magnify" viewBox="0 0 810 809.999993" height="1080" preserveAspectRatio="xMidYMid meet" version="1.0"><defs><clipPath id="4034f7f39e"><path d="M 0 628 L 810 628 L 810 785.550781 L 0 785.550781 Z M 0 628 " clip-rule="nonzero"/></clipPath><clipPath id="a33a20f4b1"><path d="M 62 24.300781 L 757 24.300781 L 757 128 L 62 128 Z M 62 24.300781 " clip-rule="nonzero"/></clipPath><clipPath id="b2765b2b0e"><path d="M 637 24.300781 L 664 24.300781 L 664 128 L 637 128 Z M 637 24.300781 " clip-rule="nonzero"/></clipPath></defs><path fill="#ffe26f" d="M 141.566406 718.226562 C 134.496094 718.226562 128.714844 712.441406 128.714844 705.375 L 128.714844 255.609375 C 128.714844 227.335938 105.582031 204.207031 77.3125 204.207031 C 49.042969 204.207031 25.910156 227.335938 25.910156 255.609375 L 25.910156 705.375 C 25.910156 712.441406 20.128906 718.226562 13.058594 718.226562 C 5.992188 718.226562 0.210938 712.441406 0.210938 705.375 L 0.210938 255.609375 C 0.210938 213.042969 34.746094 178.503906 77.3125 178.503906 C 119.878906 178.503906 154.414062 213.042969 154.414062 255.609375 L 154.414062 705.375 C 154.414062 712.441406 148.632812 718.226562 141.566406 718.226562 Z M 141.566406 718.226562 " fill-opacity="1" fill-rule="nonzero"/><path fill="#ffe26f" d="M 796.9375 718.226562 C 789.871094 718.226562 784.089844 712.441406 784.089844 705.375 L 784.089844 255.609375 C 784.089844 227.335938 760.957031 204.207031 732.6875 204.207031 C 704.414062 204.207031 681.285156 227.335938 681.285156 255.609375 L 681.285156 705.375 C 681.285156 712.441406 675.503906 718.226562 668.433594 718.226562 C 661.367188 718.226562 655.585938 712.441406 655.585938 705.375 L 655.585938 255.609375 C 655.585938 213.042969 690.121094 178.503906 732.6875 178.503906 C 775.253906 178.503906 809.789062 213.042969 809.789062 255.609375 L 809.789062 705.375 C 809.789062 712.441406 804.007812 718.226562 796.9375 718.226562 Z M 796.9375 718.226562 " fill-opacity="1" fill-rule="nonzero"/><g clip-path="url(#4034f7f39e)"><path fill="#ffe26f" d="M 732.6875 785.691406 L 77.3125 785.691406 C 56.753906 785.691406 37.316406 777.335938 22.699219 762.078125 C 8.242188 747.140625 0.210938 727.542969 0.210938 706.980469 C 0.210938 686.421875 8.242188 666.824219 22.699219 651.886719 C 37.316406 636.625 56.753906 628.273438 77.3125 628.273438 C 119.878906 628.273438 154.414062 662.808594 154.414062 705.375 C 154.414062 712.441406 148.632812 718.226562 141.566406 718.226562 C 134.496094 718.226562 128.714844 712.441406 128.714844 705.375 C 128.714844 677.105469 105.582031 653.972656 77.3125 653.972656 C 49.523438 653.972656 25.910156 678.230469 25.910156 706.980469 C 25.910156 735.734375 49.523438 759.988281 77.3125 759.988281 L 732.6875 759.988281 C 760.476562 759.988281 784.089844 735.734375 784.089844 706.980469 C 784.089844 678.230469 760.957031 654.777344 732.6875 654.777344 C 704.414062 654.777344 681.285156 677.585938 681.285156 705.855469 C 681.285156 712.925781 675.503906 718.707031 668.433594 718.707031 C 661.367188 718.707031 655.585938 712.925781 655.585938 705.855469 C 655.585938 663.609375 690.121094 629.074219 732.6875 629.074219 C 775.253906 629.074219 809.789062 664.09375 809.789062 706.980469 C 809.789062 727.542969 801.757812 747.140625 787.300781 762.078125 C 772.683594 777.335938 753.246094 785.691406 732.6875 785.691406 Z M 732.6875 785.691406 " fill-opacity="1" fill-rule="nonzero"/></g><path fill="#ffe26f" d="M 668.433594 284.523438 L 141.566406 284.523438 C 134.496094 284.523438 128.714844 278.738281 128.714844 271.671875 C 128.714844 264.605469 134.496094 258.820312 141.566406 258.820312 L 668.433594 258.820312 C 675.503906 258.820312 681.285156 264.605469 681.285156 271.671875 C 681.285156 278.738281 675.503906 284.523438 668.433594 284.523438 Z M 668.433594 284.523438 " fill-opacity="1" fill-rule="nonzero"/><path fill="#ffbd59" d="M 565.632812 679.675781 L 231.519531 679.675781 C 224.449219 679.675781 218.667969 673.890625 218.667969 666.824219 L 218.667969 358.414062 C 218.667969 353.273438 221.71875 348.613281 226.378906 346.6875 C 231.035156 344.597656 236.5 345.5625 240.191406 348.933594 L 574.304688 657.347656 C 578.160156 660.878906 579.445312 666.503906 577.519531 671.480469 C 575.75 676.460938 570.933594 679.675781 565.632812 679.675781 Z M 244.367188 653.972656 L 532.703125 653.972656 L 244.367188 387.808594 Z M 244.367188 653.972656 " fill-opacity="1" fill-rule="nonzero"/><g clip-path="url(#a33a20f4b1)"><path fill="#ffbd59" d="M 653.976562 127.105469 L 114.257812 127.105469 C 85.988281 127.105469 62.855469 103.972656 62.855469 75.703125 C 62.855469 47.429688 85.988281 24.300781 114.257812 24.300781 L 653.976562 24.300781 C 655.746094 24.300781 657.511719 24.621094 659.117188 25.265625 L 749.070312 63.816406 C 753.730469 65.902344 756.78125 70.5625 756.78125 75.703125 C 756.78125 80.84375 753.730469 85.5 749.070312 87.589844 L 659.117188 126.140625 C 657.511719 126.78125 655.746094 127.105469 653.976562 127.105469 Z M 114.257812 50 C 100.121094 50 88.558594 61.566406 88.558594 75.703125 C 88.558594 89.835938 100.121094 101.402344 114.257812 101.402344 L 651.40625 101.402344 L 711.324219 75.703125 L 651.40625 50 Z M 114.257812 50 " fill-opacity="1" fill-rule="nonzero"/></g><path fill="#ffbd59" d="M 149.597656 127.105469 C 142.527344 127.105469 136.746094 121.320312 136.746094 114.253906 L 136.746094 50 C 136.746094 42.933594 142.527344 37.152344 149.597656 37.152344 C 156.664062 37.152344 162.449219 42.933594 162.449219 50 L 162.449219 114.253906 C 162.449219 121.320312 156.664062 127.105469 149.597656 127.105469 Z M 149.597656 127.105469 " fill-opacity="1" fill-rule="nonzero"/><g clip-path="url(#b2765b2b0e)"><path fill="#ffbd59" d="M 650.765625 127.105469 C 643.699219 127.105469 637.914062 121.320312 637.914062 114.253906 L 637.914062 37.152344 C 637.914062 30.082031 643.699219 24.300781 650.765625 24.300781 C 657.832031 24.300781 663.617188 30.082031 663.617188 37.152344 L 663.617188 114.253906 C 663.617188 121.320312 657.832031 127.105469 650.765625 127.105469 Z M 650.765625 127.105469 " fill-opacity="1" fill-rule="nonzero"/></g></svg>